<svg width="100" height="40" viewBox="0 0 100 40" fill="none" xmlns="http://www.w3.org/2000/svg">
<path d="M9.56504 27.9982C8.95146 27.9982 8.33788 27.9025 7.74884 27.687C7.20889 27.4955 6.71803 27.2083 6.30079 26.8253C5.88356 26.4663 5.56449 26.0115 5.34361 25.5328C5.09817 25.0301 5 24.4557 5 23.9051C5 23.2828 5.14726 22.6844 5.41723 22.1339C5.71175 21.6073 6.10445 21.1285 6.59531 20.7456C7.11072 20.3386 7.7243 20.0275 8.36242 19.836C9.09872 19.6206 9.85956 19.5009 10.6449 19.5248C11.553 19.5009 12.4611 19.6684 13.2956 20.0035V19.6206C13.2956 19.0222 13.1238 18.5674 12.7557 18.2801C12.3875 17.9929 11.823 17.8493 11.0376 17.8493C10.3259 17.8493 9.63867 17.969 8.976 18.2083C8.26425 18.4716 7.60158 18.8307 6.988 19.2376L5.63812 16.3653C7.40524 15.2642 9.44232 14.7137 11.5285 14.7376C13.6147 14.7376 15.2345 15.1924 16.3635 16.102C17.4925 17.0115 18.057 18.3759 18.057 20.1711V22.6365C18.057 23.0674 18.1306 23.3785 18.3024 23.5461C18.5479 23.7376 18.8669 23.8573 19.2105 23.8573V27.7349C18.7687 27.8067 18.3761 27.8785 17.9834 27.9264C17.6398 27.9743 17.2962 27.9743 16.9525 27.9982C16.1181 27.9982 15.4554 27.8546 15.0136 27.5434C14.5719 27.2322 14.2528 26.7535 14.1546 26.203L14.0564 25.7482C13.5165 26.4424 12.8293 27.0168 12.0439 27.4237C11.234 27.8067 10.3995 28.0221 9.56504 27.9982ZM10.964 24.695C11.2585 24.695 11.553 24.6471 11.823 24.5514C12.1175 24.4796 12.3875 24.3599 12.6329 24.1924C12.8047 24.0727 12.952 23.9291 13.0747 23.7615C13.1974 23.6179 13.2465 23.4503 13.2465 23.2828V22.3253C12.952 22.2296 12.6329 22.1339 12.3139 22.086C12.0194 22.0142 11.7248 21.9902 11.4058 21.9902C10.8904 21.9663 10.375 22.1099 9.95773 22.3972C9.58958 22.6365 9.39324 23.0195 9.39324 23.4503C9.39324 23.7854 9.5405 24.1205 9.83501 24.336C10.1786 24.5993 10.5713 24.719 10.964 24.695Z" fill="url(#paint0_linear_571_8140)"/>
<path d="M20.2049 10H24.7617V22.36C24.7617 23.344 25.1631 23.824 25.9423 23.824C26.1548 23.824 26.3673 23.8 26.5561 23.728C26.7686 23.656 26.9811 23.584 27.17 23.464L27.7367 27.184C27.1464 27.448 26.5325 27.664 25.895 27.784C25.2576 27.928 24.6201 28 23.959 28C22.7549 28 21.8104 27.688 21.1494 27.04C20.4883 26.416 20.1577 25.48 20.1577 24.28L20.2049 10Z" fill="url(#paint1_linear_571_8140)"/>
<path d="M35.3157 27.9978C34.3383 28.0217 33.3609 27.8302 32.4516 27.4473C31.6788 27.1122 30.9742 26.6097 30.3832 25.9874C29.8149 25.3891 29.383 24.6711 29.1103 23.8813C28.542 22.2538 28.542 20.4828 29.1103 18.8553C29.383 18.0655 29.8149 17.3476 30.3832 16.7492C30.9742 16.127 31.6788 15.6244 32.4516 15.2893C33.3609 14.9064 34.3383 14.7149 35.3157 14.7388C36.2931 14.7149 37.2705 14.9064 38.1797 15.2893C38.9525 15.6244 39.6572 16.127 40.2481 16.7492C40.8164 17.3476 41.2483 18.0655 41.521 18.8553C42.0893 20.4828 42.0893 22.2538 41.521 23.8813C41.2483 24.6711 40.8164 25.3891 40.2481 25.9874C39.6572 26.6097 38.9525 27.1122 38.1797 27.4473C37.2477 27.8542 36.2931 28.0217 35.3157 27.9978ZM33.1563 21.3683C33.1563 22.2299 33.3609 22.9 33.7473 23.3787C34.5201 24.2881 35.8157 24.3599 36.6795 23.5462C36.7249 23.4984 36.7931 23.4266 36.8386 23.3787C37.2477 22.9 37.4296 22.2299 37.4296 21.3683C37.4296 20.5067 37.225 19.8366 36.8386 19.3579C36.0658 18.4485 34.7701 18.3767 33.9064 19.1904C33.8609 19.2383 33.7927 19.3101 33.7473 19.3579C33.3609 19.8605 33.1563 20.5307 33.1563 21.3683Z" fill="url(#paint2_linear_571_8140)"/>
<path d="M50 27.9978C48.9528 28.0217 47.9056 27.8301 46.9314 27.4467C46.1034 27.1113 45.3484 26.6082 44.7152 25.9853C44.1064 25.3863 43.6437 24.6676 43.3514 23.8769C42.7426 22.2478 42.7426 20.4749 43.3514 18.8457C43.6437 18.0551 44.1064 17.3363 44.7152 16.7374C45.3484 16.1144 46.1034 15.6113 46.9314 15.2759C48.9041 14.5572 51.096 14.5572 53.0686 15.2759C53.8967 15.6113 54.6516 16.1144 55.2848 16.7374C55.8937 17.3363 56.3564 18.0551 56.6487 18.8457C57.2575 20.4749 57.2575 22.2478 56.6487 23.8769C56.3564 24.6676 55.8937 25.3863 55.2848 25.9853C54.6516 26.6082 53.8967 27.1113 53.0686 27.4467C52.0945 27.854 51.0473 28.0217 50 27.9978ZM47.7108 21.3613C47.7108 22.2238 47.93 22.8947 48.344 23.3738C49.172 24.2842 50.5602 24.3561 51.4856 23.5415C51.5343 23.4936 51.6074 23.4217 51.6561 23.3738C52.0945 22.8947 52.2893 22.2238 52.2893 21.3613C52.2893 20.4988 52.0701 19.828 51.6561 19.3488C50.8281 18.4384 49.4399 18.3665 48.5144 19.1811C48.4657 19.229 48.3927 19.3009 48.344 19.3488C47.93 19.828 47.7108 20.4988 47.7108 21.3613Z" fill="url(#paint3_linear_571_8140)"/>
<path d="M79.8421 28H75.1756V20.687C75.1756 20.0532 75.0547 19.5901 74.7887 19.2976C74.5711 19.0294 74.2326 18.8588 73.8699 18.8588C73.4347 18.8832 72.9995 19.0782 72.6852 19.3707C72.2741 19.712 71.9356 20.1751 71.7664 20.7114V28H67.0999V20.687C67.0999 20.0532 66.979 19.5901 66.713 19.2976C66.4954 19.0294 66.1569 18.8588 65.7942 18.8588C65.3348 18.8832 64.9238 19.0782 64.5853 19.3707C64.1743 19.712 63.8358 20.1751 63.6665 20.7114V28H59V15.0073H63.1829V16.933C63.6423 16.2261 64.2951 15.6654 65.0689 15.3242C65.9635 14.9342 66.9306 14.7391 67.922 14.7635C68.3814 14.7635 68.8408 14.8123 69.3002 14.9585C69.6628 15.056 70.0013 15.2267 70.3157 15.4461C70.5816 15.6411 70.8234 15.8848 70.9927 16.153C71.1619 16.4211 71.307 16.6893 71.4037 16.9818C71.8631 16.2749 72.5159 15.6898 73.2897 15.3242C74.1359 14.9098 75.0547 14.7148 75.9977 14.7391C76.6989 14.7148 77.4 14.8854 78.0287 15.2267C78.5123 15.5192 78.8991 15.9336 79.1651 16.4211C79.4311 16.9087 79.6003 17.4206 79.6728 17.9568C79.7454 18.4444 79.7937 18.9319 79.7937 19.4438L79.8421 28Z" fill="url(#paint4_linear_571_8140)"/>
<path d="M85.3622 28C84.7476 28 84.133 27.9042 83.5429 27.6888C83.002 27.4973 82.5103 27.21 82.0924 26.827C81.6744 26.4679 81.3548 26.013 81.1335 25.5342C80.8876 25.0315 80.7893 24.457 80.7893 23.9064C80.7893 23.2839 80.9368 22.6855 81.2073 22.1349C81.5023 21.6082 81.8957 21.1294 82.3874 20.7464C82.9283 20.3394 83.5183 20.0282 84.1821 19.8367C84.9197 19.6212 85.6819 19.5015 86.4686 19.5255C87.3783 19.5015 88.2879 19.6691 89.1238 20.0043V19.6212C89.1238 19.0227 88.9518 18.5679 88.583 18.2806C88.2142 17.9934 87.6487 17.8497 86.8374 17.8497C86.1244 17.8497 85.436 17.9694 84.7722 18.2088C84.0592 18.4721 83.3954 18.8312 82.7807 19.2382L81.4039 16.3655C83.1741 15.2643 85.2147 14.7137 87.3045 14.7376C89.3943 14.7376 91.017 15.1924 92.1479 16.1021C93.2788 17.0118 93.8443 18.3764 93.8443 20.1718V22.6376C93.8443 23.0685 93.9181 23.3797 94.0902 23.5473C94.336 23.7388 94.6556 23.8585 94.9998 23.8585V27.7367C94.5573 27.8085 94.1639 27.8803 93.7705 27.9282C93.4263 27.9761 93.0821 27.9761 92.7379 28C91.902 28 91.2382 27.8564 90.7957 27.5452C90.3531 27.2339 90.0335 26.7552 89.9352 26.2046L89.8368 25.7497C89.296 26.4439 88.6076 27.0185 87.8208 27.4015C87.0341 27.8085 86.1982 28 85.3622 28ZM86.7882 24.6964C87.0832 24.6964 87.3783 24.6485 87.6487 24.5527C87.9192 24.4809 88.1896 24.3612 88.4355 24.1936C88.6076 24.074 88.7551 23.9303 88.878 23.7627C89.0009 23.6191 89.0501 23.4515 89.0501 23.284V22.3264C88.7551 22.2306 88.4355 22.1349 88.1158 22.087C87.8208 22.0152 87.5258 21.9912 87.2062 21.9912C86.6899 21.9673 86.1736 22.1109 85.7556 22.3982C85.3868 22.6376 85.1901 23.0206 85.1901 23.4515C85.1901 23.7867 85.3377 24.1218 85.6081 24.3373C85.9769 24.6006 86.3703 24.7203 86.7882 24.6964Z" fill="url(#paint5_linear_571_8140)"/>
<defs>
<linearGradient id="paint0_linear_571_8140" x1="-12.5729" y1="21.8469" x2="98.193" y2="19.8051" gradientUnits="userSpaceOnUse">
<stop stop-color="#36BEB9"/>
<stop offset="1" stop-color="#7492CB"/>
</linearGradient>
<linearGradient id="paint1_linear_571_8140" x1="-11.8042" y1="19.6234" x2="94.7548" y2="17.7388" gradientUnits="userSpaceOnUse">
<stop stop-color="#36BEB9"/>
<stop offset="1" stop-color="#7492CB"/>
</linearGradient>
<linearGradient id="paint2_linear_571_8140" x1="-9.73121" y1="22.2335" x2="92.8579" y2="20.4818" gradientUnits="userSpaceOnUse">
<stop stop-color="#36BEB9"/>
<stop offset="1" stop-color="#7492CB"/>
</linearGradient>
<linearGradient id="paint3_linear_571_8140" x1="-13.4076" y1="22.4999" x2="96.5047" y2="20.4914" gradientUnits="userSpaceOnUse">
<stop stop-color="#36BEB9"/>
<stop offset="1" stop-color="#7492CB"/>
</linearGradient>
<linearGradient id="paint4_linear_571_8140" x1="-12.6245" y1="22.9457" x2="96.499" y2="20.9999" gradientUnits="userSpaceOnUse">
<stop stop-color="#36BEB9"/>
<stop offset="1" stop-color="#7492CB"/>
</linearGradient>
<linearGradient id="paint5_linear_571_8140" x1="-14.7994" y1="23.2129" x2="96.158" y2="21.1644" gradientUnits="userSpaceOnUse">
<stop stop-color="#36BEB9"/>
<stop offset="1" stop-color="#7492CB"/>
</linearGradient>
</defs>
</svg>
