<svg width="40" height="41" viewBox="0 0 40 41" fill="none" xmlns="http://www.w3.org/2000/svg">
<path fill-rule="evenodd" clip-rule="evenodd" d="M11.9234 18.1527L7.30432 10.0591L4 18.2466L8.69364 18.2654L11.9234 18.1527Z" fill="#6B3A19"/>
<path fill-rule="evenodd" clip-rule="evenodd" d="M11.6028 18.1457L7.40918 17.7882V9.86365L11.9585 11.1073V18.18L11.6028 18.1457Z" fill="#F58536"/>
<path fill-rule="evenodd" clip-rule="evenodd" d="M4 18.2727L7.40909 17.7807V9.86365L4 11.5564V18.2727Z" fill="#9D5025"/>
<path fill-rule="evenodd" clip-rule="evenodd" d="M25.1046 16.8859L20.6064 17.2659L15.6255 16.9143L20.6064 4.15909L25.1046 16.8859Z" fill="#6B3A19"/>
<path fill-rule="evenodd" clip-rule="evenodd" d="M25.1363 16.9091L20.5908 16.38V1L25.1363 3.44705V16.9091Z" fill="#F58536"/>
<path fill-rule="evenodd" clip-rule="evenodd" d="M15.5908 16.9091L20.5908 16.3836V1L15.5908 3.46705V16.9091Z" fill="#9D5025"/>
<path fill-rule="evenodd" clip-rule="evenodd" d="M36.7231 17.9939L33.4318 12.7614L29.0056 18.0025L32.2531 18.1518L36.7231 17.9939Z" fill="#6B3A19"/>
<path fill-rule="evenodd" clip-rule="evenodd" d="M36.429 17.9461L33.5312 17.5418V12.5909L36.7274 13.6395V17.9907L36.429 17.9461Z" fill="#F58536"/>
<path fill-rule="evenodd" clip-rule="evenodd" d="M29 17.9886L33.5455 17.5534L33.545 12.5909L29 13.3952V17.9886Z" fill="#9D5025"/>
<path fill-rule="evenodd" clip-rule="evenodd" d="M25.3986 33.1005L20.7305 31.6468L15.8718 33.1005L20.7336 37.2048L25.3986 33.1005Z" fill="#FCBF92"/>
<path fill-rule="evenodd" clip-rule="evenodd" d="M15.8181 33.0455L20.5908 34.6871V40.5455L15.8181 38.0616V33.0455Z" fill="#9D5025"/>
<path fill-rule="evenodd" clip-rule="evenodd" d="M25.3635 33.0455L20.5908 34.6871V40.5455L25.3635 38.0616V33.0455Z" fill="#F58534"/>
<path fill-rule="evenodd" clip-rule="evenodd" d="M36.7272 21L20.5972 21.0059L20.5908 30.5455L36.7272 26.3693" fill="#F58534"/>
<path fill-rule="evenodd" clip-rule="evenodd" d="M4.22729 21L20.5909 21.0059L20.5839 30.5455L4.22729 26.3702V21Z" fill="#9D5025"/>
</svg>
