<svg width="40" height="40" viewBox="0 0 40 40" fill="none" xmlns="http://www.w3.org/2000/svg">
<g clip-path="url(#clip0_556_1837)">
<path d="M29.2084 25.8282C28.8789 25.8285 28.5567 25.731 28.2826 25.5481C28.0085 25.3652 27.7948 25.1051 27.6686 24.8008C27.5423 24.4964 27.5091 24.1615 27.5733 23.8383C27.6374 23.5151 27.7959 23.2182 28.0288 22.9851C28.2617 22.752 28.5585 22.5932 28.8817 22.5289C29.2049 22.4645 29.5398 22.4974 29.8443 22.6234C30.1487 22.7495 30.409 22.963 30.592 23.2369C30.7751 23.5109 30.8729 23.833 30.8729 24.1625C30.8729 24.604 30.6975 25.0275 30.3854 25.3399C30.0733 25.6522 29.6499 25.8279 29.2084 25.8282ZM10.8041 25.8282C10.4746 25.8285 10.1524 25.731 9.87835 25.5481C9.60426 25.3652 9.39057 25.1051 9.2643 24.8008C9.13804 24.4964 9.10487 24.1615 9.169 23.8383C9.23313 23.5151 9.39168 23.2182 9.62458 22.9851C9.85749 22.752 10.1543 22.5932 10.4774 22.5289C10.8006 22.4645 11.1356 22.4974 11.44 22.6234C11.7445 22.7495 12.0047 22.963 12.1878 23.2369C12.3709 23.5109 12.4686 23.833 12.4686 24.1625C12.4686 24.604 12.2933 25.0275 11.9812 25.3399C11.6691 25.6522 11.2457 25.8279 10.8041 25.8282ZM29.8057 15.7976L33.1334 10.0344C33.2252 9.87532 33.25 9.68628 33.2025 9.50888C33.1549 9.33147 33.0388 9.18024 32.8797 9.08844C32.7207 8.99663 32.5316 8.97179 32.3542 9.01936C32.1768 9.06694 32.0256 9.18303 31.9338 9.34211L28.5598 15.179C25.8677 13.9717 22.9505 13.3475 20 13.3475C17.0495 13.3475 14.1324 13.9717 11.4402 15.179L8.06623 9.34211C7.97443 9.18303 7.82319 9.06694 7.64579 9.01936C7.46839 8.97179 7.27936 8.99663 7.12028 9.08844C6.9612 9.18024 6.8451 9.33147 6.79753 9.50888C6.74995 9.68628 6.77481 9.87532 6.86661 10.0344L10.1943 15.7976C7.3196 17.3626 4.88137 19.621 3.10108 22.3676C1.32078 25.1142 0.254815 28.262 0 31.5252H39.9875C39.7326 28.262 38.6666 25.1142 36.8863 22.3677C35.106 19.6211 32.6678 17.3627 29.7932 15.7976" fill="#3DDB85"/>
</g>
<defs>
<clipPath id="clip0_556_1837">
<rect width="40" height="39.9875" fill="white"/>
</clipPath>
</defs>
</svg>
