<svg width="54" height="40" viewBox="0 0 54 40" fill="none" xmlns="http://www.w3.org/2000/svg">
<path fill-rule="evenodd" clip-rule="evenodd" d="M49.3289 19.9573C49.2819 19.8599 49.2626 19.8099 49.2377 19.7626C48.5748 18.4946 47.9146 17.2294 47.2461 15.9641C47.1798 15.8362 47.1881 15.7611 47.2793 15.6527C48.3317 14.4153 49.3786 13.1723 50.4283 11.9293C50.4642 11.8848 50.4973 11.8403 50.5111 11.7625L49.5913 12.0044C48.3179 12.3436 47.0472 12.6829 45.7766 13.0249C45.6578 13.0555 45.6053 13.0221 45.5445 12.922C44.8208 11.7069 44.0971 10.4945 43.3706 9.28207C43.332 9.21812 43.2933 9.15694 43.2132 9.10411C43.1552 9.42667 43.0944 9.75202 43.0392 10.0746L42.4342 13.5032C42.4121 13.6256 42.3817 13.7507 42.3707 13.873C42.3596 13.9898 42.3016 14.0343 42.1939 14.0677C40.694 14.5404 39.1968 15.0187 37.6996 15.497C37.6334 15.5192 37.5698 15.5443 37.498 15.6082C38.7245 16.0976 39.9481 16.5898 41.1939 17.0876C41.1497 17.1237 41.1194 17.1515 41.0862 17.1738C40.3211 17.6715 39.5531 18.1693 38.788 18.6726C38.6968 18.7337 38.625 18.7421 38.52 18.6948C37.6057 18.2805 36.6859 17.8745 35.7688 17.4602C35.3572 17.2766 34.9871 17.0292 34.6998 16.676C34.0479 15.8724 34.1777 14.9603 35.0451 14.4042C35.3296 14.2206 35.6528 14.0844 35.9732 13.9787C37.4428 13.4976 38.9151 13.0333 40.3874 12.5661C40.5117 12.5272 40.5669 12.4716 40.5918 12.3381C40.7879 11.1952 40.9923 10.0523 41.1967 8.90946C41.3072 8.2977 41.3652 7.67204 41.6608 7.11311C41.774 6.899 41.9094 6.68766 42.0723 6.50692C42.658 5.85345 43.4728 5.82842 44.0916 6.4513C44.3015 6.66264 44.4811 6.91012 44.6358 7.16317C45.318 8.28101 45.9865 9.40721 46.655 10.5334C46.7323 10.6669 46.8041 10.6947 46.9505 10.653C48.5941 10.2108 50.2377 9.77426 51.8812 9.33491C52.221 9.24592 52.5635 9.21256 52.9116 9.27651C53.6684 9.41833 53.9999 9.9995 53.7458 10.7364C53.6298 11.0729 53.4281 11.3565 53.2016 11.6234C52.0553 12.9832 50.9089 14.343 49.757 15.6972C49.6631 15.8084 49.6603 15.8891 49.7266 16.0114C50.4145 17.3156 51.094 18.6197 51.7763 19.9267C51.9392 20.2381 52.0635 20.5635 52.0691 20.9222C52.0774 21.7369 51.4835 22.4043 50.6796 22.5239C50.2294 22.5906 49.8095 22.4933 49.3869 22.3626C48.3566 22.0428 47.3262 21.7258 46.2931 21.4144C46.1964 21.3865 46.1605 21.3476 46.144 21.2447C46.0252 20.5134 45.8954 19.7848 45.7711 19.0535C45.7683 19.0341 45.7738 19.0118 45.7766 18.9673C46.9505 19.2954 48.1162 19.618 49.3289 19.9573Z" fill="#E25C26"/>
<path fill-rule="evenodd" clip-rule="evenodd" d="M47.3208 30.6074C46.3927 30.6046 45.4618 30.6018 44.5336 30.6046C44.4121 30.6046 44.343 30.5684 44.274 30.4628C43.1746 28.7777 42.0697 27.0925 40.9648 25.4102C40.9289 25.3574 40.8929 25.3045 40.8294 25.2156C40.5919 27.0341 40.3598 28.811 40.1278 30.5935H37.6942C37.7218 30.3543 37.7467 30.1235 37.7771 29.8955C38.0146 28.0686 38.2522 26.2444 38.4925 24.4175C38.719 22.674 38.9483 20.9277 39.1776 19.1842C39.1831 19.1313 39.219 19.0674 39.2604 19.0396C40.0974 18.489 40.9371 17.9468 41.7769 17.399C41.7879 17.3906 41.8073 17.3906 41.8487 17.3767C41.5946 19.326 41.3432 21.2614 41.0891 23.1968C41.1001 23.2023 41.1084 23.2107 41.1195 23.219C42.4371 21.748 43.7547 20.277 45.1027 18.7754L45.2076 19.3872C45.3016 19.9405 45.3927 20.4967 45.4949 21.05C45.5143 21.1613 45.4866 21.2308 45.412 21.3086C44.5613 22.2068 43.7105 23.1078 42.8625 24.0059C42.8266 24.0449 42.7906 24.0866 42.7464 24.1311C42.7741 24.1756 42.7962 24.2173 42.8238 24.2562L47.2213 30.4683C47.249 30.5045 47.2849 30.5351 47.318 30.5684C47.3208 30.5851 47.3208 30.5962 47.3208 30.6074ZM18.4853 25.2239C18.4494 25.032 18.4217 24.754 18.3389 24.4926C17.9301 23.2273 16.6428 22.5322 15.3059 22.8464C13.8419 23.1884 12.795 24.348 12.643 25.8523C12.5298 26.9646 13.1264 28.038 14.2341 28.4384C15.1263 28.7638 15.9826 28.6275 16.7809 28.1464C17.8361 27.5097 18.4107 26.5614 18.4853 25.2239ZM12.0547 29.9289C11.9829 30.4739 11.9138 30.9855 11.8475 31.5C11.7591 32.1813 11.6707 32.8653 11.5851 33.5466C11.574 33.6272 11.5519 33.6606 11.4663 33.6606C10.7978 33.6578 10.1294 33.6578 9.46088 33.6578C9.44707 33.6578 9.4305 33.6495 9.39459 33.6384C9.43602 33.3158 9.4747 32.9932 9.51613 32.6707C9.66253 31.5389 9.8117 30.4072 9.96086 29.2754C10.1321 27.9824 10.2675 26.681 10.4857 25.3963C10.8724 23.1189 12.7922 21.1585 15.0435 20.6691C16.3473 20.3854 17.5986 20.5161 18.7366 21.2558C19.8719 21.9927 20.5238 23.0633 20.673 24.4091C20.8829 26.3112 20.1868 27.8906 18.8444 29.1975C17.9632 30.0568 16.908 30.6018 15.6898 30.7853C14.4358 30.9744 13.2563 30.7659 12.2011 30.0206C12.1624 29.9928 12.121 29.9706 12.0547 29.9289ZM10.9663 19.1091C10.2178 19.6708 9.49403 20.213 8.77031 20.7553C8.6543 20.569 8.54933 20.3854 8.42503 20.213C8.11013 19.7709 7.71788 19.44 7.15161 19.3983C6.67926 19.3649 6.27321 19.5206 5.95278 19.8738C5.6655 20.188 5.62683 20.6329 5.89477 20.9889C6.19034 21.3782 6.51629 21.748 6.845 22.1095C7.39469 22.7073 7.96649 23.283 8.51342 23.8864C9.01063 24.4342 9.40564 25.0487 9.52718 25.7967C9.67358 26.6866 9.49679 27.5347 9.07693 28.3188C8.30349 29.7676 7.08256 30.6074 5.47491 30.8688C4.765 30.9856 4.05509 30.9605 3.36176 30.7575C2.44191 30.485 1.80106 29.876 1.38948 29.0196C1.24308 28.7165 1.13259 28.3967 1 28.0714C1.80659 27.6376 2.58832 27.2149 3.38385 26.7867C3.41148 26.8534 3.43081 26.909 3.45567 26.9618C3.59103 27.2344 3.70152 27.5236 3.87002 27.7766C4.36723 28.5218 5.17105 28.7471 5.98593 28.38C6.19586 28.2855 6.39751 28.152 6.56877 27.9991C7.0936 27.5291 7.19305 26.8756 6.80356 26.2861C6.57982 25.9469 6.30083 25.6438 6.02736 25.3379C5.37823 24.6121 4.70146 23.9086 4.06614 23.1689C3.6297 22.6573 3.33137 22.0622 3.23745 21.3782C3.13525 20.6329 3.28165 19.9294 3.66837 19.301C4.62688 17.741 6.01908 16.929 7.86152 16.9958C8.91119 17.0347 9.74816 17.5296 10.3973 18.35C10.5907 18.5919 10.7702 18.8449 10.9663 19.1091ZM28.761 27.4874C28.6394 28.4273 28.5234 29.3199 28.4046 30.2125C28.3991 30.257 28.3632 30.3182 28.3245 30.3376C26.5125 31.183 24.1231 31.0662 22.6342 29.3616C21.8332 28.4468 21.4989 27.3623 21.5487 26.1554C21.6647 23.3608 23.9657 20.9193 26.7197 20.5801C28.3273 20.3799 29.7388 20.8192 30.8299 22.0761C31.573 22.9326 31.9155 23.9559 31.8658 25.0849C31.8326 25.8301 31.7166 26.5725 31.6227 27.315C31.4929 28.3661 31.3492 29.4172 31.2111 30.4683C31.2056 30.5045 31.2001 30.5434 31.189 30.5907H29.0206C29.0483 30.3488 29.0759 30.1124 29.1063 29.876C29.2637 28.6609 29.435 27.4513 29.5731 26.2333C29.6587 25.4769 29.6062 24.7234 29.261 24.0226C28.8963 23.2774 28.2803 22.8825 27.4738 22.7963C25.8026 22.6184 24.2143 23.7863 23.8579 25.4408C23.6231 26.5336 23.9933 27.5792 24.8579 28.1603C25.7004 28.7248 26.6036 28.7248 27.5207 28.3606C27.9875 28.177 28.3826 27.8823 28.761 27.4874ZM37.8931 20.7914C37.7937 21.5478 37.697 22.293 37.5975 23.0549C37.139 23.0549 36.6887 23.0522 36.2385 23.0549C35.8739 23.0577 35.5424 23.2941 35.4319 23.6361C35.3877 23.7696 35.3739 23.9142 35.3546 24.0532C35.1253 25.7912 34.8988 27.5291 34.6723 29.2698C34.6143 29.7092 34.559 30.1458 34.501 30.5907H32.2442C32.2857 30.257 32.3271 29.9317 32.3685 29.6091C32.5149 28.4829 32.6613 27.3567 32.8105 26.2305C32.9403 25.2573 33.0536 24.2785 33.2055 23.308C33.4071 22.0066 34.6944 20.8498 36.0009 20.7942C36.6252 20.7692 37.2495 20.7914 37.8931 20.7914Z" fill="#3D3B3E"/>
<path d="M49.9836 30.5935V29.6341H49.9781L49.6052 30.5935H49.4864L49.1135 29.6341H49.108V30.5935H48.9201V29.445H49.2102L49.5499 30.3182L49.8842 29.445H50.1714V30.5935H49.9836ZM48.3262 29.598V30.5935H48.1384V29.598H47.7821V29.445H48.6853V29.598H48.3262ZM13.991 17.4963H14.5517L14.4192 16.6426L13.991 17.4963ZM14.6374 18.0469H13.7065L13.4109 18.6308H12.7507L14.2065 15.8946H14.8418L15.3362 18.6308H14.7258L14.6374 18.0469ZM17.9715 16.4452H17.64L17.5295 17.0764H17.861C18.0598 17.0764 18.2201 16.9429 18.2201 16.6954C18.2201 16.5286 18.1179 16.4452 17.9715 16.4452ZM17.1676 15.8946H18.0377C18.4935 15.8946 18.814 16.1671 18.814 16.6398C18.814 17.2321 18.3996 17.6298 17.8057 17.6298H17.43L17.2533 18.6308H16.687L17.1676 15.8946ZM20.742 17.4963H21.3028L21.1702 16.6426L20.742 17.4963ZM21.3912 18.0469H20.4603L20.1647 18.6308H19.5045L20.9602 15.8946H21.5956L22.09 18.6308H21.4796L21.3912 18.0469ZM25.0705 18.5335C24.8799 18.6225 24.6672 18.6753 24.4545 18.6753C23.7363 18.6753 23.2833 18.1331 23.2833 17.4518C23.2833 16.5814 24.0098 15.8501 24.8744 15.8501C25.0899 15.8501 25.286 15.9029 25.4462 15.9919L25.3661 16.6482C25.2473 16.5147 25.054 16.4229 24.8136 16.4229C24.3192 16.4229 23.8772 16.8734 23.8772 17.3962C23.8772 17.7938 24.1258 18.1053 24.5181 18.1053C24.7584 18.1053 24.9904 18.0135 25.1451 17.8828L25.0705 18.5335ZM28.54 17.5269H27.3577L27.1643 18.628H26.5981L27.0787 15.8918H27.645L27.4544 16.9735H28.6366L28.8272 15.8918H29.3963L28.9156 18.628H28.3494L28.54 17.5269ZM30.6227 18.6308L31.1006 15.8946H32.6088L32.5121 16.4452H31.573L31.4763 16.9763H32.3381L32.2414 17.5269H31.3768L31.2802 18.0775H32.2193L32.1227 18.628L30.6227 18.6308Z" fill="#3D3B3E"/>
</svg>
