<svg width="40" height="40" viewBox="0 0 40 40" fill="none" xmlns="http://www.w3.org/2000/svg">
<g clip-path="url(#clip0_569_4772)">
<mask id="mask0_569_4772" style="mask-type:luminance" maskUnits="userSpaceOnUse" x="0" y="4" width="40" height="33">
<path d="M40 4H0V36.6711H40V4Z" fill="white"/>
</mask>
<g mask="url(#mask0_569_4772)">
<path fill-rule="evenodd" clip-rule="evenodd" d="M33.4658 6.29581L34.3488 7.44371C34.6137 7.70861 34.5254 8.15011 34.2605 8.41501L33.3775 9.12141C33.5541 9.56291 33.6424 10.0044 33.7307 10.4459L34.7903 10.6225C35.1435 10.7108 35.4084 10.9757 35.3201 11.4172L35.1435 12.83C35.0552 13.1832 34.7903 13.4481 34.3488 13.3598L33.2009 13.1832C33.0243 13.6247 32.7594 13.9779 32.4062 14.3311L33.0243 15.1258C33.2892 15.3907 33.2009 15.8322 32.936 16.0971L31.7881 16.9801C31.5232 17.245 31.0817 17.1567 30.8168 16.8918L30.1104 16.0088C29.6689 16.1854 29.2274 16.2737 28.6976 16.362L28.521 17.4216C28.4327 17.7748 28.1678 18.0397 27.7263 17.9514L26.4901 17.5982C26.1369 17.5099 25.872 17.245 25.9603 16.8035L26.1369 15.6556C25.6954 15.479 25.3422 15.2141 24.989 14.9492L24.1943 15.5673C23.9294 15.8322 23.4879 15.7439 23.223 15.479L22.34 14.3311C22.0751 14.0662 22.1634 13.6247 22.4283 13.3598L23.3113 12.6534C23.1347 12.2119 23.0464 11.7704 22.9581 11.3289L21.8985 11.1523C21.5453 11.064 21.2804 10.7991 21.3687 10.3576L21.5453 8.94481C21.6336 8.59161 21.8985 8.32671 22.34 8.41501L23.4879 8.59161C23.6645 8.15011 23.9294 7.79691 24.1943 7.44371L23.5762 6.64901C23.3113 6.38411 23.3996 5.9426 23.6645 5.6777L24.8124 4.7947C25.0773 4.5298 25.5188 4.6181 25.7837 4.883L26.4901 5.766C26.9316 5.5894 27.3731 5.5011 27.8146 5.4128L27.9912 4.3532C27.9912 4.1766 28.3444 4 28.6976 4L30.1104 4.1766C30.4636 4.2649 30.7285 4.5298 30.6402 4.9713L30.4636 6.11921C30.9051 6.29581 31.2583 6.56071 31.6115 6.91391L32.4062 6.29581C32.8477 5.9426 33.2009 6.03091 33.4658 6.29581ZM9.62472 25.8102V20.4238H12.362C12.8918 20.4238 13.245 20.4238 13.5099 20.6004C13.7748 20.6887 14.0397 20.8653 14.128 21.1302C14.3046 21.3951 14.3929 21.66 14.3929 22.0132C14.3929 22.2781 14.3046 22.543 14.2163 22.8079C14.128 22.9845 13.9514 23.1611 13.6865 23.3377C13.5099 23.426 13.3333 23.5143 13.0684 23.5143C13.245 23.6026 13.4216 23.6026 13.5099 23.6909C13.5982 23.7792 13.6865 23.8676 13.7748 23.9559C13.8631 24.1325 13.9514 24.2208 14.0397 24.3091L14.8344 25.8985H12.9801L12.0971 24.2208C12.0088 24.0442 11.9205 23.8675 11.8322 23.7792C11.7439 23.6909 11.5673 23.6909 11.3907 23.6909H11.2141V25.8985L9.62472 25.8102ZM15.5408 35.17H12.4503L11.9205 36.6711H9.09492L12.4503 27.8411H15.4525L18.8079 36.6711H15.9823L15.5408 35.17ZM14.9227 33.3157L13.9514 30.1369L12.9801 33.3157H14.9227ZM19.426 27.8411H24.0177C24.989 27.8411 25.7837 28.106 26.2252 28.5475C26.755 28.989 26.9316 29.6954 26.9316 30.5784C26.9316 31.4614 26.6667 32.1678 26.1369 32.6976C25.6071 33.2274 24.8124 33.4923 23.6645 33.4923H22.1634V36.6711H19.426V27.8411ZM22.1634 31.5497H22.8698C23.3996 31.5497 23.7528 31.4614 24.0177 31.2848C24.1943 31.1082 24.3709 30.8433 24.3709 30.5784C24.3709 30.3135 24.2826 30.0486 24.106 29.872C23.8411 29.6954 23.4879 29.6071 22.9581 29.6071H22.1634V31.5497ZM28.0795 27.8411H30.8168V36.6711H28.0795V27.8411ZM11.3024 22.6313H12.0088C12.0971 22.6313 12.2737 22.6313 12.4503 22.543C12.5386 22.543 12.6269 22.4547 12.7152 22.3664C12.8035 22.2781 12.8035 22.1898 12.8035 22.0132C12.8035 21.8366 12.7152 21.66 12.6269 21.5717C12.5386 21.4834 12.2737 21.3951 12.0088 21.3951H11.3024V22.6313ZM15.2759 20.5121H19.6909V21.66H16.9536V22.543H19.5143V23.6026H16.9536V24.6623H19.7792V25.8985H15.2759V20.5121ZM20.1324 24.0442L21.7219 23.9559C21.7219 24.2208 21.8102 24.3974 21.8985 24.574C22.0751 24.7506 22.34 24.9272 22.6049 24.9272C22.8698 24.9272 23.0464 24.8389 23.1347 24.7506C23.223 24.6623 23.3113 24.4857 23.3113 24.3974C23.3113 24.2208 23.223 24.1325 23.1347 24.0442C23.0464 23.9559 22.6932 23.8675 22.2517 23.6909C21.5453 23.5143 21.0155 23.3377 20.6623 23.0728C20.3091 22.8079 20.2208 22.4547 20.2208 22.0132C20.2208 21.7483 20.3091 21.4834 20.4857 21.2185C20.6623 20.9536 20.9272 20.777 21.1921 20.6004C21.5453 20.4238 21.9868 20.4238 22.5166 20.4238C23.223 20.4238 23.7528 20.5121 24.106 20.777C24.4592 21.0419 24.6358 21.3951 24.7241 22.0132L23.1347 22.1015C23.1347 21.8366 23.0464 21.66 22.8698 21.5717C22.6932 21.4834 22.5166 21.3951 22.34 21.3951C22.1634 21.3951 21.9868 21.3951 21.8985 21.4834C21.8102 21.5717 21.7219 21.66 21.7219 21.7483C21.7219 21.8366 21.7219 21.9249 21.8102 22.0132C21.8985 22.1015 22.0751 22.1898 22.34 22.1898C23.0464 22.3664 23.5762 22.543 23.9294 22.6313C24.2826 22.8079 24.4592 22.9845 24.6358 23.2494C24.8124 23.5143 24.8124 23.7793 24.8124 24.0442C24.8124 24.3974 24.7241 24.6623 24.5475 25.0155C24.3709 25.2804 24.106 25.5453 23.7528 25.6336C23.3996 25.8102 22.9581 25.8985 22.4283 25.8985C21.5453 25.8985 20.8389 25.7219 20.574 25.3687C20.3974 25.0155 20.2208 24.574 20.1324 24.0442ZM25.2539 20.5121H30.287V21.8366H28.6093V25.8985H26.9316V21.8366H25.2539V20.5121ZM19.6909 7.70861C19.0728 7.62031 18.4547 7.70861 17.9249 7.70861C16.0706 7.88521 14.3046 8.59161 12.8035 9.65121C11.1258 10.9757 9.80132 12.9183 9.27152 15.5673L9.09492 16.362L8.30022 16.5386C7.50552 16.7152 6.79912 16.8918 6.18102 17.1567C5.56291 17.4216 5.03311 17.6865 4.59161 18.0397C4.23841 18.3046 3.88521 18.6578 3.62031 18.9227C2.73731 19.9823 2.38411 21.2185 2.38411 22.543C2.38411 23.8675 2.82561 25.1921 3.62031 26.2517C3.88521 26.6932 4.23841 27.0464 4.67991 27.3996C5.03311 27.7528 5.56291 28.0177 6.00442 28.1943C6.26932 28.2826 6.62252 28.3709 6.88742 28.4592V30.9316C6.26932 30.8433 5.65121 30.6667 5.12141 30.4018C4.41501 30.1369 3.70861 29.6954 3.17881 29.2539C2.64901 28.8124 2.11921 28.2826 1.766 27.7528C0.618102 26.2517 0 24.3974 0 22.543C0 20.6887 0.529801 18.8344 1.766 17.4216C2.20751 16.9801 2.64901 16.5386 3.17881 16.0971C3.79691 15.6556 4.50331 15.2141 5.29801 14.9492C5.82781 14.7726 6.44592 14.5077 7.06402 14.4194C7.77042 11.5938 9.27152 9.38631 11.3024 7.88521C13.245 6.38411 15.4525 5.5894 17.66 5.4128C18.8962 5.3245 20.0442 5.3245 21.2804 5.5894C21.2804 5.6777 21.1921 5.766 21.1921 5.8543C21.1921 6.03091 21.1921 6.20751 21.1921 6.38411C20.9272 6.47241 20.7506 6.64901 20.4857 6.73731C20.1325 7.09051 19.8675 7.35541 19.6909 7.70861ZM36.9095 13.9779C37.0861 14.1545 37.2627 14.3311 37.4393 14.5077C37.7925 14.8609 38.1457 15.3024 38.4106 15.7439C39.4702 17.3333 40 19.4525 40 21.5717C40 23.6026 39.3819 25.6336 38.3223 27.1347C37.6159 28.106 36.6446 28.9007 35.4967 29.5188C34.702 29.9603 33.819 30.3135 32.8477 30.5784V28.0177C33.3775 27.8411 33.819 27.5762 34.2605 27.3996C35.1435 26.9581 35.8499 26.34 36.3797 25.6336C37.1744 24.574 37.6159 22.9845 37.6159 21.4834C37.6159 19.8057 37.2627 18.2163 36.468 16.9801C36.2031 16.6269 36.0265 16.362 35.7616 16.0088C35.6733 15.9205 35.585 15.8322 35.4967 15.7439C35.4967 15.5673 35.4967 15.3907 35.4967 15.2141C35.7616 15.1258 35.9382 14.9492 36.2031 14.8609C36.468 14.6843 36.7329 14.3311 36.9095 13.9779ZM28.6976 8.15011C30.1987 8.32671 31.2583 9.73951 31.0817 11.2406C30.9051 12.7417 29.4923 13.8013 27.9912 13.6247C26.4901 13.4481 25.4305 12.0353 25.6071 10.5342C25.7837 9.03311 27.1965 7.97351 28.6976 8.15011Z" fill="black"/>
</g>
</g>
<defs>
<clipPath id="clip0_569_4772">
<rect width="40" height="32.6711" fill="white" transform="translate(0 4)"/>
</clipPath>
</defs>
</svg>
