<svg width="40" height="40" viewBox="0 0 40 40" fill="none" xmlns="http://www.w3.org/2000/svg">
<g clip-path="url(#clip0_556_1988)">
<path d="M11.2799 17.4375C11.2692 17.8384 11.3185 18.2386 11.4261 18.625C11.5445 18.9542 11.687 19.2742 11.8524 19.5825C11.9118 19.6737 11.9443 19.7799 11.9462 19.8887C11.9383 19.97 11.9116 20.0484 11.8682 20.1176C11.8248 20.1868 11.7659 20.245 11.6961 20.2875L10.8586 20.8462C10.758 20.921 10.6376 20.9645 10.5124 20.9712C10.361 20.9607 10.2189 20.8943 10.1137 20.785C9.93446 20.5924 9.77415 20.3831 9.6349 20.16C9.5024 19.9337 9.36865 19.6812 9.2224 19.375C8.75342 19.9588 8.15724 20.4277 7.47938 20.746C6.80152 21.0642 6.0599 21.2233 5.31115 21.2112C4.82614 21.237 4.34088 21.1655 3.88387 21.0011C3.42686 20.8367 3.00732 20.5826 2.6499 20.2537C2.31553 19.9186 2.05442 19.5177 1.88314 19.0764C1.71186 18.635 1.63414 18.1629 1.6549 17.69C1.63601 17.1713 1.73523 16.6552 1.94506 16.1805C2.15489 15.7059 2.46986 15.2851 2.86615 14.95C3.79028 14.2188 4.94942 13.8499 6.12615 13.9125C6.598 13.9163 7.06906 13.9518 7.53615 14.0187C8.02865 14.085 8.53615 14.1912 9.06615 14.3112V13.34C9.14201 12.5773 8.91783 11.8151 8.44115 11.215C7.82236 10.7426 7.04689 10.5236 6.2724 10.6025C5.78848 10.6024 5.30628 10.6603 4.83615 10.775C4.34728 10.8916 3.86732 11.0428 3.3999 11.2275C3.2484 11.295 3.09265 11.3527 2.93365 11.4C2.8649 11.4227 2.79344 11.4361 2.72115 11.44C2.5349 11.44 2.44115 11.3075 2.44115 11.0275V10.375C2.4269 10.2138 2.45945 10.0519 2.5349 9.90873C2.63599 9.78704 2.76451 9.69108 2.9099 9.62873C3.44348 9.36467 4.00603 9.16373 4.58615 9.02998C5.26405 8.85701 5.96157 8.77297 6.66115 8.77998C7.91864 8.67316 9.16839 9.05956 10.1461 9.85748C10.5401 10.3 10.8407 10.8175 11.03 11.3789C11.2192 11.9404 11.2932 12.5343 11.2474 13.125V17.4375H11.2799ZM5.8724 19.46C6.34073 19.4552 6.80514 19.3741 7.2474 19.22C7.73493 19.0529 8.17049 18.7617 8.51115 18.375C8.72561 18.1299 8.88049 17.8386 8.96365 17.5237C9.05489 17.1447 9.09938 16.756 9.09615 16.3662V15.8012C8.69278 15.703 8.28422 15.6275 7.8724 15.575C7.45781 15.5223 7.04033 15.4956 6.6224 15.495C5.92002 15.4395 5.21997 15.6276 4.6399 16.0275C4.41971 16.2142 4.24617 16.4497 4.1331 16.7154C4.02003 16.981 3.97057 17.2694 3.98865 17.5575C3.95923 17.8132 3.98773 18.0724 4.07204 18.3156C4.15635 18.5589 4.29431 18.78 4.47569 18.9628C4.65708 19.1455 4.87725 19.285 5.11989 19.3711C5.36253 19.4572 5.62143 19.4875 5.8774 19.46H5.8724ZM16.5549 20.8962C16.3777 20.9134 16.2003 20.8664 16.0549 20.7637C15.9181 20.6208 15.8229 20.4431 15.7799 20.25L12.6549 9.96123C12.5925 9.78925 12.5505 9.61052 12.5299 9.42873C12.5234 9.38475 12.527 9.33985 12.5405 9.29749C12.5539 9.25512 12.577 9.2164 12.6077 9.1843C12.6385 9.15221 12.6762 9.12758 12.718 9.11231C12.7597 9.09705 12.8044 9.09154 12.8487 9.09623H14.1524C14.3358 9.07385 14.5209 9.12114 14.6712 9.22873C14.8054 9.37422 14.8975 9.55357 14.9374 9.74748L17.1674 18.555L19.2424 9.74998C19.269 9.55504 19.3565 9.37349 19.4924 9.23123C19.6522 9.13362 19.838 9.08737 20.0249 9.09873H21.0886C21.2762 9.07873 21.4648 9.12566 21.6211 9.23123C21.7593 9.37193 21.8471 9.55427 21.8711 9.74998L23.9736 18.6637L26.2799 9.74998C26.3222 9.55692 26.414 9.37817 26.5461 9.23123C26.7008 9.13347 26.8823 9.08709 27.0649 9.09873H28.3024C28.3475 9.09277 28.3933 9.09727 28.4364 9.11187C28.4794 9.12648 28.5185 9.1508 28.5507 9.18294C28.5828 9.21509 28.6071 9.25421 28.6217 9.29726C28.6364 9.34032 28.6409 9.38615 28.6349 9.43123C28.6319 9.50265 28.6231 9.57372 28.6086 9.64373C28.5876 9.75719 28.5562 9.86848 28.5149 9.97623L25.3086 20.26C25.2688 20.4565 25.1718 20.637 25.0299 20.7787C24.881 20.8737 24.7063 20.92 24.5299 20.9112H23.3799C23.1923 20.9312 23.0037 20.8843 22.8474 20.7787C22.7094 20.6324 22.6218 20.4459 22.5974 20.2462L20.5299 11.6637L18.4812 20.2312C18.4509 20.4291 18.3641 20.614 18.2311 20.7637C18.074 20.8674 17.8861 20.9141 17.6986 20.8962H16.5549ZM33.6549 21.25C32.9649 21.2505 32.2773 21.17 31.6061 21.01C31.0746 20.9018 30.56 20.7227 30.0762 20.4775C29.9045 20.3961 29.761 20.2656 29.6636 20.1025C29.6115 19.9843 29.5842 19.8566 29.5836 19.7275V19.06C29.5836 18.7812 29.6899 18.6475 29.8899 18.6475C29.9715 18.6477 30.0526 18.6612 30.1299 18.6875C30.2099 18.7137 30.3299 18.7675 30.4624 18.82C30.9324 19.0269 31.4231 19.1832 31.9262 19.2862C32.447 19.3921 32.9771 19.4457 33.5086 19.4462C34.1846 19.4861 34.858 19.334 35.4511 19.0075C35.6668 18.8772 35.8442 18.6923 35.9656 18.4715C36.0869 18.2507 36.1479 18.0019 36.1424 17.75C36.1467 17.5785 36.1168 17.4078 36.0546 17.248C35.9924 17.0881 35.899 16.9422 35.7799 16.8187C35.3906 16.4875 34.9304 16.2502 34.4349 16.125L32.5061 15.5262C31.6716 15.3109 30.9273 14.8354 30.3812 14.1687C29.953 13.6167 29.7192 12.9386 29.7161 12.24C29.7053 11.7251 29.829 11.2162 30.0749 10.7637C30.3123 10.3356 30.6388 9.96351 31.0324 9.67248C31.4472 9.35882 31.9163 9.12447 32.4161 8.98123C32.9594 8.82296 33.5229 8.74505 34.0886 8.74998C34.3866 8.74799 34.6843 8.76595 34.9799 8.80373C35.2861 8.84373 35.5649 8.89748 35.8449 8.94998C36.1025 9.00276 36.3561 9.07377 36.6036 9.16248C36.7978 9.2227 36.9851 9.30314 37.1624 9.40248C37.3189 9.48146 37.4553 9.5952 37.5611 9.73498C37.6494 9.86373 37.6933 10.0178 37.6861 10.1737V10.7987C37.6861 11.0787 37.5799 11.225 37.3799 11.225C37.2045 11.204 37.0348 11.1497 36.8799 11.065C36.0761 10.7097 35.2049 10.5327 34.3261 10.5462C33.7137 10.511 33.1029 10.6405 32.5574 10.9212C32.3545 11.0421 32.1888 11.2165 32.0786 11.4253C31.9683 11.6341 31.9177 11.8693 31.9324 12.105C31.9282 12.2817 31.9616 12.4574 32.0304 12.6203C32.0991 12.7832 32.2016 12.9296 32.3311 13.05C32.7631 13.3926 33.2615 13.6417 33.7949 13.7812L35.6837 14.38C36.4856 14.5848 37.2055 15.0307 37.7461 15.6575C38.1525 16.1926 38.3681 16.8482 38.3587 17.52C38.3655 18.0545 38.2469 18.5833 38.0124 19.0637C37.7764 19.5193 37.4451 19.9187 37.0411 20.235C36.6025 20.5785 36.101 20.8332 35.5649 20.985C34.9455 21.1704 34.3014 21.2598 33.6549 21.25Z" fill="#252F3E"/>
<path fill-rule="evenodd" clip-rule="evenodd" d="M36.1662 27.7213C31.3862 30.9641 25.7387 32.6889 19.9625 32.67C12.6584 32.7079 5.60321 30.0177 0.178722 25.1263C-0.233778 24.7513 0.138722 24.2512 0.631222 24.5412C5.88556 27.5718 11.7702 29.3446 17.8242 29.7209C23.8782 30.0972 29.9371 29.0666 35.5262 26.71C36.2575 26.3775 36.8825 27.1888 36.1662 27.7213Z" fill="#FF9900"/>
<path fill-rule="evenodd" clip-rule="evenodd" d="M37.9875 25.6463C37.4287 24.9275 34.2887 25.3 32.8624 25.4738C32.4362 25.5275 32.37 25.155 32.7562 24.875C35.2562 23.125 39.3674 23.625 39.8474 24.21C40.3274 24.795 39.7149 28.92 37.3724 30.8888C37.0137 31.195 36.6675 31.035 36.8275 30.6388C37.3625 29.3175 38.5462 26.3513 37.9875 25.6463Z" fill="#FF9900"/>
</g>
<defs>
<clipPath id="clip0_556_1988">
<rect width="40" height="40" fill="white"/>
</clipPath>
</defs>
</svg>
