<svg width="42" height="42" viewBox="0 0 42 42" fill="none" xmlns="http://www.w3.org/2000/svg">
<g clip-path="url(#clip0_569_6628)">
<path d="M30.1067 11.905L33.9319 15.815L26.8636 23.04L22.7059 18.875L10.7314 31.115L14.0577 34.6L22.7059 25.76L26.8636 30.01L37.3413 19.215L41.0001 23.04V11.905H30.1067Z" fill="#2A7CC0"/>
<path d="M15.2217 16.835C22.5394 16.835 28.4435 14.795 28.4435 12.245V8.42C28.194 5.955 22.3731 4 15.2217 4C8.07036 4 2.16631 5.955 2 8.42V12.245C2 14.795 7.90405 16.835 15.2217 16.835Z" fill="#2A7CC0"/>
<path d="M15.2217 23.04C15.6375 23.04 15.9701 23.04 16.3859 23.04L20.8763 18.45C19.1301 18.705 17.2175 18.875 15.2217 18.875C7.90405 18.79 2 16.75 2 14.2V18.45C2 20.915 7.90405 23.04 15.2217 23.04Z" fill="#2A7CC0"/>
<path d="M26.7804 20.66C26.8636 20.66 26.8636 20.575 26.9467 20.575L28.1941 19.3C28.3604 19.045 28.4435 18.79 28.4435 18.45V14.2C28.4435 15.56 26.6973 16.835 23.9531 17.685L26.7804 20.66Z" fill="#2A7CC0"/>
<path d="M10.8145 28.65L14.6397 24.74C7.65458 24.57 2 22.53 2 20.065V24.23C2 26.27 5.65885 27.97 10.8145 28.65Z" fill="#2A7CC0"/>
<path d="M9.48401 30.01C5.07676 29.245 2 27.715 2 25.845V30.01C2 32.135 6.07463 33.835 11.6461 34.43L8.40298 31.115L9.48401 30.01Z" fill="#2A7CC0"/>
<path d="M15.0554 38H18.7974V32.22L15.0554 36.045V38Z" fill="#2A7CC0"/>
<path d="M20.9595 30.01L20.5437 30.35V38H24.2857V29.755L22.7057 28.14L20.9595 30.01Z" fill="#2A7CC0"/>
<path d="M26.8635 32.39L26.7804 32.305L26.032 31.625V38H29.8571V29.33L28.194 31.03L26.8635 32.39Z" fill="#2A7CC0"/>
<path d="M31.6035 38H35.3455V23.72L31.6035 27.545V38Z" fill="#2A7CC0"/>
<path d="M37.0918 21.85V38H40.8338V25.165L37.3413 21.595L37.0918 21.85Z" fill="#2A7CC0"/>
</g>
<defs>
<clipPath id="clip0_569_6628">
<rect width="39" height="34" fill="white" transform="translate(2 4)"/>
</clipPath>
</defs>
</svg>
