<svg width="40" height="40" viewBox="0 0 40 40" fill="none" xmlns="http://www.w3.org/2000/svg">
<path d="M27.5641 21.7507C26.8688 21.7528 26.1754 21.6771 25.4968 21.5252C25.8924 22.3798 26.1948 23.2746 26.3989 24.1939C26.7748 24.1939 27.1632 24.1939 27.5641 24.1939C28.8419 24.1919 30.1109 23.9846 31.3229 23.58L30.1577 21.3122C29.3174 21.5766 28.4447 21.7241 27.5641 21.7507Z" fill="black"/>
<path d="M21.0866 19.32L20.6356 18.8439C19.6574 17.8875 18.9029 16.7265 18.4263 15.4441C17.9498 14.1617 17.7629 12.7897 17.8792 11.4266C18.0071 9.6008 18.6792 7.85518 19.8087 6.41495L19.7084 8.20662C19.7071 8.52027 19.8236 8.82299 20.0347 9.05497C20.2458 9.28695 20.5362 9.43131 20.8486 9.45954H20.9613C21.275 9.46081 21.5777 9.3444 21.8097 9.1333C22.0417 8.9222 22.186 8.63176 22.2143 8.31938L22.6402 3.19495C22.6552 3.01347 22.6305 2.83091 22.5678 2.65997C22.505 2.48902 22.4058 2.33381 22.2769 2.20514C22.1398 2.09405 21.9807 2.01317 21.8101 1.96783C21.6395 1.92249 21.4613 1.9137 21.2871 1.94203L16.1627 2.38055C15.8304 2.4088 15.5229 2.56789 15.3079 2.82283C15.0929 3.07777 14.988 3.40767 15.0162 3.73997C15.0445 4.07226 15.2036 4.37973 15.4585 4.59472C15.7135 4.80972 16.0434 4.91463 16.3757 4.88639L17.9919 4.74857C16.47 6.653 15.573 8.98081 15.4234 11.4141C15.294 13.0817 15.5258 14.7576 16.1031 16.3274C16.6805 17.8972 17.5897 19.3239 18.7687 20.5103L19.1571 20.9739C20.7582 22.6284 21.6794 24.824 21.7381 27.1257C21.8049 28.1682 21.6948 29.2146 21.4124 30.2204L23.6676 31.3605C24.1528 29.9483 24.3446 28.4518 24.2315 26.9628C24.1545 24.116 23.0355 21.3965 21.0866 19.32Z" fill="black"/>
<path d="M38.6776 19.3701L37.1615 19.4829C38.5449 17.6924 39.3981 15.5497 39.6241 13.2984C39.8501 11.0471 39.4399 8.77754 38.44 6.74782C37.4402 4.71809 35.8909 3.00965 33.9682 1.81678C32.0456 0.623905 29.8268 -0.00553443 27.5642 3.66634e-05C26.2861 -0.00217137 25.0164 0.205224 23.8054 0.613967L24.9456 2.86922C26.3759 2.46413 27.8808 2.39641 29.3418 2.6714C30.8028 2.94639 32.18 3.55659 33.3652 4.454C34.5504 5.35141 35.5113 6.51155 36.1722 7.84319C36.8331 9.17484 37.176 10.6417 37.1741 12.1283C37.1737 14.2766 36.4449 16.3614 35.1067 18.0421L35.232 16.1126C35.2427 15.948 35.2209 15.783 35.1678 15.6269C35.1147 15.4708 35.0314 15.3267 34.9226 15.2028C34.8139 15.0789 34.6817 14.9776 34.5338 14.9047C34.3859 14.8319 34.2251 14.7889 34.0606 14.7782C33.896 14.7675 33.731 14.7893 33.5749 14.8424C33.4188 14.8955 33.2747 14.9788 33.1508 15.0876C33.0268 15.1964 32.9256 15.3285 32.8527 15.4764C32.7799 15.6243 32.7369 15.7851 32.7262 15.9497L32.3754 21.0616C32.3654 21.2429 32.395 21.4242 32.4621 21.593C32.5291 21.7617 32.6321 21.9138 32.7638 22.0389C32.8764 22.1531 33.0112 22.2432 33.1598 22.3035C33.3085 22.3639 33.4679 22.3932 33.6283 22.3897H33.7536L38.8655 21.8635C39.0303 21.8478 39.1905 21.7996 39.3366 21.7217C39.4827 21.6438 39.6119 21.5377 39.7168 21.4095C39.8216 21.2814 39.9 21.1337 39.9475 20.9751C39.9949 20.8164 40.0104 20.6499 39.9931 20.4852C39.9583 20.1663 39.8025 19.8728 39.5577 19.6653C39.3129 19.4579 38.9979 19.3522 38.6776 19.3701Z" fill="black"/>
<path d="M3.18247 22.54H3.28271L8.40714 22.1015C8.57167 22.0875 8.73184 22.0413 8.8785 21.9654C9.02516 21.8895 9.15544 21.7855 9.26189 21.6592C9.36835 21.533 9.4489 21.387 9.49894 21.2297C9.54898 21.0723 9.56754 20.9066 9.55356 20.7421C9.53957 20.5775 9.49332 20.4174 9.41743 20.2707C9.34155 20.1241 9.23752 19.9938 9.11128 19.8873C8.98505 19.7809 8.83908 19.7003 8.68172 19.6503C8.52436 19.6002 8.35868 19.5817 8.19414 19.5957L6.45259 19.746C8.09299 18.5358 10.0773 17.8817 12.1158 17.8792C12.8025 17.8833 13.4869 17.9589 14.158 18.1047C13.7645 17.2505 13.4662 16.3555 13.2685 15.436C12.8926 15.436 12.5042 15.436 12.1158 15.436C9.44259 15.432 6.84329 16.3131 4.72356 17.9418L4.87391 16.3005C4.88761 16.1358 4.86862 15.9701 4.81802 15.8128C4.76742 15.6556 4.68622 15.5099 4.57908 15.3841C4.47195 15.2583 4.341 15.155 4.19378 15.08C4.04655 15.0051 3.88595 14.96 3.72123 14.9473C3.39069 14.9196 3.06263 15.024 2.80898 15.2377C2.55532 15.4514 2.39676 15.757 2.36807 16.0875L1.92955 21.1994C1.91569 21.3722 1.93782 21.5459 1.99454 21.7097C2.05127 21.8735 2.14136 22.0237 2.25911 22.1509C2.37687 22.2781 2.51973 22.3794 2.67867 22.4486C2.8376 22.5177 3.00915 22.5531 3.18247 22.5526V22.54Z" fill="black"/>
<path d="M21.1618 32.3002L16.0374 32.6385C15.7051 32.6601 15.395 32.8129 15.1753 33.0631C14.9556 33.3133 14.8443 33.6406 14.8659 33.9729C14.8875 34.3052 15.0402 34.6153 15.2904 34.835C15.5407 35.0547 15.8679 35.166 16.2002 35.1444L18.1297 35.0066C16.7108 36.147 14.9984 36.8633 13.1901 37.0728C11.3817 37.2824 9.55095 36.9767 7.90879 36.1909C6.26663 35.4052 4.87991 34.1715 3.90846 32.6319C2.93702 31.0923 2.4204 29.3095 2.41813 27.489C2.42716 26.6413 2.54935 25.7986 2.78148 24.9832L0.588871 23.818C0.200724 25.0117 0.00202299 26.2589 0 27.5141C0.0147003 29.7832 0.664347 32.0028 1.87539 33.9217C3.08644 35.8406 4.81051 37.3822 6.85243 38.3718C8.89434 39.3615 11.1725 39.7597 13.4291 39.5215C15.6857 39.2832 17.8305 38.418 19.6207 37.0238L19.4703 38.5022C19.453 38.6659 19.4681 38.8315 19.5147 38.9894C19.5614 39.1473 19.6387 39.2944 19.7422 39.4224C19.8458 39.5504 19.9736 39.6567 20.1183 39.7353C20.2629 39.8139 20.4217 39.8632 20.5854 39.8804H20.7233C21.0349 39.882 21.336 39.7673 21.5677 39.5588C21.7994 39.3503 21.945 39.0629 21.9762 38.7528L22.5024 33.6659C22.521 33.4847 22.4999 33.3015 22.4404 33.1293C22.381 32.957 22.2847 32.7998 22.1582 32.6686C22.0318 32.5374 21.8783 32.4353 21.7083 32.3695C21.5384 32.3038 21.3561 32.2758 21.1743 32.2877L21.1618 32.3002Z" fill="black"/>
</svg>
