<svg width="40" height="40" viewBox="0 0 40 40" fill="none" xmlns="http://www.w3.org/2000/svg">
<path d="M1.45037 30.3318C1.03667 31.0065 0.572049 31.7893 0.177442 32.413C0.00765449 32.7 -0.0427909 33.042 0.0369482 33.3658C0.116687 33.6895 0.320246 33.969 0.603873 34.1442L8.87789 39.2359C9.02167 39.3247 9.18169 39.384 9.3486 39.4102C9.51552 39.4365 9.686 39.4293 9.8501 39.389C10.0142 39.3488 10.1686 39.2762 10.3044 39.1756C10.4402 39.075 10.5546 38.9484 10.6409 38.8031C10.9719 38.2494 11.3983 37.5302 11.8629 36.7601C15.1407 31.3502 18.4376 32.0121 24.3821 34.8507L32.5862 38.7522C32.7399 38.8254 32.9069 38.867 33.077 38.8745C33.2472 38.8821 33.4171 38.8553 33.5768 38.796C33.7364 38.7366 33.8825 38.6459 34.0065 38.529C34.1304 38.4122 34.2296 38.2716 34.2982 38.1158L38.2379 29.2053C38.3717 28.8994 38.38 28.5532 38.2609 28.2413C38.1419 27.9293 37.9051 27.6767 37.6015 27.5377C35.8703 26.7231 32.427 25.1001 29.3275 23.6044C18.1766 18.1945 8.69968 18.5509 1.45037 30.3318Z" fill="url(#paint0_linear_577_10491)"/>
<path d="M38.5496 10.1177C38.9633 9.44309 39.4279 8.66024 39.8225 8.03651C39.9923 7.74959 40.0427 7.40751 39.963 7.08379C39.8833 6.76007 39.6797 6.48056 39.3961 6.30533L31.1221 1.21362C30.9764 1.11658 30.8123 1.05061 30.6401 1.01984C30.4678 0.989062 30.291 0.99414 30.1208 1.03476C29.9506 1.07537 29.7905 1.15065 29.6507 1.25589C29.5109 1.36113 29.3943 1.49408 29.3081 1.64642C28.9772 2.20014 28.5508 2.91934 28.0861 3.68946C24.8083 9.0994 21.5115 8.43748 15.5669 5.59885L7.38835 1.7037C7.23456 1.6305 7.06764 1.58891 6.89748 1.58139C6.72732 1.57387 6.55738 1.60057 6.39773 1.65992C6.23808 1.71927 6.09196 1.81006 5.96804 1.9269C5.84411 2.04375 5.74489 2.18428 5.67626 2.34016L1.73656 11.2506C1.60277 11.5565 1.59451 11.9027 1.71356 12.2147C1.83262 12.5266 2.06945 12.7792 2.37302 12.9182C4.1042 13.7329 7.54747 15.3558 10.647 16.8515C21.8233 22.2551 31.3003 21.8987 38.5496 10.1177Z" fill="url(#paint1_linear_577_10491)"/>
<defs>
<linearGradient id="paint0_linear_577_10491" x1="38.0152" y1="41.8709" x2="12.9831" y2="27.4868" gradientUnits="userSpaceOnUse">
<stop offset="0.18" stop-color="#0052CC"/>
<stop offset="1" stop-color="#2684FF"/>
</linearGradient>
<linearGradient id="paint1_linear_577_10491" x1="1.98478" y1="-1.42133" x2="27.0232" y2="12.9627" gradientUnits="userSpaceOnUse">
<stop offset="0.18" stop-color="#0052CC"/>
<stop offset="1" stop-color="#2684FF"/>
</linearGradient>
</defs>
</svg>
