<svg width="50" height="40" viewBox="0 0 50 40" fill="none" xmlns="http://www.w3.org/2000/svg">
<path d="M16.1111 25.3059L19.7622 25.5734V28.6494C19.7622 28.6494 12.9348 35.3965 2.98462 27.4391H6.3749L6.75605 24.3698C8.0056 25.5179 9.59483 26.2282 11.2837 26.3935C12.9726 26.5588 14.6694 26.17 16.1178 25.2859L16.1111 25.3059Z" fill="#0C2C40"/>
<path d="M3.73394 10.8687C3.73394 10.8687 -3.68856 17.783 2.39656 26.6298L5.79352 26.9574L6.11449 23.6741C6.11449 23.6741 2.99169 18.5653 7.02392 14.5264L3.41297 14.2522L3.73394 10.8687Z" fill="#0C2C40"/>
<path d="M4.54284 10.3877C4.54284 10.3877 13.8043 4.41629 20.8456 11.6248L17.7228 11.4108L17.4018 14.9014C17.4018 14.9014 13.8511 10.595 7.93312 13.9385L4.32886 13.778L4.54284 10.3877Z" fill="#0C2C40"/>
<path d="M18.2039 15.7638L18.4178 12.1595L21.7011 12.4872L31.5978 23.514H28.2142L27.8865 26.5766L18.2039 15.7638Z" fill="#0C2C40"/>
<path d="M17.0212 24.6972L29.5593 10.8687L32.9027 11.1963L32.6754 14.6067L20.358 28.3015L20.4115 24.7507L17.0212 24.6972Z" fill="#4DB85D"/>
<path d="M30.0676 10.3738L33.5382 10.6546L33.2707 13.9379C33.2707 13.9379 38.3929 10.668 42.1442 14.1385L45.8154 14.299L46.1163 11.1027C46.1163 11.1027 40.4123 4.6364 30.0676 10.3738Z" fill="#4DB85D"/>
<path d="M42.6718 14.6862L46.3362 14.9002L46.6238 11.6637C46.6238 11.6637 54.6481 20.6041 45.9551 28.3008L42.4043 28.0534L42.7721 24.3823C42.7721 24.3823 47.5733 19.0327 42.6918 14.6862H42.6718Z" fill="#4DB85D"/>
<path d="M32.4612 24.3703L28.7299 24.0493L28.5493 27.3125C28.5493 27.3125 35.1226 34.9022 45.046 28.8505L41.6624 28.5764L41.9834 25.0657C41.9834 25.0657 37.6636 28.5296 32.4612 24.397V24.3703Z" fill="#4DB85D"/>
<path d="M37.1492 18.7185V19.9556C37.1313 20.0528 37.1313 20.1525 37.1492 20.2498V22.2224H36.2397V18.7118L37.1492 18.7185Z" fill="#0C2C40"/>
<path d="M37.9571 18.7194C37.6548 18.7611 37.3725 18.8941 37.1479 19.1006C36.9957 19.22 36.8696 19.3695 36.7776 19.5398C36.6855 19.71 36.6295 19.8974 36.613 20.0902C36.6262 20.2924 36.6804 20.4897 36.7724 20.6702C36.8643 20.8507 36.9921 21.0106 37.1479 21.1401C37.3424 21.3262 37.5951 21.4395 37.8634 21.461C38.0364 21.4623 38.2077 21.428 38.3668 21.3603C38.5259 21.2927 38.6695 21.1931 38.7886 21.0677C38.9076 20.9424 38.9997 20.7939 39.0592 20.6315C39.1186 20.4691 39.144 20.2963 39.134 20.1237C39.134 19.4349 38.6124 18.686 37.9571 18.7194ZM37.6762 20.7255C37.5497 20.7196 37.4289 20.6707 37.3341 20.5868C37.2392 20.5028 37.1759 20.389 37.1546 20.2641C37.1477 20.2153 37.1477 20.1658 37.1546 20.117C37.148 20.0704 37.148 20.0231 37.1546 19.9765C37.1759 19.8517 37.2392 19.7378 37.3341 19.6539C37.4289 19.5699 37.5497 19.521 37.6762 19.5151C37.8257 19.5309 37.9642 19.6014 38.0648 19.7132C38.1654 19.8249 38.221 19.97 38.221 20.1203C38.221 20.2707 38.1654 20.4157 38.0648 20.5275C37.9642 20.6392 37.8257 20.7097 37.6762 20.7255ZM40.9595 19.7893C40.8258 19.7492 40.3309 19.6756 40.3309 19.4884C40.3309 19.3012 40.4847 19.368 40.5583 19.3747C40.7656 19.3747 41.0799 19.6221 41.227 19.5753C41.3741 19.5285 41.5212 19.134 41.5747 19.0003C41.1362 18.7467 40.6237 18.6522 40.1236 18.7328C39.9008 18.7826 39.7063 18.9173 39.5814 19.1084C39.4565 19.2995 39.4111 19.5318 39.4549 19.7559C39.4519 19.8004 39.4519 19.8451 39.4549 19.8896C39.6756 20.458 40.3577 20.2373 40.7054 20.5583C40.8458 20.7054 40.5516 20.7723 40.458 20.7656C40.1612 20.7256 39.8775 20.6181 39.6288 20.4513C39.5419 20.5784 39.2811 20.8659 39.3078 21.0197C39.3346 21.1735 39.689 21.2872 39.8361 21.334C40.0977 21.4464 40.3852 21.4847 40.6671 21.4446C40.949 21.4045 41.2144 21.2876 41.4343 21.1066C41.521 20.9927 41.5773 20.8586 41.5979 20.7169C41.6184 20.5752 41.6025 20.4306 41.5516 20.2968C41.5008 20.1629 41.4166 20.0443 41.3072 19.952C41.1977 19.8597 41.0666 19.7968 40.9261 19.7693L40.9595 19.7893ZM33.8446 17.7832C33.4653 17.7846 33.0949 17.8982 32.7802 18.1099C32.4655 18.3216 32.2205 18.6218 32.0763 18.9726C31.9321 19.3234 31.895 19.709 31.9698 20.0809C32.0446 20.4527 32.2279 20.794 32.4966 21.0618C32.7653 21.3295 33.1072 21.5116 33.4793 21.5851C33.8514 21.6586 34.237 21.6203 34.5872 21.4748C34.9375 21.3293 35.2369 21.0834 35.4475 20.7679C35.658 20.4525 35.7704 20.0817 35.7704 19.7024C35.774 19.4475 35.7267 19.1946 35.6315 18.9582C35.5362 18.7218 35.3948 18.5068 35.2155 18.3256C35.0363 18.1445 34.8227 18.0009 34.5873 17.9031C34.3519 17.8054 34.0994 17.7556 33.8446 17.7565V17.7832ZM33.8446 20.6854C33.6489 20.6854 33.4575 20.6273 33.2948 20.5186C33.132 20.4098 33.0052 20.2553 32.9303 20.0744C32.8554 19.8936 32.8358 19.6946 32.8739 19.5026C32.9121 19.3106 33.0064 19.1343 33.1448 18.9959C33.2832 18.8575 33.4595 18.7632 33.6515 18.725C33.8435 18.6869 34.0425 18.7065 34.2233 18.7814C34.4042 18.8563 34.5587 18.9831 34.6675 19.1459C34.7762 19.3086 34.8343 19.5 34.8343 19.6957C34.8343 19.9582 34.73 20.2099 34.5444 20.3955C34.3588 20.5811 34.1071 20.6854 33.8446 20.6854Z" fill="#0C2C40"/>
<path d="M15.6434 18.6793H14.5467L15.7102 21.7085H16.2051V20.4179L15.6434 18.6793ZM16.7734 18.6793H17.8701L16.6932 21.7152H16.1917V20.4246L16.7734 18.6793ZM10.3272 18.2446C9.95882 17.9883 9.53034 17.8317 9.08347 17.7899C8.49541 17.7596 7.90618 17.7596 7.31812 17.7899V21.6817H7.6324C8.05273 21.7216 8.4759 21.7216 8.89623 21.6817C9.50312 21.6637 10.0829 21.4261 10.5278 21.013C10.8084 20.6978 10.9651 20.2915 10.9692 19.8696V19.7291C10.9839 19.4444 10.931 19.1602 10.8148 18.8999C10.6985 18.6395 10.5223 18.4104 10.3005 18.2313L10.3272 18.2446ZM9.43788 20.6252C9.09031 20.7649 8.71276 20.8132 8.34122 20.7656V18.7595C8.73692 18.6989 9.14168 18.7644 9.49806 18.9468C9.62969 19.0485 9.73509 19.1802 9.80546 19.3309C9.87583 19.4817 9.90913 19.647 9.90258 19.8132C9.89604 19.9795 9.84984 20.1417 9.76784 20.2864C9.68583 20.4312 9.57041 20.5542 9.43119 20.6452L9.43788 20.6252ZM14.0719 20.9261C13.9783 20.8525 13.8646 20.7255 13.7443 20.7054C13.6239 20.6854 13.3163 20.9395 13.0756 20.9595C12.923 20.9666 12.7722 20.9242 12.6457 20.8387C12.5192 20.7531 12.4237 20.629 12.3734 20.4848H14.3795C14.4161 20.2066 14.3881 19.9237 14.2976 19.6582C14.2072 19.3926 14.0567 19.1515 13.8579 18.9535C13.6449 18.79 13.3936 18.6839 13.1279 18.6452C12.8621 18.6065 12.591 18.6365 12.3402 18.7324C12.0894 18.8283 11.8673 18.9868 11.6952 19.1929C11.5231 19.399 11.4067 19.6458 11.357 19.9097C11.3059 20.176 11.3237 20.451 11.4088 20.7085C11.4938 20.966 11.6432 21.1975 11.8428 21.3811C12.0425 21.5646 12.2857 21.6941 12.5494 21.7573C12.8131 21.8204 13.0886 21.8151 13.3497 21.7419C13.6361 21.7022 13.9053 21.5816 14.1254 21.3942C14.199 21.3206 14.3193 21.227 14.2592 21.1133C14.2173 21.0457 14.1654 20.9849 14.1054 20.9328L14.0719 20.9261ZM13.4032 19.9364H12.3935C12.4133 19.8141 12.476 19.7028 12.5703 19.6225C12.6646 19.5422 12.7845 19.4981 12.9084 19.4981C13.0323 19.4981 13.1522 19.5422 13.2465 19.6225C13.3408 19.7028 13.4035 19.8141 13.4233 19.9364H13.4032Z" fill="#4DB85D"/>
</svg>
