<svg width="40" height="40" viewBox="0 0 40 40" fill="none" xmlns="http://www.w3.org/2000/svg">
<path d="M37.9193 17.7166C37.8184 17.6335 36.9099 16.9525 34.9585 16.9525C34.4538 16.9525 33.9323 17.0024 33.4276 17.0854C33.0575 14.5441 30.921 13.315 30.8368 13.2486L30.3153 12.9496L29.9789 13.4313C29.5583 14.0791 29.2387 14.8099 29.0536 15.5574C28.7004 17.0024 28.919 18.3644 29.6592 19.527C28.7676 20.0253 27.3209 20.1416 27.0181 20.1581H3.12932C2.50689 20.1581 2.00219 20.6565 2.00219 21.271C1.96859 23.3306 2.32184 25.3902 3.04526 27.3334C3.86954 29.4595 5.09766 31.0374 6.67903 32.0008C8.46226 33.0804 11.3726 33.6949 14.6531 33.6949C16.1335 33.6949 17.6139 33.5621 19.0776 33.2963C21.1131 32.9308 23.0646 32.2333 24.8647 31.2201C26.3399 30.3758 27.6691 29.2989 28.8012 28.0311C30.7022 25.9217 31.8294 23.5631 32.6537 21.4703H32.9901C35.0594 21.4703 36.3379 20.6565 37.0445 19.9588C37.5155 19.527 37.8688 18.9955 38.1211 18.3976L38.2726 17.9657L37.9193 17.7166Z" fill="#0091E2"/>
<path d="M5.35005 19.4771H8.54639C8.69784 19.4771 8.83243 19.3609 8.83243 19.1948V16.3712C8.83243 16.2217 8.71464 16.0889 8.54639 16.0889H5.35005C5.19865 16.0889 5.06406 16.2051 5.06406 16.3712V19.1948C5.08086 19.3609 5.19865 19.4771 5.35005 19.4771ZM9.75765 19.4771H12.9541C13.1054 19.4771 13.24 19.3609 13.24 19.1948V16.3712C13.24 16.2217 13.1222 16.0889 12.9541 16.0889H9.75759C9.6062 16.0889 9.4716 16.2051 9.4716 16.3712V19.1948C9.48847 19.3609 9.60632 19.4771 9.75765 19.4771ZM14.2493 19.4772H17.4457C17.5971 19.4772 17.7317 19.3609 17.7317 19.1948V16.3712C17.7317 16.2217 17.6139 16.0889 17.4457 16.0889H14.2493C14.0979 16.0889 13.9633 16.2051 13.9633 16.3712V19.1948C13.9633 19.3609 14.0811 19.4772 14.2493 19.4772ZM18.6738 19.4772H21.8702C22.0216 19.4772 22.1562 19.3609 22.1562 19.1948V16.3712C22.1562 16.2217 22.0384 16.0889 21.8702 16.0889H18.6738C18.5224 16.0889 18.3878 16.2051 18.3878 16.3712V19.1948C18.3878 19.3609 18.5224 19.4772 18.6738 19.4772ZM9.75765 15.4411H12.954C13.1054 15.4411 13.24 15.3083 13.24 15.1587V12.3351C13.24 12.1856 13.1222 12.0527 12.954 12.0527H9.75759C9.6062 12.0527 9.4716 12.169 9.4716 12.3351V15.1587C9.48847 15.3082 9.60632 15.4411 9.75765 15.4411ZM14.2493 15.4411H17.4457C17.5971 15.4411 17.7317 15.3083 17.7317 15.1587V12.3351C17.7317 12.1856 17.6139 12.0527 17.4457 12.0527H14.2493C14.0979 12.0527 13.9633 12.169 13.9633 12.3351V15.1587C13.9633 15.3082 14.0811 15.4411 14.2493 15.4411ZM18.6738 15.4411H21.8702C22.0216 15.4411 22.1562 15.3083 22.1562 15.1587V12.3351C22.1562 12.1856 22.0215 12.0527 21.8702 12.0527H18.6738C18.5224 12.0527 18.3878 12.169 18.3878 12.3351V15.1587C18.3878 15.3082 18.5224 15.4411 18.6738 15.4411ZM18.6738 11.3884H21.8702C22.0216 11.3884 22.1562 11.2721 22.1562 11.106V8.2824C22.1562 8.13289 22.0215 8 21.8702 8H18.6738C18.5224 8 18.3878 8.11627 18.3878 8.2824V11.106C18.3878 11.2555 18.5224 11.3884 18.6738 11.3884ZM23.1318 19.4772H26.3282C26.4796 19.4772 26.6142 19.3609 26.6142 19.1948V16.3712C26.6142 16.2217 26.4965 16.0889 26.3282 16.0889H23.1319C22.9805 16.0889 22.8459 16.2051 22.8459 16.3712V19.1948C22.8627 19.3609 22.9805 19.4772 23.1318 19.4772Z" fill="#0091E2"/>
</svg>
