<svg width="40" height="40" viewBox="0 0 40 40" fill="none" xmlns="http://www.w3.org/2000/svg">
<path d="M37 3H3V37H37V3Z" fill="#512BD4"/>
<path d="M9.05979 24.7221C8.81939 24.7221 8.61505 24.642 8.44676 24.4818C8.27848 24.3175 8.19434 24.1223 8.19434 23.8964C8.19434 23.6663 8.27848 23.4692 8.44676 23.3048C8.61505 23.1405 8.81939 23.0583 9.05979 23.0583C9.30421 23.0583 9.51055 23.1405 9.67884 23.3048C9.85113 23.4692 9.93728 23.6663 9.93728 23.8964C9.93728 24.1223 9.85113 24.3175 9.67884 24.4818C9.51055 24.642 9.30421 24.7221 9.05979 24.7221Z" fill="white"/>
<path d="M18.6704 24.5866H17.1078L12.9909 18.0917C12.8867 17.9273 12.8005 17.7568 12.7324 17.5802H12.6963C12.7284 17.7692 12.7444 18.1738 12.7444 18.7941V24.5866H11.3621V15.75H13.0269L17.0056 22.0909C17.1739 22.3539 17.2821 22.5346 17.3302 22.6332H17.3542C17.3141 22.3991 17.2941 22.0026 17.2941 21.4439V15.75H18.6704V24.5866Z" fill="white"/>
<path d="M25.4019 24.5866H20.5637V15.75H25.2096V16.9948H21.9942V19.4966H24.9572V20.7352H21.9942V23.348H25.4019V24.5866Z" fill="white"/>
<path d="M32.2777 16.9948H29.8015V24.5866H28.371V16.9948H25.9009V15.75H32.2777V16.9948Z" fill="white"/>
</svg>
