<svg width="40" height="40" viewBox="0 0 40 40" fill="none" xmlns="http://www.w3.org/2000/svg">
<path d="M20.3168 0C20.418 0.287382 20.5008 0.540279 20.595 0.786278C20.96 1.684 21.4341 2.53338 22.0066 3.31524C22.7875 4.39426 23.6499 5.41189 24.5862 6.3592C25.6553 7.45815 26.7427 8.54331 27.8187 9.63536C29.0343 10.8446 30.1854 12.1169 31.2673 13.4472C32.3179 14.7387 33.2245 16.141 33.971 17.6292C34.6146 18.9291 35.0787 20.3104 35.3504 21.7353C35.4894 22.4947 35.5746 23.263 35.6056 24.0344C35.6309 24.586 35.6263 25.1386 35.5918 25.6897C35.5364 26.5288 35.4103 27.3617 35.2147 28.1796C34.6093 30.7511 33.3491 33.1224 31.5564 35.0629C29.7637 37.0034 27.4995 38.4473 24.9839 39.2541C24.1365 39.5275 23.2674 39.7282 22.386 39.8542C21.4032 39.9943 20.4087 40.0336 19.4179 39.9715C17.755 39.8771 16.1191 39.5089 14.5761 38.8817C12.394 37.9979 10.445 36.623 8.8804 34.8638C7.31581 33.1047 6.17775 31.0086 5.55458 28.7382C5.33486 27.9391 5.18107 27.1233 5.09477 26.2989C5.01399 25.5585 4.98479 24.8133 5.0074 24.0689C5.07109 22.3287 5.42785 20.6117 6.06267 18.9902C6.64132 17.5374 7.39154 16.1589 8.29736 14.8841C9.31801 13.4433 10.4503 12.085 11.6839 10.8217C12.7024 9.76411 13.7392 8.72723 14.7692 7.68346C15.6773 6.76383 16.5832 5.84421 17.4223 4.86021C18.1986 3.97955 18.8841 3.02291 19.4685 2.00478C19.7998 1.41382 20.0679 0.789636 20.2686 0.142542C20.2801 0.105757 20.2961 0.0735699 20.3168 0ZM20.3168 8.67895C20.2571 8.73183 20.2157 8.76861 20.1766 8.8077C19.1972 9.79016 18.2193 10.7734 17.243 11.7574C17.0486 11.9537 16.8738 12.1685 16.7211 12.3988C16.5218 12.6736 16.4145 13.0043 16.4145 13.3437C16.4145 13.6832 16.5218 14.0139 16.7211 14.2887C16.8676 14.5095 17.033 14.7172 17.2154 14.9094C18.581 16.367 19.949 17.8231 21.3192 19.2776C23.2665 21.3468 25.2138 23.4159 27.106 25.5449C27.7767 26.246 28.3809 27.008 28.9107 27.8209C28.9521 27.8813 28.9974 27.9389 29.0464 27.9933C29.1139 28.0692 29.1966 28.1302 29.2889 28.1725C29.3813 28.2148 29.4815 28.2374 29.5831 28.2389C29.6847 28.2404 29.7855 28.2208 29.8791 28.1813C29.9727 28.1418 30.0571 28.0833 30.1269 28.0094C30.2551 27.8671 30.3606 27.7058 30.4396 27.5312C30.7983 26.6743 30.9955 25.7585 31.0213 24.8298C31.0488 24.1812 31.0072 23.5315 30.8971 22.8917C30.6376 21.3983 30.0691 19.9754 29.228 18.7143C28.4044 17.4812 27.5013 16.3031 26.5243 15.1876C24.7011 13.0633 22.7584 11.0493 20.756 9.09278C20.618 8.96633 20.4778 8.82839 20.3168 8.68355V8.67895ZM20.3168 22.8618C20.2525 22.9262 20.2042 22.9722 20.1582 23.0205C19.5627 23.6757 18.9604 24.3241 18.3718 24.9862C17.6545 25.7954 16.9188 26.5955 16.2429 27.437C15.7062 28.0677 15.3289 28.8182 15.1429 29.6252C14.9569 30.4322 14.9675 31.2721 15.1738 32.0742C15.4898 33.3675 16.2821 34.4939 17.3923 35.2287C18.5025 35.9634 19.849 36.2524 21.1629 36.0378C21.9941 35.8993 22.7805 35.5652 23.4573 35.0632C24.1341 34.5611 24.6819 33.9054 25.0555 33.1501C25.4292 32.3947 25.6179 31.5614 25.6063 30.7188C25.5946 29.8762 25.3829 29.0484 24.9885 28.3037C24.7483 27.8757 24.4564 27.4789 24.1195 27.122C23.0527 25.9403 21.9998 24.7494 20.9422 23.5631L20.3168 22.8618ZM13.5369 15.7968C13.4932 15.8336 13.4564 15.8589 13.4243 15.8911C12.4036 16.8917 11.5394 18.0403 10.8608 19.2983C10.2421 20.4532 9.86135 21.7204 9.74117 23.0251C9.66145 23.8597 9.71499 24.7017 9.8998 25.5196C10.0415 26.202 10.2989 26.8551 10.6608 27.4508C10.8099 27.7104 11.0082 27.9385 11.2448 28.1221C11.2937 28.1682 11.3539 28.2007 11.4193 28.2164C11.4846 28.2321 11.553 28.2305 11.6176 28.2117C11.6821 28.1929 11.7407 28.1575 11.7874 28.1092C11.8341 28.0608 11.8673 28.0011 11.8839 27.9359C11.9714 27.7168 12.0783 27.506 12.2035 27.3059C12.5885 26.715 13.0157 26.1525 13.4817 25.623C14.4933 24.4321 15.567 23.2941 16.6544 22.1744C17.0269 21.7882 17.4039 21.4088 17.7764 21.0249C17.8183 20.9906 17.8525 20.9477 17.8765 20.8992C17.9006 20.8506 17.9141 20.7975 17.9161 20.7433C17.918 20.6892 17.9084 20.6352 17.8879 20.5851C17.8674 20.5349 17.8364 20.4897 17.7971 20.4524L17.7511 20.4042L13.6703 15.9302C13.6289 15.8865 13.5852 15.8451 13.5369 15.7968Z" fill="#009CDE"/>
</svg>
