<svg width="40" height="40" viewBox="0 0 40 40" fill="none" xmlns="http://www.w3.org/2000/svg">
<path fill-rule="evenodd" clip-rule="evenodd" d="M2.141 2.67249L0 3.81349V36.1865L2.141 37.3275L10.5765 20.6745L2.141 2.67249ZM8.659 8.51549L11.812 3.73149L25.9415 10.4635L22.6475 11.0245L8.6595 8.51599L8.659 8.51549ZM6.212 31.831L9.6825 36.943L25.9415 29.4235L22.8 28.9L6.212 31.831Z" fill="#9D5025"/>
<path fill-rule="evenodd" clip-rule="evenodd" d="M7.12911 36.073L2.14111 37.3275V2.67249L7.12911 3.88899V36.073Z" fill="#F58536"/>
<path fill-rule="evenodd" clip-rule="evenodd" d="M4.50586 1.4055L7.12936 0L12.0704 22.244L7.12936 40L4.50586 38.5945V1.4055ZM22.6234 28.875L25.9409 29.4235L28.9764 20.366L25.9409 10.4635L22.6234 11.0245V28.875Z" fill="#9D5025"/>
<path fill-rule="evenodd" clip-rule="evenodd" d="M12.2354 38.456L7.12939 40V0L12.2354 1.5505V38.456Z" fill="#F58536"/>
<path fill-rule="evenodd" clip-rule="evenodd" d="M29.4179 28.7235L7.12989 33.161V40L29.4184 33.2555V28.7235H29.4179ZM29.4589 11.1755L7.12939 6.631V0L29.4589 6.7885V11.1755Z" fill="#F58536"/>
<path fill-rule="evenodd" clip-rule="evenodd" d="M25.9409 5.71704L29.5234 6.77604V33.2555L25.9409 34.308V5.71704Z" fill="#F58536"/>
<path fill-rule="evenodd" clip-rule="evenodd" d="M39.9999 16.5015L30.4114 16.987L27.0234 16.741L36.7174 8.37048L39.9999 16.5015Z" fill="#6B3A19"/>
<path fill-rule="evenodd" clip-rule="evenodd" d="M27.0234 16.741L36.7174 16.155V8.37048L27.0234 10.0535V16.741Z" fill="#9D5025"/>
<path fill-rule="evenodd" clip-rule="evenodd" d="M17.8999 16.086L27.7234 5.47754L32.7174 15.7265L22.5349 16.42L17.8999 16.086Z" fill="#6B3A19"/>
<path fill-rule="evenodd" clip-rule="evenodd" d="M17.8999 16.086L27.7234 15.191V5.47754L17.8999 7.94204V16.086ZM27.0234 23.3975L39.9999 23.637L36.7174 31.768L27.0234 30.085V23.3975Z" fill="#9D5025"/>
<path fill-rule="evenodd" clip-rule="evenodd" d="M17.8999 24.053L32.7174 24.4185L27.7234 34.661L17.8999 32.203V24.053Z" fill="#9D5025"/>
<path fill-rule="evenodd" clip-rule="evenodd" d="M17.8999 24.053L27.7234 24.9545L32.7174 24.4185L22.5349 23.719L17.8999 24.053ZM39.9999 23.637L30.4114 23.158L27.0234 23.3975L36.7174 23.99L39.9999 23.637Z" fill="#FBBF93"/>
<path fill-rule="evenodd" clip-rule="evenodd" d="M36.7176 16.155L40.0001 16.5015V9.42304L36.7176 8.37054V16.155ZM32.7176 15.7265L27.7236 15.1905V5.47754L32.7176 7.08504V15.7265ZM36.7176 23.99L40.0001 23.637V30.7155L36.7176 31.768V23.99ZM32.7176 24.4185L27.7236 24.9545V34.6615L32.7176 33.0605V24.4185Z" fill="#F58536"/>
</svg>
