<svg width="40" height="40" viewBox="0 0 40 40" fill="none" xmlns="http://www.w3.org/2000/svg">
<g clip-path="url(#clip0_568_792)">
<path d="M2.01117 19.548C2.01117 16.3024 2.01716 13.0568 2.00327 9.8113C2.00156 9.42748 2.14451 9.20397 2.46193 9.02173C4.84979 7.65063 7.23483 6.27475 9.61706 4.89411L14.796 1.90385C15.8156 1.31464 16.8295 0.715141 17.8581 0.142204C18.0265 0.0483607 18.3218 -0.0250526 18.4437 0.0588483C18.5927 0.161 18.6854 0.438309 18.6896 0.642136C18.71 1.66298 18.6916 2.6845 18.6915 3.70581C18.6915 5.2605 18.683 6.81532 18.7042 8.36973C18.7106 8.84562 18.543 9.12811 18.1194 9.3681C15.586 10.8033 13.071 12.2699 10.546 13.7198C10.2614 13.8832 10.1316 14.0894 10.1325 14.428C10.1415 17.8439 10.1415 21.2597 10.1325 24.6755C10.1316 25.0132 10.251 25.2143 10.5419 25.3813C13.4797 27.0678 16.4132 28.7617 19.3425 30.463C19.6685 30.6524 19.936 30.6762 20.2823 30.4731C22.6675 29.0751 25.0604 27.6904 27.4611 26.3189C28.5483 25.6951 28.2307 25.73 29.215 26.2928C31.3594 27.5187 33.4877 28.7727 35.6349 29.9935C36.1945 30.3117 36.0516 30.7386 35.6231 30.9841C31.208 33.514 26.7988 36.054 22.3955 38.6042C21.66 39.0286 20.9196 39.4454 20.1914 39.8822C19.9373 40.0345 19.7234 40.0412 19.4657 39.8917C17.6233 38.8225 15.7746 37.7637 13.9291 36.6995C10.4748 34.7072 7.02102 32.7141 3.56783 30.7202C3.18523 30.4994 2.80788 30.2689 2.41964 30.0586C2.11822 29.8952 1.99836 29.6705 1.99952 29.3189C2.01048 26.062 2.00599 22.805 2.00599 19.5481L2.01117 19.548Z" fill="#157CFF"/>
<path d="M37.6004 18.6786V27.3244C37.6004 27.4491 37.6046 27.5744 37.5955 27.6989C37.566 28.1039 37.2647 28.2778 36.9071 28.0778C35.9769 27.5579 35.0505 27.0313 34.128 26.4979C32.7437 25.6997 31.3683 24.8859 29.9775 24.0993C29.6412 23.9092 29.4998 23.6899 29.502 23.2929C29.5177 20.3543 29.5055 17.4157 29.5165 14.477C29.5179 14.1188 29.4114 13.8895 29.0926 13.7074C27.2122 12.6344 25.3412 11.5449 23.4668 10.4614C22.7408 10.0417 22.0162 9.61985 21.2865 9.20668C21.0632 9.08021 20.978 8.90655 20.9785 8.65206C20.9834 5.95171 20.979 3.25162 20.9821 0.550929C20.9827 0.0360833 21.2963 -0.139822 21.7422 0.117601C23.4111 1.08096 25.0791 2.04596 26.7462 3.01259C30.1904 5.00433 33.6363 6.99309 37.0839 8.97888C37.4705 9.20034 37.6134 9.45559 37.6109 9.89702C37.5939 12.8242 37.6021 15.7516 37.6021 18.6789L37.6004 18.6786Z" fill="#3A52DD"/>
<path d="M17.7587 18.4661C17.8561 18.3804 17.9596 18.3005 18.0501 18.2081C19.4378 16.791 20.8208 15.3693 22.2162 13.9598C22.3424 13.842 22.5053 13.7714 22.6776 13.7597C23.2534 13.7361 23.8307 13.7504 24.5132 13.7504C24.1345 14.1463 23.822 14.4769 23.5053 14.8032C22.2023 16.1453 20.8978 17.4856 19.5917 18.8241C19.41 19.0094 19.4022 19.132 19.5814 19.331C21.25 21.1843 22.9127 23.0429 24.5694 24.9068C24.6401 24.9859 24.7021 25.0729 24.8202 25.2221C24.1268 25.2221 23.5195 25.234 22.9134 25.2112C22.8044 25.2071 22.684 25.0755 22.5967 24.9779C21.0763 23.2812 19.5584 21.5823 18.0431 19.8812C17.9551 19.7826 17.864 19.6868 17.7039 19.5135C17.6758 19.6762 17.6561 19.8403 17.6449 20.0051C17.6424 21.6046 17.6356 23.2043 17.6524 24.8037C17.656 25.1453 17.5612 25.2778 17.212 25.2378C16.9636 25.2108 16.7129 25.2106 16.4644 25.2372C16.1234 25.2722 16.0164 25.1552 16.0191 24.8041C16.035 22.7622 16.0267 20.7201 16.0267 18.6781C16.0267 17.1693 16.0348 15.6604 16.0198 14.1517C16.0168 13.8384 16.1089 13.7195 16.4236 13.7462C16.6837 13.7703 16.9454 13.7704 17.2055 13.7466C17.546 13.7126 17.6565 13.8288 17.6511 14.1785C17.6312 15.4488 17.6417 16.7195 17.643 17.9901C17.643 18.1331 17.6583 18.2755 17.6665 18.4182L17.7587 18.4661Z" fill="#3C54DF"/>
</g>
<defs>
<clipPath id="clip0_568_792">
<rect width="35.6109" height="40" fill="white" transform="translate(2)"/>
</clipPath>
</defs>
</svg>
