<svg width="71" height="40" viewBox="0 0 71 40" fill="none" xmlns="http://www.w3.org/2000/svg">
<path d="M22.9033 10H25.9033V26.6H22.9033V10Z" fill="#989A9D"/>
<path d="M21.4033 10H24.4033V26.6H21.4033V10Z" fill="#006D96"/>
<path d="M21.4033 10H22.9033V26.6H21.4033V10Z" fill="#00ADEE"/>
<path d="M12.5635 21.37H2.91348C3.01399 22.158 3.40219 22.8809 4.00348 23.4C4.66234 23.9192 5.48537 24.1853 6.32348 24.15C6.86092 24.1637 7.3956 24.0689 7.89559 23.8713C8.39558 23.6738 8.8506 23.3774 9.23348 23L11.7635 24.19C11.1901 25.0396 10.4086 25.7282 9.49348 26.19C8.50926 26.6398 7.43524 26.8587 6.35348 26.83C5.50548 26.8545 4.66147 26.7048 3.87368 26.39C3.08588 26.0752 2.37107 25.6021 1.77348 25C1.19121 24.4219 0.733717 23.7304 0.429275 22.9685C0.124833 22.2065 -0.0200859 21.3902 0.00347683 20.57C-0.0246094 19.7283 0.117702 18.8896 0.421865 18.1043C0.726028 17.319 1.18577 16.6032 1.77348 16C2.34736 15.4107 3.03756 14.9473 3.80022 14.6391C4.56287 14.3309 5.3813 14.1848 6.20348 14.21C7.05227 14.1745 7.89923 14.3152 8.69094 14.6233C9.48265 14.9313 10.2019 15.4001 10.8035 16C11.4035 16.6377 11.8693 17.3894 12.1733 18.2105C12.4774 19.0316 12.6134 19.9053 12.5735 20.78L12.5635 21.37ZM9.55348 19C9.36007 18.3422 8.94715 17.7704 8.38348 17.38C7.79953 16.9652 7.09977 16.7447 6.38348 16.75C5.59318 16.7355 4.82008 16.9815 4.18348 17.45C3.66629 17.8595 3.2605 18.3925 3.00348 19H9.55348Z" fill="#00ADEE"/>
<path d="M15.3535 10.1H18.3535V14.52H20.1335V17.1H18.3635V26.49H15.3635V17.1H13.8135V14.52H15.3535V10.1Z" fill="#00ADEE"/>
<path d="M40.5635 21.37H30.9135C31.0288 22.1515 31.4275 22.8633 32.0335 23.37C32.6923 23.8892 33.5154 24.1553 34.3535 24.12C34.8855 24.135 35.4151 24.0436 35.9114 23.8513C36.4076 23.659 36.8605 23.3696 37.2435 23L39.7735 24.19C39.2001 25.0396 38.4186 25.7282 37.5035 26.19C36.5194 26.6402 35.4453 26.8591 34.3635 26.83C33.5155 26.8545 32.6715 26.7048 31.8837 26.39C31.0959 26.0752 30.3811 25.6021 29.7835 25C29.1994 24.4227 28.7401 23.7317 28.4339 22.9697C28.1277 22.2077 27.9812 21.3909 28.0035 20.57C27.9754 19.7283 28.1177 18.8896 28.4219 18.1043C28.726 17.319 29.1858 16.6032 29.7735 16C30.3474 15.4107 31.0376 14.9473 31.8002 14.6391C32.5629 14.3309 33.3813 14.1848 34.2035 14.21C35.0523 14.1745 35.8992 14.3152 36.6909 14.6233C37.4826 14.9313 38.2019 15.4001 38.8035 16C39.4035 16.6377 39.8693 17.3894 40.1733 18.2105C40.4774 19.0316 40.6134 19.9053 40.5735 20.78L40.5635 21.37ZM37.5635 19C37.3721 18.3385 36.959 17.7629 36.3935 17.37C35.8095 16.9552 35.1098 16.7347 34.3935 16.74C33.6032 16.7255 32.8301 16.9715 32.1935 17.44C31.6707 17.8504 31.2611 18.3873 31.0035 19H37.5635Z" fill="#989A9D"/>
<path d="M51.8334 14.52H54.8334V26.52H51.8334V25.22C51.3255 25.7274 50.729 26.1375 50.0734 26.43C49.4646 26.6806 48.8117 26.8064 48.1534 26.8C47.3971 26.8009 46.6493 26.6409 45.9597 26.3306C45.27 26.0202 44.6543 25.5667 44.1534 25C43.0221 23.7915 42.4146 22.1847 42.4634 20.53C42.3969 18.8673 42.9776 17.2435 44.0834 16C44.5824 15.4332 45.1985 14.9814 45.8891 14.6758C46.5796 14.3703 47.3283 14.2181 48.0834 14.23C48.771 14.2294 49.4515 14.3689 50.0834 14.64C50.7405 14.929 51.3349 15.3434 51.8334 15.86V14.52ZM48.6734 17C48.2389 16.9894 47.8073 17.0734 47.4084 17.246C47.0096 17.4187 46.653 17.676 46.3634 18C45.7389 18.6873 45.4087 19.592 45.4434 20.52C45.4287 21.4364 45.765 22.3236 46.3834 23C46.673 23.3241 47.0296 23.5813 47.4284 23.754C47.8273 23.9267 48.2589 24.0106 48.6934 24C49.1337 24.0105 49.5712 23.9266 49.9765 23.7542C50.3818 23.5817 50.7456 23.3246 51.0434 23C51.6778 22.3161 52.022 21.4127 52.0034 20.48C52.0114 19.5536 51.6518 18.6617 51.0034 18C50.7063 17.68 50.3455 17.4257 49.9442 17.2535C49.5429 17.0813 49.11 16.9949 48.6734 17Z" fill="#989A9D"/>
<path d="M60.8635 14.52V15.84C61.3669 15.3247 61.9643 14.9105 62.6235 14.62C63.2555 14.3491 63.936 14.2096 64.6235 14.21C65.3785 14.1988 66.127 14.3512 66.8175 14.6567C67.5079 14.9623 68.1241 15.4137 68.6235 15.98C69.7391 17.2229 70.3272 18.8511 70.2635 20.52C70.315 22.1781 69.7073 23.789 68.5735 25C68.0723 25.5661 67.4564 26.0193 66.7669 26.3296C66.0773 26.64 65.3297 26.8003 64.5735 26.8C63.9121 26.8055 63.2561 26.6798 62.6435 26.43C61.9841 26.1389 61.3841 25.7287 60.8735 25.22V30.87H57.8735V14.52H60.8635ZM64.0035 17C63.5636 16.9927 63.1271 17.078 62.7223 17.2503C62.3174 17.4225 61.9533 17.678 61.6535 18C61.3367 18.3382 61.0905 18.7361 60.9291 19.1704C60.7677 19.6048 60.6944 20.067 60.7135 20.53C60.6726 21.4806 61.0107 22.4085 61.6535 23.11C61.9618 23.4137 62.33 23.6497 62.7346 23.8029C63.1393 23.9562 63.5715 24.0233 64.0035 24C64.4391 24.0081 64.8715 23.923 65.2715 23.7506C65.6716 23.5781 66.0303 23.3222 66.3235 23C66.9614 22.3035 67.2991 21.3837 67.2635 20.44C67.2813 19.5406 66.9559 18.6682 66.3535 18C66.0566 17.6744 65.693 17.4166 65.2875 17.244C64.882 17.0715 64.4441 16.9882 64.0035 17Z" fill="#989A9D"/>
</svg>
