<svg width="40" height="40" viewBox="0 0 40 40" fill="none" xmlns="http://www.w3.org/2000/svg">
<path d="M25.3813 12.8645H26.6019L30.0792 9.38712L30.2503 7.91166C23.78 2.20097 13.9029 2.8163 8.19217 9.28652C6.60437 11.0839 5.45251 13.2216 4.82544 15.5354C5.21275 15.3761 5.64197 15.351 6.04605 15.4616L12.9991 14.3148C12.9991 14.3148 13.3529 13.7297 13.5357 13.7665C16.6291 10.3696 21.8351 9.97395 25.4064 12.8645H25.3813Z" fill="#EA4335"/>
<path d="M35.0319 15.5354C34.2322 12.5929 32.5924 9.94713 30.3105 7.9234L25.4314 12.8025C27.492 14.4858 28.6657 17.0226 28.6154 19.6835V20.5503C31.0147 20.5503 32.9579 22.4952 32.9579 24.8928C32.9579 27.2921 31.013 29.2354 28.6154 29.2354H19.9286L19.0618 30.114V35.3233L19.9286 36.1902H28.6154C33.595 36.2287 38.013 33.0012 39.4918 28.2462C40.9673 23.4895 39.1565 18.3254 35.0319 15.5354Z" fill="#4285F4"/>
<path d="M11.2301 36.1415H19.9168V29.1885H11.2301C10.6114 29.1885 9.9994 29.056 9.43604 28.7978L8.21543 29.175L4.71458 32.6524L4.40942 33.873C6.37279 35.3552 8.76873 36.1516 11.2301 36.1415Z" fill="#34A853"/>
<path d="M11.2302 13.5838C6.40476 13.6123 2.13096 16.7024 0.59179 21.2746C-0.947381 25.8469 0.58676 30.8936 4.41121 33.8345L9.44957 28.7961C7.26321 27.8086 6.29242 25.2366 7.27997 23.0502C8.26752 20.8638 10.8395 19.8931 13.0259 20.8806C13.9883 21.3165 14.7595 22.0878 15.1955 23.0502L20.2338 18.0119C18.0894 15.2102 14.7579 13.5721 11.2302 13.5838Z" fill="#FBBC05"/>
</svg>
