<svg width="62" height="40" viewBox="0 0 62 40" fill="none" xmlns="http://www.w3.org/2000/svg">
<path d="M4.59452 15.9726C4.51008 15.9726 4.42565 15.8881 4.51008 15.8037L5.10113 14.9593C5.18557 14.8749 5.27001 14.7905 5.43888 14.7905H16.0778C16.1623 14.7905 16.2467 14.8749 16.1623 14.9593L15.6556 15.7193C15.5712 15.8037 15.4868 15.8881 15.3179 15.8881L4.59452 15.9726ZM0.119411 18.6745C0.0349748 18.6745 -0.0494615 18.5901 0.0349745 18.5057L0.626027 17.6613C0.710463 17.5769 0.794899 17.4924 0.963771 17.4924H14.558C14.6424 17.4924 14.7268 17.5769 14.7268 17.6613L14.4735 18.5057C14.4735 18.5901 14.3047 18.6745 14.2202 18.6745H0.119411ZM7.29647 21.4609C7.21203 21.4609 7.1276 21.3765 7.21203 21.292L7.63421 20.5321C7.71865 20.4477 7.80309 20.3632 7.97196 20.3632H13.8825C13.9669 20.3632 14.0514 20.4477 14.0514 20.5321L13.9669 21.2076C13.9669 21.292 13.8825 21.3765 13.798 21.3765L7.29647 21.4609ZM38.2 15.3815L33.2183 16.6481C32.7961 16.7325 32.7117 16.8169 32.374 16.3103C31.9518 15.8037 31.614 15.466 30.9385 15.2127C29.081 14.2839 27.2234 14.5372 25.5346 15.6348C23.5082 16.9014 22.4949 18.8434 22.4949 21.292C22.4949 23.6563 24.1837 25.5983 26.5479 25.936C28.5743 26.1893 30.2631 25.5138 31.614 23.994C31.8673 23.6563 32.1207 23.3185 32.4584 22.8963H26.7167C26.1257 22.8963 25.9568 22.4741 26.1257 21.9675C26.5479 21.0387 27.2234 19.5189 27.6455 18.759C27.73 18.5901 27.9833 18.2523 28.4055 18.2523H39.2133C39.1288 19.0967 39.1288 19.8566 39.0444 20.701C38.7067 22.8119 37.9467 24.8384 36.5958 26.5271C34.4849 29.3135 31.6985 31.0866 28.1522 31.5932C25.1969 32.0154 22.495 31.4244 20.1307 29.6512C17.9354 27.9625 16.6689 25.7671 16.3311 23.0652C15.9089 19.8566 16.9222 16.9014 18.8642 14.3683C20.9751 11.5819 23.7615 9.80875 27.2234 9.2177C30.0098 8.71108 32.7117 9.04882 35.0759 10.6531C36.6802 11.6663 37.7779 13.1018 38.5378 14.8749C38.6222 15.2127 38.5378 15.2971 38.2 15.3815Z" fill="#00ACD7"/>
<path d="M47.9945 31.8465C45.2926 31.7621 42.8439 31.0022 40.733 29.229C38.9599 27.7092 37.8622 25.7672 37.5244 23.4874C37.0178 20.1099 37.9466 17.1547 39.9731 14.5372C42.1684 11.6663 44.7859 10.2309 48.3323 9.55545C51.372 9.04883 54.2428 9.30214 56.7759 11.0753C59.1401 12.6796 60.5755 14.8749 60.9977 17.7457C61.5043 21.7987 60.3222 25.0072 57.6202 27.7936C55.6782 29.8201 53.2295 31.0022 50.5276 31.5932C49.5988 31.7621 48.7544 31.7621 47.9945 31.8465ZM55.0871 19.8566C55.0871 19.4345 55.0871 19.1812 55.0027 18.8434C54.4961 15.8881 51.7941 14.1994 48.9233 14.8749C46.1369 15.466 44.3638 17.2391 43.6883 20.0255C43.1817 22.3053 44.2793 24.6695 46.3902 25.6827C47.9945 26.3582 49.6832 26.2738 51.2031 25.5138C53.6517 24.3317 54.9183 22.3897 55.0871 19.8566Z" fill="#00ACD7"/>
</svg>
