<svg width="40" height="40" viewBox="0 0 40 40" fill="none" xmlns="http://www.w3.org/2000/svg">
<path d="M14.6834 11.5811L12.0338 12.0114L9.61665 13.0712L7.56368 14.3627L5.60993 16.7467L4.50634 17.9158L3.43884 18.3092L3.15665 17.6192L3.65024 16.9069L3.76118 15.9022L4.09165 15.9156L4.4529 16.2452L4.3554 15.2217L3.95493 14.953L3.96743 14.563L3.01884 15.0995L2.15993 16.113L1.98071 17.0186L2.34821 17.7439L2.69071 18.9759L3.38743 19.3058L4.12024 19.2698L4.81524 18.8661L4.35165 21.2172L4.81524 23.8331L4.30493 25.0409L2.63337 26.842L2.93056 27.918L3.72243 29.1647L5.2154 30.2152L6.00728 30.3237L6.88774 30.3534L6.33837 32.6086L8.35837 33.4362L10.8749 33.7675L11.7359 33.2047L11.8021 31.6812L12.7626 30.0917L12.8288 28.8334L15.1468 28.9991L17.2992 28.8005L15.1468 30.0917L15.5112 31.6483L16.8687 33.7675L18.1932 34.3303L19.2529 33.8998L19.6832 33.0389L21.902 31.3501L22.3324 31.7142L25.8095 31.8469L26.5048 31.2841L26.5709 30.2903L26.3393 29.8601L26.1735 27.1778L25.0146 24.8598L25.2134 23.8333L25.9087 24.1977L27.8624 26.0187L28.8227 26.0851L29.8823 25.6545L30.9421 24.8598L31.4718 23.138L34.5846 23.3366L36.4721 22.6083L37.9952 21.1842L39.0881 19.1311L39.3527 16.7139L39.121 13.8991L38.5251 11.3827L37.929 10.588L37.1013 10.323L35.6442 11.9123L34.3196 12.3759L33.1606 10.4553L32.0017 9.39578L31.3724 8.99843L28.8557 6.91218L26.8359 5.81937L24.8159 5.6539L22.4649 6.05124L20.4118 6.81265L18.9879 7.97171L17.8621 9.32952L16.7032 9.66078L14.6831 11.5812" fill="#FFFF00"/>
<path d="M6.9999 17.5575C4.73084 20.2042 5.2349 23.4139 5.86381 26.5591C5.52826 25.7111 5.19264 24.8632 4.85693 24.0153L4.48584 21.683C4.52115 20.888 4.55631 20.093 4.59193 19.2981L5.54568 17.0192L6.97662 14.8992L9.20256 13.0445L11.6404 12.0375L14.5024 11.6666L11.8524 14.6873C9.72459 15.3773 8.47006 15.8423 6.99975 17.5575" fill="#FFFFCC"/>
<path d="M17.6824 9.49345C16.105 11.0325 15.2433 12.1935 14.2393 13.9955C13.5213 15.2845 12.7158 16.5263 11.9607 17.7974C11.579 18.4408 11.5429 18.9802 11.4286 19.7222L10.3157 18.3972C10.4925 17.8672 10.6691 17.3372 10.8457 16.8074L12.6477 13.5745L16.4636 9.81158C16.8699 9.70548 17.2761 9.5997 17.6824 9.49345ZM25.4732 5.67783C24.2096 6.15142 22.1115 6.30751 21.9658 7.75751C21.8622 8.78751 22.0435 9.30501 22.6643 10.3947C21.131 8.80798 20.7518 9.05345 17.7885 9.54658L19.0604 7.7447L21.2863 6.36658L24.1483 5.73064L25.4732 5.67783Z" fill="#FFFFCC"/>
<path d="M28.9595 25.2934C29.3801 25.5531 29.371 25.7412 29.3007 25.9192C29.6324 25.7864 29.9643 25.6536 30.296 25.5212L30.941 24.6552L31.4196 23.4214L30.8079 22.9616L28.1345 23.3028C28.0685 23.4828 28.002 23.663 27.9356 23.8433C27.9545 24.0991 27.9737 24.3552 27.9924 24.6109C28.0777 24.7628 28.1632 24.9144 28.2487 25.0661C28.3813 25.1323 28.5138 25.1989 28.6466 25.2652C28.7512 25.2745 28.8552 25.2842 28.9595 25.2934ZM28.7107 20.7217C27.3706 21.1084 27.381 21.215 26.9854 22.5445C27.5077 21.7064 27.8945 21.2834 28.7107 20.7217ZM37.6207 10.7731C37.3826 10.8833 37.1504 10.9361 37.0016 11.1541C36.681 11.6231 36.4063 12.0177 35.8762 12.3469C35.6091 12.5128 35.3331 12.6203 35.0499 12.7086C34.8151 12.7816 34.6738 12.7163 34.474 12.8602C34.5927 12.8805 34.7113 12.9014 34.8299 12.9222H35.6143L36.5813 12.3252L37.1501 11.7278L37.6207 10.7731ZM16.2751 13.7469C15.7481 15.1895 15.2873 16.4261 14.4888 17.732C15.512 16.6295 16.1324 15.6923 16.7185 14.4459C16.9463 13.9616 16.9893 13.3934 17.6235 13.6047C17.652 14.0884 17.7542 14.5716 17.7826 15.055C18.1252 12.5991 19.0915 11.5717 21.3376 10.6184L19.4321 10.8461L17.6402 11.2442L16.7587 12.5239L16.2751 13.7469ZM20.6265 13.69C21.1109 15.9697 21.8084 18.1578 22.1113 20.4737C22.3081 21.9786 22.3295 22.7016 21.5724 24C20.7449 23.9464 20.2312 24.0397 19.4307 24.302C16.2443 25.3466 14.4167 26.8825 12.2698 23.7878L14.326 24.7569C14.8146 24.6608 15.3032 24.565 15.7917 24.4686C16.6545 23.9664 17.5171 23.4639 18.3799 22.9616L20.399 22.5631L21.0532 19.8333L20.5696 16.2213C20.5509 15.6525 20.5318 15.0838 20.5127 14.515C20.5509 14.24 20.5888 13.9648 20.6265 13.69ZM26.1154 27.7962C25.8477 29.6484 26.7318 30.6441 26.3657 31.1556C26.2621 31.3003 26.1217 31.5531 25.9649 31.6225C25.4048 31.8698 24.6346 31.5761 24.5798 31.7209H22.7312L21.9918 31.4081L23.1293 30.0714C23.499 29.2658 23.8688 28.4598 24.2384 27.6539L24.9493 25.2083H25.3192L26.1154 27.7962Z" fill="#CCCC00"/>
<path d="M23.0085 22.4117C23.1586 23.2527 23.4194 23.4525 23.815 24.2666C23.5517 25.5947 23.1288 27.1739 22.6197 28.3458C22.405 28.84 22.2319 29.1125 21.8531 29.4944C21.2141 30.1397 20.5683 30.7016 19.8438 31.2609C19.3219 31.663 18.9578 31.4614 18.3142 31.3703C18.0405 31.8664 17.965 32.1422 17.4611 32.3941C16.6864 32.7813 15.9931 31.9467 15.385 31.4555C15.8241 32.1414 16.2631 32.8269 16.7019 33.5127C17.0053 33.797 17.3088 34.0813 17.6121 34.3658L18.38 34.4797L19.4036 33.8538C19.5839 33.5127 19.7639 33.1713 19.9441 32.8302C20.3233 32.5458 20.7027 32.2614 21.0816 31.9767C21.5463 31.5788 22.0108 31.1805 22.4753 30.7824L23.3569 29.5309L24.153 28.0522C24.4946 27.0284 24.8358 26.0045 25.1772 24.9808C25.2055 24.592 25.2338 24.2035 25.2624 23.8145C24.8358 23.6252 24.4092 23.4353 23.9825 23.2458C23.6697 22.952 23.3213 22.7056 23.0085 22.4117ZM12.8056 28.3366C14.241 28.3366 15.7569 28.2569 17.0717 27.6539C17.4436 27.0961 17.811 26.6402 18.2661 26.1469C17.8519 26.9294 17.7219 27.3716 17.6121 28.2513L17.1855 28.877C16.1047 28.9053 15.0241 28.9338 13.9433 28.9624C13.5924 28.9242 13.2417 28.8864 12.891 28.8486C12.853 28.8103 12.8152 28.7725 12.7772 28.7347C12.7869 28.6019 12.7963 28.4692 12.8056 28.3366ZM12.6067 27.3413L12.4952 26.3313C12.25 27.8075 12.3089 28.7969 11.6296 30.1192C11.1221 30.707 10.4972 31.242 9.78158 31.5284C9.84205 31.8909 9.86018 32.1175 9.82502 32.3833C9.69893 33.3395 7.78643 32.917 6.99955 32.8789L10.7864 33.8539L11.6396 33.5127C11.7346 32.963 11.8294 32.4128 11.9241 31.8631L12.7203 30.3844L12.8625 29.4742L12.6066 27.3414M10.4735 19.0083C10.4339 19.7263 10.3875 20.0255 10.7041 20.6592C11.1064 21.4649 11.6005 22.222 12.0377 23.0183L12.1799 21.4256C11.6113 20.6197 11.0424 19.8141 10.4736 19.0085M4.63549 24.4303C4.51221 24.6922 4.3894 24.9544 4.26612 25.2164C4.60487 26.3578 4.90627 27.0808 5.55143 28.0778C5.43893 28.4817 5.35487 28.6584 5.09643 28.9877C4.52862 28.9005 4.0244 28.8752 3.44893 28.877C4.08408 29.3697 4.71924 29.863 5.3544 30.3559C5.66721 30.2988 5.98018 30.2419 6.29299 30.1852L7.23158 29.2467L5.89487 27.1705C5.47487 26.2572 5.05518 25.3436 4.63549 24.4303ZM37.6249 10.3956C38.0117 12.1358 38.5108 13.7419 38.4644 15.5244C38.4075 17.7111 37.9814 20.4735 35.9552 21.792C33.6861 23.2689 31.0224 22.5703 28.5328 21.9375L31.576 23.1889C32.5239 23.2364 33.4721 23.2839 34.42 23.3311C35.0647 23.1416 35.7094 22.952 36.3538 22.7624C36.8563 22.3452 37.3588 21.9283 37.8613 21.5109L38.9988 19.1222L39.4253 16.3635C39.3117 15.4627 39.1977 14.5622 39.0841 13.6616L38.4585 10.9883C38.1806 10.7906 37.9028 10.593 37.6249 10.3956ZM3.76268 15.5825C2.73268 16.253 2.32799 16.5474 2.44096 17.79L2.74877 18.9064L3.18518 19.2017L3.72424 19.3814L4.69955 19.1503C4.86658 18.6327 5.0333 18.1152 5.20002 17.5975L3.81408 18.2778H3.4933C3.37357 18.0938 3.25377 17.9099 3.13393 17.726L3.57033 17.0842L3.80127 15.865C3.89971 15.8949 3.99815 15.925 4.09643 15.9547C4.21627 16.0491 4.33596 16.1431 4.4558 16.237L4.4044 15.5955L4.16065 15.1849C4.0794 15.1161 3.99815 15.048 3.9169 14.9794L3.76268 15.5825ZM26.8736 5.79111C27.788 6.64017 28.91 7.37798 29.6413 8.41548C29.9242 8.81704 30.2386 9.02251 29.6366 9.58986C30.2727 9.40814 30.5092 9.42783 31.0186 9.48954C31.9452 9.60173 32.8136 10.9189 32.8689 11.8627C32.858 11.951 32.6116 12.1514 31.8952 12.3492C31.8811 12.3767 31.4908 12.2958 31.5005 12.3224C31.575 12.526 31.6744 12.5572 31.8264 12.6524C31.8592 12.8789 31.8805 13.2284 32.0349 13.4763C32.4856 13.4681 32.9263 13.5174 33.3677 13.6047C33.5161 13.8511 33.4939 14.0975 33.4814 14.3441L33.9933 14.2589C33.9461 13.8702 33.8986 13.4816 33.8513 13.0928C34.0028 12.8369 34.1544 12.5808 34.3063 12.3252L33.6521 10.8461C33.235 10.448 32.818 10.0497 32.4006 9.65158L32.2803 9.64564C31.8112 9.35776 31.3421 9.06984 30.873 8.78189L28.5777 6.90408L26.8736 5.79111ZM28.4138 12.7985C28.3655 12.8828 28.2927 13.0175 28.1994 13.111C28.5802 13.4711 28.7681 13.7124 28.9039 14.2219C28.4733 14.4355 28.043 14.6494 27.6125 14.8628L26.5197 15.9105C26.0402 15.6524 25.9208 15.4542 25.6888 14.962C25.4185 15.0338 25.1627 15.1027 24.9396 15.0206C25.0811 15.0217 25.168 14.9864 25.3096 14.8989L26.0049 14.1766C26.4142 13.8666 26.8236 13.5563 27.233 13.2464L28.0369 12.9844C28.1392 12.9424 28.3114 12.8406 28.4138 12.7985Z" fill="#CCCC00"/>
<path d="M29.6021 14.0831C28.2324 14.8206 26.9208 15.5622 26.2205 16.9627C26.2205 15.185 28.0054 14.4025 29.6019 14.083M25.9486 10.5861C24.9316 11.2795 24.2126 12.6789 24.3029 14.0427C23.9716 12.8617 24.089 11.7459 25.106 10.9303C25.2779 10.847 25.4493 10.7634 25.621 10.6802C25.7302 10.6489 25.8393 10.6177 25.9486 10.5861Z" fill="#CCCC00"/>
<path d="M39.634 13.8058C39.4497 12.6428 39.1439 11.5139 38.7195 10.7022C38.6679 10.603 38.5895 10.5023 38.4923 10.4064C38.2815 10.1986 37.9695 10.0017 37.6472 9.89094C37.3056 9.77344 36.9454 9.74953 36.6595 9.89891C36.5853 9.93797 36.5162 9.98797 36.4548 10.0505C36.2697 10.238 36.1134 10.4661 35.957 10.6944C35.7831 10.9488 35.6081 11.2044 35.3987 11.383C35.1561 11.5905 34.8525 11.7164 34.5661 11.8314C34.4455 11.539 34.3006 11.2572 34.1328 10.9891C33.937 10.6769 33.714 10.3845 33.4687 10.0922C33.2893 9.87686 33.0858 9.68274 32.8623 9.5136C32.6507 9.35219 32.4342 9.21625 32.182 9.05844C31.5059 8.635 30.9301 8.13 30.3429 7.61469C30.0761 7.38063 29.8065 7.14438 29.5429 6.92703C28.1445 5.77391 26.8401 5.21469 25.4451 5.12703C24.0597 5.03985 22.5967 5.42047 20.8693 6.14766C20.0356 6.49844 19.4165 6.91313 18.8772 7.41172C18.362 7.88828 17.9247 8.43703 17.4439 9.07781C17.1642 9.09766 16.9164 9.13906 16.6634 9.24031C16.3847 9.35188 16.104 9.5325 15.7678 9.82922C15.5337 10.0357 15.3045 10.2476 15.0803 10.4647C14.8749 10.664 14.673 10.867 14.475 11.0736C12.9025 11.3263 11.6212 11.6052 10.4737 12.0495C9.30028 12.5042 8.26591 13.1295 7.20356 14.0714C6.78526 14.4409 6.40393 14.8503 6.06497 15.2938C5.74184 15.717 5.46528 16.162 5.22262 16.6313C5.01012 16.8664 4.79716 17.1038 4.56669 17.3114C4.342 17.5138 4.10247 17.6842 3.83403 17.7875L3.83419 17.7877C3.67809 17.8478 3.61356 17.883 3.60653 17.8806C3.59872 17.8763 3.59434 17.8528 3.58341 17.8097C3.96887 17.4419 4.0295 16.9014 4.06512 16.3648C4.11137 16.4202 4.15575 16.4883 4.20184 16.5595C4.25278 16.6381 4.30497 16.7192 4.36747 16.7981L4.62919 17.1283L4.72106 16.7164C4.79825 16.3713 4.85606 15.9117 4.76606 15.5133C4.70794 15.2547 4.58794 15.0242 4.37887 14.8609C4.39887 14.8088 4.41778 14.7606 4.43637 14.7131C4.502 14.5452 4.56966 14.3728 4.627 14.21L4.74044 13.8873L4.40294 13.9458C3.95387 14.0239 2.98887 14.5542 2.30919 15.2594C2.05684 15.5214 1.83981 15.8109 1.69747 16.1147C1.54934 16.4308 1.48294 16.7616 1.54044 17.0925C1.59044 17.3819 1.73528 17.6659 1.99825 17.9338C2.04622 18.127 2.09044 18.2947 2.13778 18.4459C2.192 18.618 2.25028 18.7719 2.32325 18.9234C2.52106 19.3347 2.83638 19.5859 3.20138 19.7031C3.49466 19.7973 3.81903 19.802 4.13716 19.7323C4.07256 20.1113 4.03362 20.4942 4.02059 20.8784C4.00044 21.4152 4.02012 22.0081 4.07919 22.6963C4.09216 22.8473 4.11169 23.0134 4.13684 23.1941C4.15872 23.3481 4.18466 23.4994 4.21262 23.6495C4.15325 23.8117 4.09341 23.9742 4.03372 24.1364L3.75606 24.8922L3.14512 25.4977C2.95497 25.6856 2.76481 25.8741 2.57481 26.0623C2.55919 26.078 2.49497 26.1395 2.43684 26.1956C2.05169 26.5663 1.97544 26.6398 2.08481 27.292C2.15488 27.7094 2.29112 28.1129 2.48841 28.4873C2.67747 28.8475 2.93122 29.1981 3.25684 29.5247C3.66309 29.9319 4.32903 30.4378 5.02622 30.7028C5.42466 30.8541 5.83528 30.9281 6.22075 30.8663C6.20106 30.9256 6.182 30.9847 6.16028 31.0444C6.09928 31.2136 6.03151 31.3803 5.95716 31.5441C5.48419 32.5808 5.96966 33.1222 6.72528 33.4667C7.10262 33.6386 7.55122 33.7555 7.96794 33.8642C8.05325 33.8861 8.13856 33.9086 8.24606 33.9377C8.73981 34.0711 9.59309 34.3163 10.3725 34.3655C11.2231 34.4192 11.9903 34.2436 12.1959 33.4802C12.2772 33.1775 12.3245 32.9458 12.3437 32.7188C12.3614 32.5081 12.3547 32.2953 12.33 32.0319C12.5725 31.4944 12.6753 31.3433 12.8526 31.0841C12.8873 31.0328 12.9293 30.9716 12.942 30.9522C13.1322 30.6705 13.2212 30.4705 13.2536 30.2453C13.2848 30.028 13.2582 29.8114 13.219 29.4805C13.2153 29.4491 13.2097 29.4031 13.2014 29.3423C13.6912 29.4059 14.1844 29.4398 14.6782 29.4436C14.9261 29.4452 15.1737 29.4378 15.4214 29.4248C15.3581 29.4572 15.2961 29.4894 15.2282 29.5242L15.1361 29.5716C14.4792 29.9094 14.4518 30.5492 14.6575 31.2075C14.8428 31.8011 15.2243 32.4072 15.4637 32.7758C15.9668 33.5513 16.447 34.2077 17.0292 34.5644C17.6393 34.9383 18.3365 34.9823 19.2364 34.4953C19.6942 34.2475 19.8386 33.9948 20.0329 33.6542C20.0925 33.5503 20.1581 33.437 20.2312 33.3253C20.4203 33.2 20.8911 32.8117 21.3531 32.4297C21.5104 32.2997 21.6676 32.1703 21.845 32.0258C21.9672 32.1156 22.1147 32.178 22.2929 32.2205C22.5245 32.2759 22.8003 32.3009 23.1307 32.3247C23.3781 32.3428 24.1847 32.3422 24.7057 32.342C24.8667 32.342 25.0003 32.342 25.0804 32.3425C25.6184 32.3458 26.0526 32.3175 26.3807 32.1316C26.7304 31.9333 26.9378 31.5822 26.9831 30.9525C27.0028 30.6728 27.0065 30.5003 26.9676 30.3242C26.9314 30.1592 26.8606 30.0097 26.739 29.7909C26.7317 29.5188 26.7244 29.2467 26.7172 28.9745C26.7097 28.6859 26.7015 28.397 26.694 28.1084C26.6848 27.7681 26.6473 27.4916 26.5782 27.2195C26.5098 26.9494 26.412 26.6895 26.2811 26.3777C26.1996 26.1812 26.1226 25.9829 26.0501 25.783L25.8614 25.852L25.8904 25.8414L26.0501 25.783V25.7822C25.9376 25.4788 25.8267 25.1833 25.6714 24.8672C25.6814 24.8063 25.6915 24.7406 25.7014 24.6706L26.0014 24.9597L26.4436 25.3858C26.7807 25.7106 27.089 26.0061 27.4512 26.2195C27.8257 26.4406 28.2468 26.5689 28.7922 26.543C29.3631 26.5161 29.974 26.2756 30.477 25.9045C30.9636 25.5453 31.354 25.0609 31.517 24.5248L31.6582 24.0598L31.7711 23.6888C32.5717 23.8244 33.4311 23.8681 34.2611 23.7813C35.062 23.697 35.8357 23.4931 36.5031 23.1372C37.484 22.6138 38.2195 21.8428 38.7481 20.9273H38.7484C39.339 19.9042 39.6698 18.6986 39.7954 17.458C39.8962 16.463 39.8412 15.1103 39.634 13.8058ZM29.2611 22.168C28.7997 22.0127 28.4789 21.7861 28.0736 21.5306C28.1839 22.028 28.234 22.5539 28.0872 23.0503C27.854 23.8381 27.4775 25.1269 28.547 25.3647C28.954 25.455 29.1387 25.442 29.7132 25.1455C29.2482 25.2508 29.0137 25.2252 28.694 25.1658C28.4043 25.1125 28.2507 24.9286 28.1698 24.7116C28.2711 24.7845 28.4361 24.8242 28.7182 24.8922C29.5111 25.0834 30.2665 24.7016 30.4143 24.1519C30.5003 23.8306 30.4857 23.6619 30.6684 23.2241C30.8325 23.2748 31.002 23.3209 31.1761 23.3631L30.8814 24.3239C30.6267 25.1552 29.6337 25.8255 28.7572 25.81C27.9468 25.7958 27.4329 25.2881 26.8734 24.7905C26.4881 24.4473 26.1172 24.1194 25.7497 23.7944C24.7411 23.4761 23.9326 23.1042 22.9965 22.4113C23.6628 23.1941 24.1145 23.6275 25.0436 24.017C24.9086 25.3952 24.4295 26.4002 24.0212 27.7191C23.8362 28.3153 22.3773 30.7052 21.9729 30.9381C21.6847 31.1042 19.8787 32.6252 19.5392 32.8259C19.2861 33.1619 19.064 33.6263 18.6836 33.8272C17.5245 34.4402 16.7797 33.2666 16.1559 32.2755C15.872 31.8239 15.0832 30.5233 15.7707 30.1589C16.4207 29.8147 16.7848 29.5688 17.4481 29.1331C17.5456 29.3108 17.7126 29.4823 17.8215 29.6597L17.7493 29.0775C17.7056 28.7259 17.7075 28.4405 17.7353 28.0867C17.7625 27.7442 17.7893 27.4017 17.8162 27.0591C17.7164 27.4073 17.517 27.7555 17.4175 28.1034C17.3776 28.2428 17.3447 28.3553 17.3256 28.4597C15.8375 28.7638 14.3601 28.7827 12.8717 28.5172C12.7767 27.9661 12.6611 27.3919 12.564 26.9802C12.5347 27.4411 12.5536 28.7158 12.5512 29.4295C12.5493 29.9823 12.5262 30.1717 12.2409 30.642C11.974 31.0823 11.8611 31.1823 11.4872 31.9264C11.5184 32.3959 11.5189 32.7061 11.3942 33.1517C11.1868 33.8925 9.09419 33.3186 8.54231 33.1673C7.86247 32.9814 6.45716 32.7048 6.81059 31.7986C7.12153 31.0011 7.31872 30.1602 7.47075 29.0442C6.22528 27.25 5.06716 24.7914 4.84481 22.613C4.67216 20.9216 4.77575 19.8805 5.14169 18.8458C5.72169 17.2064 6.53325 15.7873 7.83512 14.6447C9.59137 13.1036 11.2329 12.4848 13.8036 12.0934C13.1854 12.7856 12.5739 13.5172 11.9073 14.3017C11.2325 15.0959 10.8317 15.8981 10.4031 16.767C9.81122 17.9669 9.82403 18.4234 10.6086 19.4769C11.2847 20.3847 11.6497 20.7933 11.945 21.6816C11.7012 22.1841 11.6125 22.6089 11.5306 23.295C12.3584 24.2002 12.9737 24.8202 13.7775 25.0111C14.5661 25.1986 15.2243 25.1623 15.93 24.8017C17.4967 24.0008 18.9464 22.9664 20.7137 22.9236C21.5314 20.9136 21.4487 19.2339 21.0562 17.2891C20.7881 15.9608 20.6804 14.7031 20.5972 13.3491C20.2657 14.7436 20.2034 15.9698 20.4493 17.3591C20.7459 19.033 20.9764 20.8825 20.1517 22.3538C18.5534 22.4761 17.1839 23.4484 15.7436 24.1944C15.1645 24.4944 14.5617 24.5236 13.9209 24.3477C13.3261 24.1842 12.9247 23.7906 12.2839 23.0516C12.2737 22.3095 12.4412 21.9672 12.782 21.295C13.3295 20.2158 13.9337 19.2113 14.5968 18.1495C13.785 19.1295 13.0156 19.9484 12.3765 20.9339C12.1322 20.238 11.7828 19.8845 11.2042 19.1008C10.639 18.3353 10.58 18.0003 11.0026 17.1144C11.4275 16.2242 11.7878 15.4419 12.5111 14.6609C13.7606 13.3114 14.9054 11.8095 16.272 10.4805C17.014 9.75891 17.3153 9.78375 18.2995 9.63469C19.1892 9.49969 20.0576 9.32953 20.9648 9.11891C20.0875 9.20063 19.2393 9.23063 18.3851 9.25172L18.3586 9.2525C19.1992 8.17922 19.6868 7.5811 21.0517 6.98797C24.4123 5.5286 26.5476 5.37078 29.1875 7.58969C29.8717 8.165 30.4692 8.72328 31.1628 9.21938C30.9112 9.24094 30.6945 9.2861 30.4078 9.3986C30.7567 9.33203 31.1597 9.39797 31.5218 9.46422C31.6234 9.53016 31.7281 9.59453 31.8348 9.6575C32.3247 9.9461 32.6026 10.1055 32.9339 10.5669C33.2839 11.0545 33.5757 11.5419 33.8328 12.0791C33.6643 12.0188 33.5229 11.968 33.397 11.9306C33.2566 11.8662 33.1024 11.8375 32.9482 11.8471C32.794 11.8566 32.6445 11.9041 32.5131 11.9853L32.4928 11.9947C32.2218 12.1267 31.8022 12.277 31.5214 12.3227C31.6647 12.372 31.9815 12.3906 32.1309 12.3314C32.1509 12.3236 32.1712 12.3173 32.1922 12.3125C32.1229 12.4304 32.0802 12.562 32.0672 12.6981C32.0497 12.8778 32.0844 13.0588 32.1673 13.2192L32.1681 13.2209C32.1934 13.2806 32.2287 13.3355 32.2675 13.3752C32.1392 13.4225 32.0081 13.4766 31.8729 13.5352C32.4993 13.4398 33.064 13.4234 33.6751 13.5039C33.7154 13.6966 33.7561 13.9008 33.7939 14.1084L33.5667 14.1263C33.5606 14.1267 33.5545 14.1272 33.5484 14.1278C33.2592 13.8967 32.937 13.9356 32.4968 14.0361C31.1581 14.3413 31.4726 15.0923 30.857 16.2242C31.4964 15.4427 31.4489 14.6248 32.4909 14.378C32.7337 14.3206 32.899 14.2486 33.0634 14.2733C32.7676 14.422 32.5118 14.6688 32.4103 14.9552C32.1243 15.7628 32.3018 16.4433 31.9876 17.1977C32.3767 16.5233 32.4003 15.8652 32.7484 15.1555C32.8734 14.9008 33.3372 14.493 33.6218 14.4867L33.8562 14.4816C33.925 14.9303 33.9667 15.3761 33.9401 15.7458C33.8915 16.4205 33.7162 17.4219 33.6114 17.8052C33.9639 17.3519 34.1245 16.392 34.2793 15.7161C34.4406 15.0127 34.3998 14.1684 34.2587 13.4125C34.065 12.3755 35.1331 12.5442 35.7531 12.0555C36.2089 11.6961 36.5228 11.1225 36.9406 10.7159C37.3551 10.3128 38.0078 10.9052 38.1707 11.2991C38.8776 13.0095 39.1997 15.7003 39.0131 17.4245C38.8034 19.3592 37.869 21.4713 36.1626 22.4238C33.9873 23.6378 31.4225 22.8961 29.2611 22.168ZM26.1701 30.7608C26.0992 31.5591 25.8331 31.6117 25.1322 31.5995C24.8137 31.5939 23.5456 31.5881 23.2237 31.5605C22.769 31.5213 22.5137 31.4806 22.3748 31.3769C23.0892 30.8525 24.3029 28.6875 24.5397 27.942C24.79 27.1545 25.0639 26.4673 25.2676 25.7395C25.3614 26.0438 25.4353 26.3452 25.5717 26.6683C25.7993 27.2083 25.9107 27.5419 25.927 28.1211L25.9786 29.9544C26.1743 30.2969 26.2048 30.37 26.1701 30.7606V30.7608ZM4.67122 24.7136C5.12481 26.2828 5.89762 27.8248 6.75434 29.1213V29.1439C6.70044 29.3669 6.63841 29.5838 6.50825 29.758C5.89575 30.5773 4.33825 29.3747 3.88731 28.9147C3.3945 28.4113 3.06466 27.8155 2.98606 27.2564C2.92888 26.8489 2.9845 26.8389 3.26887 26.5505L4.41919 25.3859L4.67122 24.7136ZM3.80481 14.8448C3.68856 15.0944 3.60606 15.2836 3.54997 15.4783C3.30575 16.3217 3.66044 17.0745 2.89466 17.6859C3.2545 18.4119 3.23794 18.7016 4.07497 18.3661C4.39778 18.2364 4.66403 18.0552 4.90184 17.8405C4.78673 18.1395 4.68089 18.4421 4.5845 18.7477C4.56794 18.7992 4.55216 18.8513 4.537 18.9028C3.93841 19.1569 3.15106 19.3183 2.84981 18.6892C2.70356 18.3838 2.62091 18.0841 2.51419 17.6981C1.52841 16.6769 3.002 15.3284 3.80481 14.8448ZM4.28934 15.9267C4.16762 15.8048 4.07028 15.7225 3.91294 15.7403C3.92622 15.6372 3.94387 15.5377 3.96872 15.4442C3.98122 15.3961 3.99466 15.3489 4.00903 15.3016C4.21309 15.4205 4.26684 15.6361 4.28934 15.9267ZM33.8484 12.112C33.8856 12.1905 33.9222 12.2703 33.9581 12.3511C33.9284 12.373 33.9001 12.3959 33.8737 12.4202C33.8252 12.3068 33.7551 12.204 33.6673 12.1173C33.7261 12.1152 33.7864 12.1133 33.8486 12.112H33.8484ZM25.4622 24.8973H25.4625L25.4623 24.8975L25.4622 24.8973ZM0.42825 17.7298C0.585125 15.9538 0.930438 15.1869 2.19231 13.8502C0.6095 14.9655 0.2145 15.4725 0.42825 17.7298Z" fill="black"/>
<path d="M0.0199475 16.2791C0.194166 15.4797 0.356666 15.178 0.849635 14.5219C0.0497913 15.0805 -0.0542713 15.3098 0.0197912 16.2791M18.5903 5.13547C17.642 5.36406 17.4612 5.53937 17.1768 6.46891C17.6306 5.78828 17.8918 5.56687 18.5903 5.13547Z" fill="black"/>
<path d="M20.0857 5.00016C18.2049 5.46109 17.6523 5.78891 17.0276 7.96875C17.8217 6.37219 18.4229 5.78437 20.0857 5M24.1363 12.9464C24.3368 12.0583 24.6931 11.2025 26.0723 10.5403C24.2442 10.9981 23.9013 11.7659 24.1363 12.9464ZM35.7688 13.0078C36.8515 12.6219 37.3734 11.7514 37.6326 10.7273C37.2089 11.5856 36.5549 12.3034 35.6667 12.7431C35.1899 12.9791 34.8854 12.8967 34.3531 12.8462C34.8945 13.0017 35.2374 13.1972 35.7688 13.0078ZM28.3935 13.8781C28.2547 13.587 28.0071 13.3621 27.704 13.2517C27.9696 13.11 28.2304 12.9611 28.4338 12.7759C27.8378 13.0519 27.1438 12.9845 26.6323 13.33C26.1818 13.6344 25.5599 14.5987 25.1021 15.0077C25.4337 14.8789 25.7532 14.6562 26.0474 14.4217C26.0491 14.6445 26.1113 14.8626 26.2276 15.0526C26.3439 15.2427 26.5097 15.3974 26.7073 15.5003C26.538 15.722 26.4033 15.968 26.3076 16.23C27.1793 15.1969 28.4432 14.4166 29.6317 14.083C29.2995 14.0783 28.9062 14.1403 28.5056 14.272C28.4906 14.1354 28.4527 14.0022 28.3935 13.8781ZM27.1393 21.6847C27.097 21.9522 27.0388 22.2847 26.9965 22.5523C27.1098 22.2495 27.246 21.8977 27.3778 21.6089C27.5174 21.3033 27.596 21.2745 27.8924 21.1133C28.1026 20.9989 28.4842 20.8417 28.6943 20.7273C28.4781 20.7637 28.0906 20.8433 27.8743 20.8797C27.2968 20.9772 27.2288 21.1159 27.1393 21.6847ZM17.274 11.3561C16.6037 12.0186 15.9526 14.292 15.7446 15.2017C16.0723 14.4461 16.8923 12.3323 17.5213 11.7947C17.6951 11.6461 17.8165 11.5548 17.947 11.4884C17.4967 12.2436 17.5298 12.4314 17.6878 13.4431C17.822 12.4145 18.1776 12.0172 18.7612 11.2498C19.4009 11.0894 19.9996 10.897 20.6559 10.6411C19.9168 10.7247 19.1769 10.8014 18.4363 10.8714C17.8148 10.9303 17.7148 10.9203 17.274 11.3561Z" fill="black"/>
<path d="M26.4051 15.2261C26.3465 15.103 26.3393 14.9616 26.3848 14.8331C26.4304 14.7046 26.5251 14.5995 26.6482 14.5408C26.7153 14.509 26.7885 14.492 26.8627 14.4911C26.9369 14.4901 27.0105 14.5052 27.0784 14.5352C27.1463 14.5653 27.2069 14.6097 27.2561 14.6653C27.3053 14.7209 27.3419 14.7864 27.3635 14.8575C27.1188 15.0392 26.8946 15.253 26.7065 15.5008C26.5799 15.4498 26.4677 15.3573 26.4049 15.2261M32.129 13.0117C32.1496 12.8 32.3301 12.6439 32.5418 12.6644C32.6436 12.6744 32.7374 12.7244 32.8025 12.8034C32.8676 12.8823 32.8988 12.9839 32.8893 13.0858C32.8849 13.1295 32.8731 13.1721 32.8544 13.2119C32.6607 13.2452 32.4669 13.3017 32.2673 13.3752C32.1838 13.2897 32.1173 13.1337 32.129 13.0117Z" fill="#FFFFCC"/>
</svg>
