<svg width="40" height="40" viewBox="0 0 40 40" fill="none" xmlns="http://www.w3.org/2000/svg">
<path fill-rule="evenodd" clip-rule="evenodd" d="M23.8708 30.184V37.9H25.7628V34.352L26.1549 34.36V37.9H28.0708V30.184H26.1549V33.048H25.7628V30.184H23.8708Z" fill="black"/>
<path d="M28.1748 38H26.0548V34.46L25.8708 34.456V38H23.7708V30.08H25.8708V32.944H26.0548V30.08H28.1748V38ZM26.2588 37.796H27.9708V30.288H26.2588V33.152H25.6628V30.288H23.9748V37.796H25.6628V34.248L26.2588 34.26V37.796Z" fill="#FDEE21"/>
<path fill-rule="evenodd" clip-rule="evenodd" d="M30.4268 30.184H28.5828V37.9H30.4268V30.184Z" fill="black"/>
<path d="M30.5307 38H28.4827V30.08H30.5307V38ZM28.6867 37.796H30.3267V30.288H28.6867V37.796Z" fill="#FDEE21"/>
<path fill-rule="evenodd" clip-rule="evenodd" d="M30.7307 30.184L32.1867 37.9H34.3867L35.8427 30.188H33.8827L33.3987 33.488C33.3587 33.616 33.2227 33.616 33.1987 33.488L32.7147 30.188L30.7307 30.184Z" fill="black"/>
<path d="M34.4707 38H32.1027L30.6067 30.08H32.8107L33.3027 33.46L33.7987 30.08H35.9707L34.4707 38ZM32.2747 37.796H34.3027L35.7227 30.288H33.9787L33.5067 33.508L33.5027 33.516C33.4707 33.62 33.3827 33.688 33.2867 33.68C33.1947 33.676 33.1227 33.604 33.1027 33.504V33.5L32.6347 30.288H30.8587L32.2747 37.796Z" fill="#FDEE21"/>
<path fill-rule="evenodd" clip-rule="evenodd" d="M39.8988 30.184H36.2388V37.9H39.8988V35.876L37.8628 35.86V34.992H38.8308V32.984H37.8628V32.208H39.8988V30.184Z" fill="black"/>
<path d="M39.9989 38H36.1309V30.08H39.9989V32.308H37.9629V32.88H38.9309V35.092H37.9629V35.756L39.9989 35.772V38ZM36.3389 37.796H39.7949V35.976L37.7589 35.96V34.888H38.7269V33.084H37.7589V32.104H39.7949V30.288H36.3389V37.796Z" fill="#FDEE21"/>
<path fill-rule="evenodd" clip-rule="evenodd" d="M20.1267 6.79199C19.8187 5.94399 9.2067 1.81999 9.0747 2.27599C7.1267 2.78399 6.3347 5.02799 4.9947 6.45199L2.0187 6.27999C0.706697 7.96399 0.0186972 9.68799 0.486697 11.476C2.1667 13.752 4.1187 15.688 5.3307 18.548C5.4267 19.896 11.1627 18.688 12.3947 18.424C10.7147 19.628 9.2507 21.492 9.8827 26.856C10.4547 29.376 10.8507 32.192 15.9387 35.04C16.6107 35.416 17.9947 35.848 18.8507 36.164C19.6707 36.54 20.6307 36.696 23.3347 35.868C24.8987 35.192 26.5907 34.788 28.1227 34.116L26.2827 34.204C23.7467 34.26 21.7907 34.448 21.1867 33.74L18.8507 29.712L20.2107 27.072C22.0947 27.264 22.7187 28.792 24.3787 29.372L26.3347 27.924C32.0147 31.276 34.2747 25.8 34.9227 21.532C34.8547 19.796 31.1627 22.076 31.3867 21.264C31.4747 19.4 29.9507 16.956 28.9707 15.056L30.1067 10.656C30.6227 10.196 27.7187 5.29999 25.3467 4.69199C23.2627 4.15599 20.1267 6.79199 20.1267 6.79199Z" fill="#FDEE21"/>
<path fill-rule="evenodd" clip-rule="evenodd" d="M29.4548 16.144C29.4748 16.616 29.4748 17.192 29.5188 17.548C29.5108 17.82 29.3068 17.832 29.1348 17.888L30.2388 18.292C30.4588 18.66 30.6348 19.032 30.8108 19.4C31.0188 20.308 30.8628 20.336 30.7268 20.4C30.3268 20.404 29.9268 20.404 29.5508 20.324C29.7188 20.412 29.7548 20.476 29.7708 20.588C29.8028 20.796 29.6708 21.08 29.4468 21.356C29.7748 21.536 30.3708 21.716 30.8108 21.884L31.3148 20.76C31.0988 19.112 30.4028 17.592 29.4548 16.144Z" fill="#C8C037"/>
<path fill-rule="evenodd" clip-rule="evenodd" d="M31.5188 21.68C32.1308 21.936 32.9788 21.86 34.1508 21.256C34.3268 21.132 34.4868 21.208 34.1748 21.412C32.6388 22.792 31.8988 22.1 31.5188 21.68Z" fill="#C8C037"/>
<path fill-rule="evenodd" clip-rule="evenodd" d="M34.2707 21.072C34.4547 21.42 34.3427 21.704 34.2827 22C34.0907 23.496 33.6267 24.684 32.7107 25.92C29.7307 30.708 26.7227 27.712 24.3267 25.764L23.3347 28.248C23.2827 28.464 23.0627 28.636 24.6107 29.316L26.1907 28.2C32.2067 32.78 36.4707 21.792 34.2707 21.072Z" fill="#C8C037"/>
<path fill-rule="evenodd" clip-rule="evenodd" d="M25.0508 25.352C24.6428 25.38 23.4348 25.792 23.3828 26.028L23.9388 25.2L25.0508 25.352Z" fill="#C8C037"/>
<path fill-rule="evenodd" clip-rule="evenodd" d="M24.2588 20.276C24.3348 20.276 24.6908 20.372 24.6508 20.352C24.5948 20.32 24.6428 20.852 24.7588 21.128L24.3228 22.076C25.1588 21.112 26.4788 21.176 27.7028 21.052L27.1188 20.688C27.2188 20.348 27.0988 20.08 27.0428 19.792L24.2588 20.276Z" fill="#C8C037"/>
<path fill-rule="evenodd" clip-rule="evenodd" d="M26.3107 17.42C25.4147 17.696 24.5587 18.144 23.9827 19.1C24.4227 17.524 24.5107 17.584 24.6547 17.508C25.2667 17.232 25.7707 17.404 26.3107 17.42Z" fill="#C8C037"/>
<path fill-rule="evenodd" clip-rule="evenodd" d="M21.5267 35.892C20.4427 37.088 18.0267 35.8 16.0227 35.148C10.9227 31.908 9.92671 28.852 9.85871 25.86C9.59471 21.572 10.9147 19.08 12.5787 18.488C11.4747 20.612 10.9627 24.428 11.4747 27.264C11.8867 28.844 11.8947 31.504 14.5347 32.928C15.8267 33.656 15.4787 34.224 16.3507 34.904C17.3107 35.652 19.9827 36.36 21.5267 35.892Z" fill="#FCF6A0"/>
<path fill-rule="evenodd" clip-rule="evenodd" d="M23.1466 16.068C21.3146 13.468 18.7346 12.492 15.8266 12.384C16.4106 12.196 16.9906 12.096 17.5746 11.816C17.7186 11.668 17.6706 11.404 17.6186 11.136C14.8186 10.404 13.0546 9.504 10.8186 8.664L16.8506 10.112C20.9266 10.268 20.5786 11.276 23.1466 16.068Z" fill="#FCF6A0"/>
<path fill-rule="evenodd" clip-rule="evenodd" d="M25.1066 14.816C23.7506 12.88 22.4386 10.536 20.6546 9.03999C16.3506 7.09999 12.0906 5.65599 7.09863 4.34399L8.69063 2.29599C13.9866 3.50399 18.9626 5.52799 23.4186 8.86399C24.1746 10.768 24.6786 12.676 25.1066 14.816Z" fill="#FCF6A0"/>
<path fill-rule="evenodd" clip-rule="evenodd" d="M27.8386 11.4C27.8386 11.4 27.0786 9.69598 26.7106 9.04398C25.8546 8.09198 25.4186 6.31998 23.6626 5.48798C24.2186 5.63998 24.5986 5.45998 25.7346 6.48798L27.5226 9.87598L27.8386 11.4Z" fill="#FCF6A0"/>
<path fill-rule="evenodd" clip-rule="evenodd" d="M28.7826 14.352C28.9586 12.876 29.2906 10.508 28.9106 9.57199C27.8466 8.14399 26.7786 6.67199 25.7106 5.30399C25.5346 5.13999 25.4066 4.91599 25.2666 4.73999C26.7706 5.12799 28.3426 6.17599 30.4586 10.304L28.7826 14.352Z" fill="#FCF6A0"/>
<path fill-rule="evenodd" clip-rule="evenodd" d="M22.4587 14.524C21.8587 14.052 21.3267 12.384 20.4187 12.036C19.5787 11.964 19.2707 11.7 18.1667 11.928C18.5667 11.728 18.9467 11.472 19.3707 11.332C19.6587 11.264 19.9307 11.34 20.2067 11.376C20.2747 11.344 20.3187 11.304 20.3027 11.244C19.1907 10.556 16.9067 10.548 15.3667 10.156C17.1547 10.216 19.1347 10.116 20.4747 10.548C21.5547 11.508 21.9067 13.312 22.4587 14.524Z" fill="black"/>
<path fill-rule="evenodd" clip-rule="evenodd" d="M25.7346 6.48001C25.9826 6.50401 27.3186 8.61601 27.3786 8.96401C27.4906 9.73201 27.7626 10.592 27.8386 11.396C27.6186 10.624 27.3786 9.85601 27.0786 9.08401C26.9906 8.87201 26.7706 8.39201 26.1546 7.71201C25.8706 7.23601 25.8066 6.86001 25.7346 6.48001Z" fill="black"/>
<path fill-rule="evenodd" clip-rule="evenodd" d="M30.2588 17.984H29.6868L30.3188 18.148L30.2588 17.984Z" fill="black"/>
<path fill-rule="evenodd" clip-rule="evenodd" d="M26.3627 17.412C25.7867 17.34 25.1987 17.332 24.6267 17.46C24.3907 17.776 24.3747 18.096 24.2747 18.388C24.9707 17.62 25.2467 17.572 26.3627 17.412Z" fill="black"/>
<path fill-rule="evenodd" clip-rule="evenodd" d="M34.1946 21.384C33.8746 21.64 33.8426 21.88 32.8986 22.168C32.2106 22.332 31.8186 22.056 31.4946 21.684C31.9866 21.824 32.0666 22.196 33.3826 21.78L34.1946 21.384Z" fill="black"/>
<path fill-rule="evenodd" clip-rule="evenodd" d="M31.3306 21.544C31.0986 22.176 30.8546 22.816 30.6026 23.408C30.0066 24.108 30.2626 23.708 29.3706 24.792C29.6546 24.352 30.0266 23.928 30.2226 23.472C30.3586 23.172 30.5306 22.852 30.6026 22.584C30.3666 22.464 29.8826 22.456 29.8186 22.5C29.0266 22.968 28.8826 23.46 28.4146 23.944C28.7546 23.404 29.0426 22.812 29.4346 22.324C29.4786 22.26 29.7706 22.248 29.9466 22.212C29.6706 22.164 29.1546 22.064 29.1146 22.068C28.5986 22.192 28.3066 22.644 27.9226 22.94C28.2026 22.536 28.4586 22.116 28.8146 21.768C28.8506 21.728 29.8106 21.812 30.3066 22.008L30.3146 22.204L30.5986 22.32L30.8106 21.788L31.3306 21.544Z" fill="black"/>
<path fill-rule="evenodd" clip-rule="evenodd" d="M25.0628 25.356C24.9348 25.312 23.8108 25.168 23.8108 25.2C23.3788 25.508 23.3108 25.804 23.3228 26.056C24.0388 25.352 24.0108 25.348 25.0628 25.356Z" fill="black"/>
<path fill-rule="evenodd" clip-rule="evenodd" d="M24.2068 20.264C24.2068 20.264 25.0188 20.144 25.0028 20.22C24.9428 20.504 25.1028 21.188 25.1188 21.092L24.6628 21.464C25.6188 20.984 26.6268 21.08 27.6508 21.004C27.6508 21.004 26.7908 20.768 26.8428 20.76C27.0348 20.732 26.7908 19.864 26.7268 19.844C26.8908 19.788 27.0508 19.748 27.2148 19.704C25.9828 19.388 25.2708 19.58 24.2068 20.264Z" fill="black"/>
<path fill-rule="evenodd" clip-rule="evenodd" d="M31.2427 20.872L31.0627 20.964C31.0387 20.436 30.4667 20.472 29.9907 20.468L29.5987 20.372C29.7187 20.484 30.0867 20.472 29.9387 20.712C29.8147 20.78 29.7547 21.068 29.6827 21.308L29.4707 21.32C29.8467 21.468 30.1947 21.596 30.6067 21.768L30.8507 21.804L31.4347 21.488L31.2427 20.872Z" fill="black"/>
<path fill-rule="evenodd" clip-rule="evenodd" d="M25.8548 20.516C25.7628 20.336 25.3028 20.36 25.2028 20.476C25.1228 20.572 25.1988 21.18 25.3028 21.08C25.4508 20.948 25.6468 20.892 25.8828 20.904C25.9108 20.792 25.8988 20.668 25.8548 20.516Z" fill="white"/>
<path fill-rule="evenodd" clip-rule="evenodd" d="M30.2668 21.424C30.3108 21.392 30.4028 21.088 30.3708 20.996C30.3108 20.78 29.8828 20.824 29.8828 20.824C29.7788 20.884 29.6868 21.224 29.7268 21.332C29.7428 21.428 30.1988 21.456 30.2668 21.424Z" fill="white"/>
<path fill-rule="evenodd" clip-rule="evenodd" d="M11.9626 31.984L12.2346 32.012C13.8386 32.8 16.4786 33.964 20.2986 33.34L20.8986 34.284C19.2146 35.1 17.4066 34.912 15.7106 34.972L11.9626 31.984Z" fill="black"/>
<path fill-rule="evenodd" clip-rule="evenodd" d="M9.6626 25.764L10.4666 29.136C12.6146 30.48 16.2866 32.02 19.3506 31.896L18.6746 30.344C12.2826 28.984 11.7426 27.268 9.6626 25.764Z" fill="black"/>
<path fill-rule="evenodd" clip-rule="evenodd" d="M11.6628 18.86C12.0548 21.472 12.5788 23.452 14.8508 25.112C16.2428 26.112 17.6268 27.112 19.3068 27.932C19.3068 27.932 19.1588 28.7 19.0348 28.684C14.0308 28.128 10.3708 23.98 9.92676 22.088C10.3548 20.636 10.9708 19.728 11.6628 18.86Z" fill="black"/>
<path fill-rule="evenodd" clip-rule="evenodd" d="M14.0667 17.38C14.7347 20.276 16.3227 23.208 17.9027 25.868C18.4827 26.604 18.6347 26.928 19.5267 27.376C20.7347 27.756 21.5866 27.66 22.4626 27.604C22.2226 27.16 22.0107 26.696 21.7347 26.28C19.7747 24.728 20.6786 23.316 21.2026 22.424C20.1106 22.148 18.6666 21.564 18.4706 20.792C18.1506 18.3 18.3146 17.512 18.6346 16.232C17.1506 16.54 15.6547 16.848 14.0667 17.38Z" fill="black"/>
<path fill-rule="evenodd" clip-rule="evenodd" d="M8.65079 2.004C8.16679 2.32 7.69879 2.776 7.19479 3.288C6.35879 4.152 5.80679 4.992 4.95879 5.616C4.79079 5.764 4.31079 6 3.71479 6.032C3.43079 6.048 3.25079 6.092 2.73079 6.028C2.27479 5.78 1.83879 5.94 1.41479 6.448C0.946787 7.12 0.358787 8.388 0.114787 9.188C-0.389213 11.224 0.894787 12.904 2.13079 14.196C3.22679 15.268 3.85879 15.936 4.31079 16.92C4.65079 17.556 4.90279 18.432 5.17879 19.044C5.27879 19.24 5.25879 19.236 5.52279 19.296C6.09479 19.42 6.89079 19.42 7.59879 19.48C7.90679 19.484 8.32679 19.472 8.72279 19.432C9.27079 19.328 9.91879 19.228 10.4588 19.04C10.9868 18.908 11.4588 18.728 11.8828 18.564C11.8268 18.748 11.4228 18.928 11.2708 19.164C9.83079 21.224 9.43879 23.056 9.68679 25.948C9.82679 27.228 10.1228 28.292 10.5668 29.508C10.7708 30.064 11.2028 30.944 11.6148 31.532C12.8468 33.272 15.6028 35.508 19.4388 36.368C20.1068 36.46 20.8668 36.412 21.5828 36.22C23.4748 35.648 27.3348 34.288 27.3348 34.288C27.3348 34.288 23.9108 34.572 22.3428 34.416C21.9788 34.36 21.5788 34.34 21.3268 34.092C21.2828 34.036 21.1308 33.728 21.2308 33.724C21.3668 33.72 21.7548 33.56 22.3588 33.504C21.0748 33.364 21.0908 33.368 20.9988 33.132C20.8548 32.768 20.6308 32.272 20.3988 31.836C20.9628 31.884 22.2148 31.952 22.6388 31.516C22.6388 31.516 21.8988 31.6 21.2468 31.524C21.0268 31.5 20.6508 31.364 20.5388 31.324C20.2468 31.208 20.0028 31.176 19.9468 31.1C19.8468 30.84 19.7748 30.752 19.6508 30.404C19.4828 29.944 19.4708 29.432 19.4388 28.96C19.8668 29.488 20.4108 29.932 21.1348 30.156C21.1428 30.136 22.0708 30.56 22.7428 30.34L22.8828 30.296C22.8828 30.308 22.4388 30.336 22.2748 30.256C20.9068 29.676 20.6988 29.164 20.4788 28.912L19.8828 28.032C20.0628 27.672 20.1628 27.66 20.4028 27.656C21.1228 27.736 21.4348 27.796 21.8748 27.692C22.1708 28.3 22.2508 28.916 22.9268 29.36C25.1748 30.028 25.6628 29.16 26.2068 28.396C27.8228 29.584 30.4548 29.948 32.2828 28.416C34.6068 25.728 35.3428 21.488 35.1348 21.248C34.8428 20.756 34.4628 20.248 34.1388 20.32C32.9748 20.64 32.5428 21.228 31.3908 21.096C31.5268 21.088 31.7588 21.084 31.7628 21.072C31.8508 20.096 31.7548 19.62 31.7108 19.54C31.3588 18.768 30.8988 17.956 30.5788 17.344C30.4948 17.216 30.2548 16.256 29.8468 15.88C29.6708 15.732 29.2468 15.34 29.2468 15.34L29.2108 15.756C29.2108 15.756 29.3788 15.78 29.4428 16.04C29.6828 17.02 30.9108 19.34 30.9988 19.452C31.4348 20.152 31.0428 21.028 31.3748 21.52C31.4068 21.584 32.0508 21.516 32.5468 21.544C33.3668 21.368 33.3308 21.008 34.0388 20.952C34.5148 20.916 34.5628 21.812 34.5588 21.88C34.4708 22.868 34.1708 24.016 33.7108 25.068C32.7548 26.912 31.6828 28.564 30.1628 28.796C28.3108 29.12 27.3468 28.308 26.3428 27.792L25.9588 28.12C24.6548 29.42 23.1028 29.304 22.4708 27.604C22.1548 26.944 21.7428 26.54 21.3908 25.976L19.5228 27.32C19.3668 27.64 19.1748 28.14 18.9428 28.704C18.7828 29.096 18.6468 29.764 18.6548 30.324C18.4148 30.732 19.4828 32.384 20.1588 33.392C20.3588 33.688 20.7308 34.208 20.7428 34.24C20.8748 34.588 21.1708 34.892 21.1868 34.932C22.4388 36.568 19.6068 36.192 19.0188 36.092C17.8628 35.908 16.7348 35.424 15.6708 34.78C15.6108 34.744 15.5468 34.704 15.4868 34.668C14.2228 33.872 13.0628 32.856 12.0748 31.852C11.4868 31.184 10.9268 29.82 10.5108 28.852C9.89079 26.524 8.99879 22.488 11.4108 19.428C11.5628 19.252 11.7268 18.964 11.8708 18.904C12.5868 18.42 13.3668 18.088 14.2028 17.904L14.1188 17.36C13.7028 17.456 12.2948 17.968 11.8948 18.184C10.9908 18.448 10.2388 18.72 9.08679 19.008C8.71079 19.052 8.34279 19.056 7.98279 19.004C7.15479 18.892 5.73879 18.992 5.65079 18.908C5.09079 18.124 4.93479 16.72 4.42279 15.968L4.41479 15.96L4.40679 15.952C4.10679 15.552 3.75879 15.224 3.41479 14.88C2.18679 13.66 1.13479 12.48 0.842787 11.228C0.766787 10.86 0.578787 10.476 0.678787 9.384V9.38V9.376C0.974787 8.356 1.45879 7.524 2.27479 6.688C3.12279 6.7 3.96279 6.72 4.61879 6.844C4.91879 6.896 5.54279 6.976 6.19079 7.216C7.81879 7.828 9.97879 8.828 9.97879 8.828C8.35879 7.94 6.54679 6.784 5.40279 6.552C5.23079 6.528 5.12679 6.452 5.07879 6.316C6.79879 5.304 7.11479 4.116 8.24279 3.048C8.75879 2.824 8.96279 2.708 9.39879 2.66C13.4668 3.3 16.0228 4.916 18.0468 6C18.8668 6.448 19.6148 6.784 20.3268 7.192C20.9508 7.396 22.8388 8.82 23.3908 9.588C23.9508 10.772 24.3628 12.052 24.7348 13.284C25.0028 14.54 25.2388 15.048 25.2388 15.048C25.2388 15.048 25.0108 14 25.0508 13.808C25.2868 13.896 25.8428 14.072 26.0748 14.044C26.0748 14.044 25.0428 13.512 24.9068 13.04C24.4708 11.528 24.0388 9.168 23.9188 9.048C23.5868 8.632 22.2068 7.576 21.3628 7.088C21.0428 6.904 20.8708 6.788 20.8548 6.708C21.1268 6.436 21.4588 6.072 21.7588 5.844C22.0468 5.624 22.3068 5.376 22.7068 5.228C24.4668 4.436 25.4708 5.532 25.7108 5.312C25.7108 5.312 25.3308 4.88 25.4988 4.948C25.6708 5.04 26.2308 5.152 26.2948 5.208C26.9348 5.708 28.6108 7.54 29.6228 9.476C29.8668 9.948 29.9628 10.26 29.8508 10.832C29.7388 11.404 29.6508 11.716 29.5268 12.096C29.4148 12.352 28.7868 14.096 28.7908 14.328C28.6628 15.284 29.2028 16.484 29.2028 16.484C29.2068 16.16 29.1828 15.984 29.2108 15.752L29.2468 15.336C29.2468 15.336 29.2228 15.224 29.2268 15.18C29.2548 14.892 29.3228 14.652 29.3468 14.488C29.5468 13.236 29.8988 12.336 30.2988 11.24C30.4188 10.964 30.5708 10.808 30.5628 10.6C30.5708 10.224 30.2348 9.724 29.9908 9.232C29.7468 8.736 29.4548 8.184 29.0708 7.6C28.1988 6.344 27.4548 5.364 26.0908 4.748C25.7108 4.58 24.2108 4.416 23.6908 4.516C23.0628 4.648 22.5228 4.776 22.0908 5.052C21.4108 5.488 20.8788 6.16 20.2548 6.556C18.8708 5.864 18.2068 5.348 18.0788 5.276C17.2588 4.832 16.2708 4.324 15.2108 3.84C14.7028 3.364 11.5428 2.228 8.65079 2.004ZM26.3308 27.784C25.4788 27.116 24.7628 26.432 24.2908 25.728C24.1348 26.56 23.5748 27.148 23.1428 27.732C23.0548 27.868 22.9948 28.056 23.4188 28.648C23.5348 28.804 23.9468 28.832 24.2268 28.82C23.9428 28.604 23.5108 28.376 23.4388 28.18C23.9388 28.52 24.4028 28.62 24.8188 28.564C24.9148 28.552 25.0348 28.452 25.1268 28.296C25.3148 27.896 25.4588 27.8 25.6068 27.692L25.9468 28.12L26.3308 27.784Z" fill="black"/>
<path d="M20.1189 36.412C19.8869 36.412 19.6589 36.396 19.4429 36.368C18.5269 36.164 17.6309 35.868 16.7749 35.496C15.9989 35.156 15.2509 34.748 14.5549 34.28C13.3389 33.472 12.2989 32.496 11.6149 31.532C11.1989 30.944 10.7629 30.048 10.5669 29.508C10.0709 28.152 9.81494 27.12 9.68694 25.948C9.62294 25.204 9.60294 24.552 9.62694 23.956C9.65094 23.336 9.72294 22.776 9.84694 22.24C10.0909 21.184 10.5429 20.204 11.2709 19.16C11.3429 19.048 11.4709 18.948 11.5949 18.856C11.7269 18.756 11.8469 18.66 11.8789 18.568C11.4229 18.748 10.9709 18.916 10.4589 19.044C10.0029 19.2 9.46694 19.3 8.99094 19.388C8.89894 19.404 8.81094 19.42 8.72294 19.436C8.23094 19.488 7.77094 19.488 7.59494 19.484C7.36294 19.464 7.11894 19.452 6.88294 19.436C6.37894 19.408 5.90294 19.38 5.51494 19.3C5.27094 19.244 5.26694 19.244 5.19094 19.088C5.18294 19.076 5.17894 19.06 5.17094 19.044C5.06294 18.8 4.95494 18.516 4.84694 18.212C4.68294 17.764 4.51094 17.3 4.30694 16.916C3.84694 15.912 3.17494 15.216 2.12694 14.192C1.75894 13.808 1.47094 13.476 1.21894 13.148C0.902941 12.74 0.654941 12.352 0.466941 11.964C0.446941 11.924 0.426941 11.88 0.406941 11.84C0.810941 12.712 1.46294 13.492 2.13094 14.188C2.70294 14.752 3.12294 15.18 3.46294 15.592C3.83094 16.036 4.09494 16.448 4.31094 16.92C4.51494 17.304 4.68694 17.768 4.85494 18.216C4.96694 18.516 5.07094 18.8 5.17894 19.044C5.18694 19.06 5.19494 19.072 5.19894 19.084C5.27494 19.236 5.27494 19.24 5.51894 19.292C5.90694 19.376 6.38294 19.4 6.88694 19.428C7.12294 19.44 7.36694 19.456 7.59894 19.476C7.77494 19.48 8.23094 19.48 8.72294 19.428C8.81094 19.412 8.89894 19.396 8.99094 19.38C9.46694 19.292 10.0029 19.196 10.4589 19.036C10.9709 18.908 11.4269 18.74 11.8829 18.56H11.8869V18.564C11.8589 18.66 11.7309 18.76 11.5989 18.86C11.4749 18.956 11.3469 19.052 11.2749 19.164C9.86694 21.18 9.43894 23.016 9.69094 25.948C9.81894 27.12 10.0749 28.152 10.5709 29.508C10.7669 30.048 11.2029 30.94 11.6189 31.532C12.8149 33.22 15.5789 35.5 19.4389 36.368C20.1149 36.46 20.8749 36.408 21.5789 36.22C23.3869 35.672 27.0349 34.392 27.3149 34.296C27.1869 34.308 26.3829 34.368 25.4229 34.416C24.4629 34.464 23.1469 34.504 22.3389 34.42C22.2869 34.412 22.2309 34.404 22.1789 34.396C21.8629 34.352 21.5389 34.308 21.3229 34.096C21.2869 34.048 21.1669 33.808 21.1989 33.744C21.2029 33.732 21.2149 33.724 21.2269 33.724C21.2749 33.724 21.3549 33.7 21.4669 33.672C21.6629 33.62 21.9549 33.544 22.3309 33.508C21.0869 33.372 21.0829 33.372 20.9949 33.148L20.9909 33.14C20.8229 32.72 20.5989 32.236 20.3909 31.844V31.84H20.3949C20.8509 31.88 21.2349 31.884 21.5669 31.864C22.0869 31.828 22.4429 31.712 22.6269 31.528C22.5549 31.536 21.8549 31.608 21.2389 31.536C21.0269 31.512 20.6709 31.388 20.5309 31.336C20.4149 31.292 20.3069 31.26 20.2149 31.228C20.0749 31.184 19.9749 31.156 19.9389 31.108C19.8949 31 19.8629 30.924 19.8229 30.844C19.7709 30.732 19.7149 30.616 19.6429 30.412C19.4949 30.008 19.4669 29.564 19.4429 29.136C19.4389 29.08 19.4349 29.024 19.4309 28.968V28.96L19.4349 28.964C19.9229 29.564 20.4749 29.956 21.1269 30.16C21.1309 30.16 21.1509 30.164 21.2189 30.188C21.4589 30.272 22.1869 30.524 22.7349 30.348L22.8389 30.316C22.7309 30.328 22.3989 30.336 22.2629 30.268C21.7549 30.052 21.3629 29.828 21.0629 29.584C20.8109 29.38 20.6789 29.2 20.5749 29.06C20.5349 29.008 20.5029 28.964 20.4669 28.924L19.8789 28.032C20.0589 27.676 20.1629 27.66 20.3989 27.656C20.4989 27.668 20.5869 27.676 20.6749 27.688C21.2029 27.748 21.4949 27.784 21.8709 27.692C21.9429 27.844 22.0029 27.996 22.0629 28.144C22.2429 28.596 22.4149 29.024 22.9189 29.36C25.0669 29.996 25.6069 29.236 26.1269 28.496C26.1509 28.464 26.1749 28.432 26.1949 28.396C27.0429 29.02 28.2069 29.424 29.3869 29.424C30.3989 29.424 31.4229 29.128 32.2669 28.42C33.5109 26.98 34.2469 25.176 34.6429 23.92C34.8429 23.28 35.0029 22.632 35.0869 22.096C35.1589 21.64 35.1749 21.316 35.1189 21.252C34.7229 20.58 34.3869 20.268 34.1229 20.324C33.6949 20.44 33.3629 20.596 33.0669 20.736C32.5509 20.976 32.1069 21.184 31.3749 21.1V21.096C31.4149 21.092 31.4669 21.092 31.5149 21.088C31.6149 21.084 31.7389 21.08 31.7469 21.072C31.7949 20.544 31.7869 20.18 31.7709 19.972C31.7509 19.708 31.7149 19.58 31.6949 19.544C31.4309 18.968 31.1109 18.372 30.8309 17.844C30.7349 17.668 30.6469 17.5 30.5669 17.348C30.5429 17.312 30.5109 17.22 30.4629 17.088C30.3389 16.74 30.1309 16.156 29.8349 15.88C29.6709 15.74 29.2789 15.38 29.2349 15.34L29.1989 15.752C29.2189 15.756 29.3709 15.796 29.4309 16.036C29.6709 17.016 30.9029 19.34 30.9869 19.444C31.2189 19.82 31.2149 20.252 31.2149 20.632C31.2109 20.968 31.2109 21.28 31.3629 21.508C31.3789 21.54 31.5829 21.536 31.8389 21.528C32.0589 21.524 32.3069 21.516 32.5309 21.532C32.9269 21.448 33.1269 21.316 33.2989 21.204C33.4909 21.08 33.6549 20.972 34.0229 20.944C34.0309 20.944 34.0429 20.944 34.0509 20.944C34.1429 20.944 34.2229 20.98 34.2909 21.048C34.5189 21.28 34.5469 21.824 34.5429 21.876C34.4989 22.372 34.4029 22.9 34.2589 23.448C34.1109 24.004 33.9229 24.548 33.6949 25.064C32.7629 26.864 31.6829 28.56 30.1469 28.792C29.4549 28.912 28.8229 28.884 28.2189 28.708C27.6869 28.552 27.2429 28.3 26.8149 28.06C26.6469 27.964 26.4869 27.876 26.3269 27.792L25.9429 28.12C25.5949 28.464 25.2309 28.712 24.8589 28.86C24.4909 29.004 24.1389 29.04 23.8029 28.964C23.5109 28.9 23.2469 28.756 23.0229 28.532C22.7869 28.3 22.5909 27.988 22.4509 27.604C22.2589 27.2 22.0229 26.884 21.7989 26.584C21.6589 26.392 21.5109 26.196 21.3749 25.98L19.5109 27.324C19.4029 27.544 19.2789 27.852 19.1349 28.204C19.0709 28.364 19.0029 28.532 18.9309 28.704C18.7789 29.068 18.6349 29.74 18.6429 30.32C18.5389 30.496 18.6749 30.936 19.0509 31.628C19.3789 32.232 19.8349 32.92 20.1469 33.388C20.2429 33.528 20.3749 33.72 20.4909 33.884C20.6229 34.072 20.7229 34.216 20.7309 34.236C20.8349 34.504 21.0309 34.748 21.1269 34.864C21.1549 34.896 21.1709 34.92 21.1749 34.928C21.4749 35.32 21.5629 35.624 21.4349 35.84C21.3589 35.968 21.2029 36.064 20.9749 36.12C20.7869 36.168 20.5429 36.196 20.2589 36.196C20.2469 36.196 20.2389 36.196 20.2269 36.196C19.6909 36.196 19.1589 36.112 19.0069 36.088C17.9389 35.916 16.8109 35.476 15.6589 34.776C15.5989 34.74 15.5349 34.7 15.4749 34.664C14.3549 33.96 13.2069 33.012 12.0629 31.848C11.8189 31.572 11.5589 31.152 11.2669 30.568C11.0149 30.064 10.7869 29.52 10.5829 29.044C10.5549 28.976 10.5269 28.912 10.4989 28.848C10.3589 28.316 10.1749 27.604 10.0389 26.824C9.88694 25.956 9.81094 25.168 9.81094 24.408C9.81094 24.024 9.83094 23.652 9.87094 23.292C9.66294 25.2 10.0509 27.16 10.5029 28.844C10.5309 28.908 10.5589 28.972 10.5869 29.04C11.0029 30.012 11.5149 31.224 12.0669 31.848C13.2109 33.012 14.3549 33.96 15.4789 34.664C15.5389 34.704 15.6029 34.74 15.6629 34.776C16.8149 35.476 17.9429 35.916 19.0069 36.088C19.1589 36.112 19.6869 36.196 20.2269 36.196C20.2389 36.196 20.2469 36.196 20.2589 36.196C20.5469 36.196 20.7869 36.168 20.9749 36.12C21.2029 36.06 21.3549 35.968 21.4309 35.84C21.5589 35.628 21.4709 35.324 21.1709 34.932C21.1669 34.924 21.1469 34.9 21.1229 34.868C21.0269 34.752 20.8309 34.508 20.7269 34.24C20.7189 34.224 20.6109 34.068 20.4869 33.888C20.3709 33.72 20.2389 33.532 20.1429 33.392C19.8309 32.924 19.3749 32.236 19.0469 31.632C18.8709 31.312 18.7469 31.044 18.6749 30.832C18.5909 30.588 18.5789 30.416 18.6349 30.32C18.6269 29.736 18.7749 29.064 18.9229 28.7C18.9949 28.528 19.0629 28.36 19.1269 28.2C19.2709 27.844 19.3949 27.536 19.5029 27.316L21.3709 25.968V25.972C21.5069 26.188 21.6549 26.388 21.7949 26.576C22.0229 26.88 22.2549 27.192 22.4509 27.6C22.7349 28.356 23.1989 28.824 23.8029 28.956C24.4749 29.104 25.2509 28.796 25.9349 28.116L25.5989 27.692L25.5829 27.704C25.4429 27.804 25.2989 27.912 25.1189 28.296C25.0269 28.452 24.9109 28.556 24.8109 28.564C24.3549 28.624 23.8949 28.496 23.4349 28.184C23.4909 28.32 23.7229 28.476 23.9469 28.628C24.0389 28.692 24.1349 28.756 24.2189 28.816L24.2229 28.82H24.2149C23.9109 28.836 23.5149 28.8 23.4069 28.648C22.9869 28.06 23.0389 27.872 23.1309 27.732C23.2029 27.636 23.2789 27.54 23.3589 27.436C23.7469 26.936 24.1509 26.42 24.2789 25.728V25.724L24.2829 25.728C24.7189 26.38 25.3869 27.052 26.3229 27.784H26.3269C26.4909 27.868 26.6469 27.956 26.8149 28.052C27.6469 28.524 28.5909 29.056 30.1429 28.784C31.6789 28.552 32.7549 26.856 33.6869 25.056C34.1349 24.028 34.4469 22.868 34.5349 21.872C34.5389 21.82 34.5149 21.28 34.2869 21.048C34.2109 20.972 34.1229 20.936 34.0229 20.944C33.6589 20.972 33.4949 21.08 33.3029 21.204C33.1269 21.32 32.9269 21.448 32.5309 21.536C32.3069 21.524 32.0589 21.528 31.8389 21.532C31.5709 21.54 31.3749 21.544 31.3589 21.508C31.2029 21.28 31.2069 20.964 31.2109 20.628C31.2149 20.248 31.2189 19.816 30.9869 19.44C30.8989 19.332 29.6709 17.012 29.4309 16.028C29.3709 15.788 29.2229 15.752 29.2029 15.748C29.1869 15.892 29.1869 16.012 29.1909 16.16C29.1949 16.248 29.1949 16.352 29.1949 16.472H29.1909C29.1909 16.468 29.0549 16.168 28.9389 15.752C28.8309 15.368 28.7149 14.808 28.7829 14.316C28.7829 14.18 28.9869 13.564 29.1109 13.208C29.2789 12.72 29.4669 12.212 29.5229 12.084C29.6429 11.708 29.7309 11.392 29.8469 10.82C29.9589 10.26 29.8669 9.948 29.6189 9.464C29.0549 8.384 28.3269 7.416 27.8189 6.792C27.1389 5.96 26.5709 5.412 26.2949 5.196C26.2669 5.168 26.1149 5.128 25.9549 5.084C25.7829 5.036 25.5869 4.984 25.4989 4.936C25.4789 4.928 25.4669 4.928 25.4629 4.932C25.4389 4.964 25.6349 5.204 25.7149 5.296C25.6389 5.368 25.4869 5.304 25.2589 5.212C24.7549 5.008 23.9149 4.672 22.7109 5.212C22.3869 5.332 22.1509 5.52 21.9229 5.704C21.8709 5.744 21.8149 5.788 21.7629 5.832C21.5229 6.016 21.2549 6.288 21.0229 6.532C20.9669 6.588 20.9149 6.644 20.8629 6.696C20.8789 6.776 21.0509 6.892 21.3669 7.072C21.7669 7.304 22.3149 7.68 22.8389 8.08C23.3629 8.484 23.7709 8.84 23.9229 9.032C23.9829 9.092 24.1189 9.704 24.2909 10.476C24.4709 11.272 24.6909 12.26 24.9109 13.028C24.9789 13.272 25.2949 13.532 25.5429 13.708C25.8149 13.9 26.0749 14.032 26.0749 14.032L26.0829 14.036H26.0749C25.8309 14.064 25.2429 13.872 25.0509 13.8C25.0149 13.992 25.2389 15.024 25.2429 15.036H25.2389C25.2349 15.032 24.9989 14.512 24.7349 13.272C24.3869 12.12 23.9669 10.788 23.3909 9.576C23.1389 9.228 22.5789 8.7 21.8869 8.168C21.2349 7.664 20.6229 7.276 20.3269 7.18C19.9349 6.956 19.5389 6.756 19.1189 6.544C18.7749 6.368 18.4149 6.188 18.0429 5.988C17.8029 5.86 17.5589 5.724 17.2989 5.584C15.3749 4.528 12.9789 3.212 9.40294 2.648C9.02694 2.688 8.82694 2.78 8.45494 2.944C8.39094 2.972 8.32294 3.004 8.24694 3.036C7.82694 3.432 7.51494 3.852 7.21094 4.26C6.95494 4.604 6.68694 4.964 6.35494 5.308C5.98294 5.692 5.56694 6.02 5.08294 6.304C5.13494 6.436 5.23894 6.516 5.40694 6.536C5.80694 6.616 6.32294 6.82 6.99094 7.156C7.58694 7.456 8.23894 7.828 8.87494 8.192C9.24294 8.4 9.61894 8.616 9.98294 8.816L9.97894 8.82C9.95894 8.812 7.80294 7.812 6.18694 7.212C5.61494 7 5.06294 6.912 4.73494 6.86C4.69094 6.852 4.65094 6.848 4.61894 6.84C3.98694 6.72 3.18294 6.696 2.27494 6.684C1.47494 7.5 0.986941 8.328 0.682941 9.368L0.678941 9.38C0.598941 10.26 0.702941 10.672 0.790941 11.004C0.810941 11.08 0.830941 11.152 0.842941 11.224C1.15094 12.54 2.33494 13.8 3.41494 14.872C3.45894 14.916 3.50294 14.96 3.55094 15.004C3.84294 15.292 4.14694 15.592 4.40694 15.94L4.41494 15.948L4.42294 15.956C4.67094 16.32 4.83094 16.824 5.00294 17.36C5.17894 17.916 5.36294 18.492 5.65094 18.896C5.69094 18.932 6.01894 18.932 6.43094 18.932C6.92294 18.932 7.53494 18.928 7.98294 18.992C8.33494 19.04 8.70694 19.04 9.08694 18.996C9.83494 18.808 10.4149 18.628 10.9789 18.452C11.2869 18.356 11.5789 18.264 11.8949 18.172C12.0789 18.072 12.4909 17.904 12.9989 17.716C13.4829 17.536 13.9229 17.392 14.1189 17.348H14.1229V17.352L14.2069 17.896H14.2029C13.3629 18.08 12.5789 18.416 11.8709 18.896C11.7789 18.936 11.6709 19.08 11.5669 19.22C11.5149 19.288 11.4629 19.364 11.4109 19.42C10.8789 20.096 10.5029 20.82 10.2509 21.564C10.3629 21.232 10.4949 20.912 10.6509 20.604C10.8629 20.184 11.1149 19.784 11.4069 19.416C11.4589 19.356 11.5109 19.284 11.5629 19.216C11.6669 19.076 11.7709 18.932 11.8669 18.892C12.2229 18.652 12.5989 18.444 12.9869 18.28C13.3709 18.116 13.7789 17.984 14.1949 17.892L14.1109 17.356C13.7029 17.448 12.2909 17.964 11.8909 18.18C11.5749 18.272 11.2829 18.364 10.9749 18.46C10.4149 18.636 9.83494 18.816 9.08294 19.004C8.70294 19.052 8.33094 19.048 7.97894 19C7.53094 18.94 6.91894 18.94 6.42694 18.94C5.99494 18.94 5.68294 18.94 5.64294 18.904C5.35094 18.5 5.17094 17.924 4.99094 17.368C4.82294 16.832 4.65894 16.328 4.41094 15.964L4.40694 15.956L4.39894 15.948C4.13894 15.6 3.83494 15.3 3.54294 15.012C3.49894 14.968 3.45494 14.924 3.40694 14.88C2.87094 14.348 2.25894 13.716 1.77094 13.064C1.27494 12.404 0.970941 11.804 0.834941 11.228C0.818941 11.156 0.802941 11.084 0.782941 11.008C0.698941 10.676 0.590941 10.264 0.670941 9.384L0.674941 9.372C0.974941 8.332 1.46694 7.504 2.26694 6.684C3.17494 6.7 3.97894 6.72 4.61094 6.84C4.64694 6.844 4.68694 6.852 4.72694 6.86C5.05894 6.912 5.61094 7 6.17894 7.212C7.64294 7.756 9.55494 8.632 9.91094 8.792C9.56294 8.6 9.20694 8.396 8.85894 8.196C7.59094 7.472 6.28294 6.724 5.39494 6.544C5.22694 6.52 5.11894 6.444 5.06694 6.304C6.14694 5.668 6.68294 4.952 7.19494 4.26C7.49894 3.852 7.81094 3.432 8.23094 3.036C8.30694 3.004 8.37494 2.972 8.43894 2.944C8.81094 2.78 9.01494 2.688 9.38694 2.648C10.9789 2.9 12.4749 3.32 13.9629 3.936C15.2709 4.476 16.3509 5.068 17.3029 5.592C17.5629 5.736 17.8069 5.868 18.0469 5.996C18.4189 6.2 18.7749 6.38 19.1229 6.552C19.5429 6.764 19.9389 6.964 20.3309 7.188C20.6269 7.284 21.2389 7.672 21.8909 8.176C22.5829 8.708 23.1429 9.236 23.3949 9.584C23.9709 10.796 24.3909 12.128 24.7389 13.28C24.9749 14.384 25.1869 14.916 25.2309 15.024C25.1989 14.872 25.0109 13.98 25.0469 13.808V13.804H25.0509C25.2269 13.868 25.7509 14.04 26.0189 14.04C26.0349 14.04 26.0509 14.04 26.0669 14.036C26.0229 14.012 25.7869 13.888 25.5389 13.712C25.2869 13.536 24.9749 13.276 24.9029 13.032C24.6829 12.264 24.4629 11.276 24.2829 10.48C24.1109 9.708 23.9749 9.1 23.9149 9.04C23.7589 8.844 23.3549 8.488 22.8309 8.088C22.3069 7.688 21.7589 7.312 21.3589 7.08C21.0389 6.896 20.8629 6.78 20.8509 6.696C20.9029 6.644 20.9549 6.588 21.0149 6.532C21.2509 6.292 21.5149 6.02 21.7549 5.832C21.8069 5.792 21.8629 5.748 21.9149 5.704C22.1429 5.52 22.3789 5.332 22.7029 5.212C22.9829 5.084 23.2669 5 23.5389 4.956C23.7749 4.92 24.0109 4.912 24.2429 4.936C24.6669 4.98 25.0069 5.116 25.2509 5.216C25.4749 5.308 25.6269 5.368 25.6989 5.3C25.6629 5.26 25.4189 4.976 25.4509 4.932C25.4549 4.924 25.4709 4.924 25.4949 4.936C25.5829 4.984 25.7789 5.036 25.9509 5.084C26.1189 5.128 26.2589 5.168 26.2909 5.196C26.5669 5.412 27.1349 5.96 27.8149 6.792C28.3269 7.416 29.0549 8.384 29.6149 9.464C29.8629 9.948 29.9549 10.26 29.8429 10.82C29.7309 11.396 29.6429 11.708 29.5189 12.088C29.4149 12.324 28.7789 14.088 28.7829 14.32C28.7189 14.816 28.8309 15.372 28.9389 15.756C29.0429 16.128 29.1629 16.412 29.1869 16.464C29.1869 16.348 29.1869 16.248 29.1829 16.16C29.1789 16.008 29.1749 15.888 29.1949 15.744L29.2309 15.328C29.2309 15.32 29.2069 15.216 29.2109 15.172C29.2269 14.996 29.2589 14.84 29.2869 14.704C29.3069 14.616 29.3189 14.54 29.3269 14.476C29.5109 13.328 29.8229 12.48 30.1829 11.496C30.2149 11.408 30.2469 11.32 30.2789 11.228C30.3189 11.132 30.3669 11.048 30.4069 10.972C30.4869 10.832 30.5469 10.72 30.5429 10.584C30.5469 10.3 30.3589 9.948 30.1589 9.572C30.0949 9.456 30.0309 9.336 29.9749 9.216C29.7629 8.784 29.4669 8.208 29.0549 7.584C28.1709 6.316 27.4349 5.36 26.0869 4.752C25.7109 4.588 24.2149 4.42 23.6909 4.52C23.0709 4.648 22.5269 4.78 22.0909 5.056C21.7469 5.276 21.4389 5.56 21.1389 5.832C20.8429 6.104 20.5629 6.36 20.2549 6.556C19.1349 5.996 18.4869 5.552 18.2109 5.364C18.1469 5.32 18.1029 5.292 18.0829 5.276C17.4029 4.912 16.3629 4.364 15.2149 3.84C14.9469 3.588 13.9869 3.184 12.8309 2.828C12.0109 2.576 10.3829 2.14 8.65494 2.004C8.19494 2.304 7.75494 2.72 7.19894 3.288C6.90694 3.592 6.64694 3.892 6.39894 4.184C5.93894 4.712 5.51094 5.212 4.95894 5.62C4.78694 5.768 4.31094 6.004 3.71094 6.036C3.64694 6.04 3.58694 6.044 3.53094 6.048C3.33494 6.064 3.12694 6.08 2.72694 6.032C2.28294 5.792 1.85094 5.928 1.41494 6.452C0.970941 7.092 0.374941 8.344 0.118941 9.188C-0.0450586 9.856 -0.0210586 10.484 0.130941 11.076C0.0949414 10.932 0.0629414 10.792 0.0429414 10.648C-0.0290586 10.16 -0.00505859 9.668 0.114941 9.188C0.234941 8.8 0.438941 8.28 0.682941 7.772C0.934941 7.236 1.19494 6.768 1.41494 6.452C1.62694 6.192 1.84294 6.024 2.05894 5.956C2.27894 5.884 2.50694 5.908 2.73094 6.028C3.13094 6.08 3.33494 6.06 3.53494 6.044C3.59094 6.04 3.65094 6.036 3.71494 6.032C4.31494 5.996 4.78694 5.764 4.95894 5.616C5.51094 5.212 5.93894 4.712 6.39494 4.18C6.64294 3.888 6.90294 3.588 7.19494 3.284C7.75094 2.712 8.19094 2.3 8.65094 2C10.3749 2.136 12.0069 2.576 12.8269 2.824C13.9869 3.18 14.9469 3.584 15.2149 3.836C16.3629 4.36 17.4029 4.908 18.0829 5.272C18.1069 5.284 18.1509 5.316 18.2149 5.36C18.4909 5.548 19.1389 5.992 20.2589 6.552C20.5669 6.356 20.8469 6.1 21.1429 5.828C21.4429 5.552 21.7509 5.272 22.0949 5.052C22.5309 4.772 23.0749 4.644 23.6949 4.516C24.2229 4.416 25.7189 4.584 26.0949 4.748C27.4429 5.356 28.1789 6.312 29.0749 7.6C29.4829 8.22 29.7789 8.796 29.9949 9.232C30.0549 9.352 30.1189 9.472 30.1789 9.588C30.3789 9.964 30.5709 10.316 30.5629 10.6C30.5669 10.736 30.5069 10.848 30.4269 10.988C30.3869 11.06 30.3389 11.144 30.2989 11.24C30.2669 11.328 30.2349 11.42 30.2029 11.508C29.8429 12.492 29.5349 13.34 29.3509 14.488C29.3429 14.552 29.3269 14.628 29.3109 14.716C29.2829 14.852 29.2509 15.008 29.2349 15.184C29.2309 15.224 29.2509 15.32 29.2549 15.336C29.2589 15.34 29.6829 15.732 29.8549 15.876C30.1509 16.152 30.3589 16.736 30.4869 17.084C30.5349 17.212 30.5669 17.308 30.5909 17.34C30.6709 17.492 30.7629 17.66 30.8549 17.836C31.1389 18.36 31.4589 18.956 31.7229 19.536C31.7429 19.572 31.7789 19.7 31.7989 19.968C31.8149 20.18 31.8229 20.54 31.7749 21.072C31.7749 21.08 31.7189 21.084 31.5389 21.092C31.5029 21.092 31.4629 21.096 31.4269 21.096C32.1429 21.172 32.5829 20.968 33.0909 20.728C33.3869 20.592 33.7229 20.432 34.1469 20.316C34.4109 20.26 34.7509 20.572 35.1469 21.248C35.2509 21.372 35.1149 22.5 34.6709 23.916C34.4189 24.72 34.1069 25.488 33.7509 26.196C33.3189 27.048 32.8309 27.796 32.2949 28.416C31.8549 28.784 31.3549 29.056 30.7989 29.228C30.2869 29.384 29.7389 29.452 29.1749 29.428C28.6389 29.404 28.1069 29.3 27.5909 29.116C27.0869 28.94 26.6269 28.696 26.2189 28.396C26.1949 28.428 26.1749 28.46 26.1509 28.492C25.6309 29.232 25.0909 29.996 22.9389 29.356C22.4309 29.02 22.2589 28.592 22.0789 28.14C22.0189 27.992 21.9589 27.84 21.8869 27.692C21.5109 27.784 21.2189 27.748 20.6909 27.688C20.6029 27.676 20.5149 27.668 20.4149 27.656C20.1669 27.66 20.0749 27.68 19.8989 28.028L20.4909 28.912C20.5269 28.952 20.5589 28.996 20.5989 29.048C20.8109 29.332 21.1309 29.764 22.2869 30.256C22.4349 30.332 22.8149 30.312 22.8829 30.3L22.8989 30.296V30.3C22.8989 30.3 22.8989 30.3 22.8989 30.304C22.8989 30.304 22.8949 30.304 22.8869 30.308L22.7589 30.348C22.5229 30.424 22.2309 30.432 21.8869 30.368C21.6069 30.316 21.3669 30.236 21.2389 30.188C21.1949 30.172 21.1589 30.16 21.1509 30.16C20.8109 30.052 20.4869 29.888 20.1949 29.672C19.9349 29.48 19.6869 29.244 19.4629 28.964C19.4669 29.016 19.4709 29.072 19.4749 29.128C19.5029 29.556 19.5269 29.996 19.6749 30.4C19.7469 30.604 19.8029 30.72 19.8549 30.832C19.8909 30.912 19.9269 30.988 19.9709 31.096C20.0029 31.14 20.1029 31.172 20.2429 31.212C20.3389 31.24 20.4429 31.272 20.5589 31.32C20.6989 31.372 21.0549 31.496 21.2669 31.52C21.9109 31.596 22.6509 31.512 22.6589 31.512H22.6669L22.6629 31.516C22.4789 31.704 22.1189 31.82 21.5949 31.86C21.2629 31.884 20.8829 31.876 20.4269 31.84C20.6309 32.228 20.8549 32.712 21.0229 33.132L21.0269 33.14C21.1149 33.364 21.1149 33.364 22.3829 33.5V33.504C21.9949 33.54 21.6949 33.62 21.4949 33.672C21.3829 33.7 21.3029 33.724 21.2549 33.724C21.2429 33.724 21.2349 33.728 21.2309 33.74C21.1989 33.804 21.3189 34.04 21.3549 34.088C21.5709 34.3 21.8949 34.344 22.2069 34.388C22.2589 34.396 22.3149 34.404 22.3669 34.412C23.9189 34.564 27.3269 34.288 27.3589 34.284V34.288C27.3189 34.3 23.4789 35.652 21.6069 36.22C21.1069 36.348 20.6029 36.412 20.1189 36.412ZM24.2909 25.736C24.1629 26.424 23.7589 26.94 23.3709 27.44C23.2909 27.54 23.2189 27.636 23.1429 27.736C23.0549 27.876 23.0029 28.064 23.4189 28.648C23.5269 28.796 23.9149 28.832 24.2189 28.816C24.1389 28.756 24.0429 28.692 23.9509 28.632C23.7229 28.48 23.4869 28.32 23.4349 28.18L23.4309 28.172L23.4349 28.176C23.8949 28.488 24.3589 28.62 24.8149 28.56C24.9109 28.548 25.0309 28.448 25.1189 28.292C25.2989 27.904 25.4429 27.8 25.5829 27.696L25.5989 27.684L25.9389 28.108L26.3189 27.784C25.3949 27.056 24.7269 26.384 24.2909 25.736Z" fill="black"/>
</svg>
