<svg width="40" height="40" viewBox="0 0 40 40" fill="none" xmlns="http://www.w3.org/2000/svg">
<g clip-path="url(#clip0_15_5460)">
<mask id="mask0_15_5460" style="mask-type:luminance" maskUnits="userSpaceOnUse" x="-1" y="0" width="41" height="40">
<path d="M39.9976 0H-0.00244141V40H39.9976V0Z" fill="white"/>
</mask>
<g mask="url(#mask0_15_5460)">
<path d="M8.46655 0H10.2628V1.78125H11.9191V0H13.7166V5.39125H11.9191V3.59375H10.2791V5.39125H8.46655M16.0916 1.7975H14.5053V0H19.4816V1.7975H17.8891V5.39125H16.0916M20.2716 0H22.1541L23.3103 1.89875L24.4666 0H26.3491V5.39125H24.5528V2.71875L23.2953 4.65625L22.0378 2.71875V5.39125H20.2716M27.2403 0H29.0378V3.61H31.5853V5.39125H27.2403" fill="black"/>
<path d="M8.40394 36.7975L5.8252 7.85999H34.1689L31.5914 36.7812L19.9739 40" fill="#E44D26"/>
<path d="M19.9978 37.5387V10.235H31.5841L29.3728 34.9225" fill="#F16529"/>
<path d="M11.0916 13.7738H19.9978V17.3213H14.9828L15.3103 20.9538H19.9978V24.4926H12.0603M12.2166 26.2738H15.7791L16.0291 29.1101L19.9978 30.1726V33.8751L12.7166 31.8438" fill="#EBEBEB"/>
<path d="M28.8727 13.7738H19.9827V17.3213H28.5452M28.2252 20.9538H19.9827V24.5001H24.3577L23.9439 29.1101L19.9827 30.1726V33.8601L27.2477 31.8438" fill="white"/>
</g>
</g>
<defs>
<clipPath id="clip0_15_5460">
<rect width="40" height="40" fill="white"/>
</clipPath>
</defs>
</svg>
