<svg width="40" height="40" viewBox="0 0 40 40" fill="none" xmlns="http://www.w3.org/2000/svg">
<path d="M29.9314 12.9888V8.29128C30.5521 8.00115 31.0777 7.54066 31.447 6.96343C31.8163 6.3862 32.014 5.71597 32.0171 5.03075V4.92296C32.0171 2.92509 30.3975 1.30549 28.3998 1.30549H28.2919C26.294 1.30549 24.6744 2.92509 24.6744 4.92296V5.03075C24.6775 5.71597 24.8753 6.3862 25.2445 6.96343C25.6138 7.54066 26.1394 8.00115 26.7601 8.29128V12.9888C24.976 13.262 23.2957 14.0018 21.8894 15.1333L9.00614 5.09857C9.098 4.76694 9.14592 4.42592 9.15134 4.08363C9.15291 3.27742 8.91535 2.48886 8.4687 1.81769C8.02205 1.14652 7.38638 0.622889 6.64209 0.313037C5.89781 0.00318463 5.07834 -0.0789698 4.28736 0.0769654C3.49638 0.232901 2.76941 0.61992 2.19842 1.18907C1.62742 1.75822 1.23804 2.48393 1.07954 3.2744C0.921043 4.06487 1.00054 4.88459 1.30798 5.62988C1.61541 6.37517 2.13698 7.01253 2.8067 7.46136C3.47642 7.91018 4.26421 8.1503 5.07041 8.15134C5.7757 8.14801 6.46777 7.95972 7.07752 7.60526L19.7638 17.4771C17.4315 21.0005 17.4939 25.5925 19.921 29.0514L16.0625 32.911C15.7504 32.8114 15.4256 32.7584 15.0982 32.7539C13.2502 32.7555 11.7532 34.2541 11.7537 36.102C11.7542 37.9497 13.2522 39.4476 15.0999 39.448C16.9478 39.4485 18.4464 37.9515 18.448 36.1036C18.4436 35.7762 18.3906 35.4513 18.2907 35.1394L22.1078 31.3209C25.5185 33.9465 30.2028 34.1727 33.8507 31.888C37.4984 29.6031 39.3393 25.2895 38.4653 21.075C37.5912 16.8604 34.1869 13.6349 29.9314 12.9888ZM28.3492 28.4386C27.644 28.4576 26.9421 28.3351 26.2851 28.0783C25.628 27.8216 25.0291 27.4358 24.5236 26.9437C24.0181 26.4516 23.6163 25.8633 23.342 25.2133C23.0676 24.5634 22.9263 23.8651 22.9263 23.1597C22.9263 22.4542 23.0676 21.7559 23.342 21.106C23.6163 20.4561 24.0181 19.8677 24.5236 19.3757C25.0291 18.8836 25.628 18.4978 26.2851 18.241C26.9421 17.9843 27.644 17.8618 28.3492 17.8807C31.191 17.9802 33.4438 20.3121 33.4454 23.1559C33.4466 25.9993 31.1963 28.3336 28.3544 28.4359" fill="#FF7A59"/>
</svg>
