<svg width="40" height="40" viewBox="0 0 40 40" fill="none" xmlns="http://www.w3.org/2000/svg">
<path d="M29.1157 3H10.8843C6.52994 3 3 6.52994 3 10.8843V29.1157C3 33.4701 6.52994 37 10.8843 37H29.1157C33.4701 37 37 33.4701 37 29.1157V10.8843C37 6.52994 33.4701 3 29.1157 3Z" fill="url(#paint0_linear_556_1876)" stroke="#D9D9D8" stroke-width="0.27"/>
<path fill-rule="evenodd" clip-rule="evenodd" d="M8.81051 27H8.15787V15.9723H8.81051V27ZM8.47366 13.2636C8.37584 13.2571 8.28168 13.2144 8.20289 13.1408C8.1241 13.0672 8.06414 12.9659 8.03047 12.8496C7.99679 12.7332 7.99089 12.607 8.01348 12.4864C8.03607 12.3659 8.08617 12.2564 8.15754 12.1716C8.22892 12.0867 8.31844 12.0303 8.41498 12.0092C8.51151 11.9881 8.61082 12.0034 8.70055 12.0531C8.79029 12.1028 8.86651 12.1847 8.91974 12.2887C8.97297 12.3927 9.00087 12.5142 8.99998 12.638C9.00012 12.7236 8.98635 12.8084 8.95954 12.887C8.93272 12.9656 8.89343 13.0365 8.84409 13.0951C8.79475 13.1538 8.73642 13.199 8.6727 13.228C8.60898 13.2569 8.54124 13.2691 8.47366 13.2636Z" fill="url(#paint1_linear_556_1876)"/>
<path fill-rule="evenodd" clip-rule="evenodd" d="M16.5 27C12.5212 27 10 24.0997 10 19.4934C10 14.8871 12.5278 12 16.5 12C20.4722 12 23 14.9068 23 19.4934C23 24.0801 20.4854 27 16.5 27ZM16.5 12.748C13.0333 12.748 10.8207 15.3727 10.8207 19.4934C10.8207 23.6142 13.0465 26.252 16.5 26.252C19.9535 26.252 22.1793 23.6273 22.1793 19.4934C22.1793 15.3596 19.9667 12.748 16.5 12.748Z" fill="url(#paint2_linear_556_1876)"/>
<path fill-rule="evenodd" clip-rule="evenodd" d="M28.0826 27C25.1919 27 23.1144 25.3144 23 22.9007H23.7687C23.8895 24.8684 25.6747 26.2589 28.1461 26.2589C30.6175 26.2589 32.2122 24.8553 32.2122 22.9794C32.2122 21.4512 31.2147 20.5789 28.845 19.9624L27.1741 19.5361C24.5629 18.8802 23.3621 17.7586 23.3621 15.9353C23.3621 13.6594 25.4142 12 27.9873 12C30.5604 12 32.6315 13.6135 32.7205 15.7516H31.9708C31.8628 14.007 30.2109 12.7346 27.9873 12.7346C25.8653 12.7346 24.1753 14.0463 24.1753 15.8894C24.1753 17.3389 25.2109 18.1784 27.479 18.7621L29.0546 19.1753C31.7802 19.8771 33 20.9528 33 22.8942C33 25.3078 31.0369 26.9934 28.0826 26.9934V27Z" fill="url(#paint3_linear_556_1876)"/>
<defs>
<linearGradient id="paint0_linear_556_1876" x1="20.3094" y1="19.5423" x2="20.3094" y2="37.0516" gradientUnits="userSpaceOnUse">
<stop stop-color="white"/>
<stop offset="1" stop-color="#E9E5E4"/>
</linearGradient>
<linearGradient id="paint1_linear_556_1876" x1="8.75172" y1="11.6454" x2="8.75172" y2="24.885" gradientUnits="userSpaceOnUse">
<stop stop-color="#3D57A7"/>
<stop offset="1" stop-color="#12ADE4"/>
</linearGradient>
<linearGradient id="paint2_linear_556_1876" x1="11.9308" y1="13.9885" x2="20.7452" y2="22.1023" gradientUnits="userSpaceOnUse">
<stop stop-color="#3E60AD"/>
<stop offset="0.37" stop-color="#3F9ED8"/>
<stop offset="0.72" stop-color="#16B5B6"/>
<stop offset="1" stop-color="#8AC643"/>
</linearGradient>
<linearGradient id="paint3_linear_556_1876" x1="23.4496" y1="12.6055" x2="34.3914" y2="21.367" gradientUnits="userSpaceOnUse">
<stop stop-color="#25BAA6"/>
<stop offset="0.5" stop-color="#A2CD3A"/>
<stop offset="1" stop-color="#D6E040"/>
</linearGradient>
</defs>
</svg>
