<svg width="40" height="40" viewBox="0 0 40 40" fill="none" xmlns="http://www.w3.org/2000/svg">
<g clip-path="url(#clip0_556_1987)">
<path d="M14.5327 30.7538C14.5327 30.7538 13.0127 31.6375 15.6139 31.9363C18.3573 32.3216 21.148 32.2035 23.8489 31.5875C24.5466 32.005 25.2783 32.3625 26.0364 32.6563C18.2514 35.9925 8.41142 32.4625 14.5364 30.7538" fill="#5382A1"/>
<path d="M13.5825 26.4C13.5825 26.4 11.8788 27.6625 14.48 27.9313C18.0254 28.3529 21.6163 28.1805 25.105 27.4213C25.5765 27.8628 26.1333 28.2031 26.7413 28.4213C17.3288 31.1713 6.84503 28.6363 13.5825 26.4013" fill="#5382A1"/>
<path d="M21.5988 19.0138C23.5175 21.2226 21.0988 23.2101 21.0988 23.2101C21.0988 23.2101 25.9738 20.6951 23.7325 17.5476C21.6438 14.6113 20.0413 13.1526 28.715 8.12256C28.715 8.12256 15.1025 11.5226 21.6038 19.0151" fill="#E76F00"/>
<path d="M31.8976 33.9738C31.8976 33.9738 33.0226 34.9 30.6589 35.6163C26.1589 36.9775 11.9576 37.3888 8.01012 35.67C6.59137 35.0525 9.25262 34.1963 10.0901 34.0163C10.54 33.9066 11.0021 33.8549 11.4651 33.8625C9.88762 32.7513 1.26637 36.045 7.09012 36.9875C22.9651 39.5625 36.0214 35.8288 31.9064 33.9725" fill="#5382A1"/>
<path d="M15.2625 21.89C15.2625 21.89 8.03502 23.6062 12.7025 24.23C15.886 24.4767 19.0851 24.4424 22.2625 24.1275C25.2538 23.8775 28.2625 23.3387 28.2625 23.3387C27.6312 23.6129 27.0234 23.9382 26.445 24.3112C19.1063 26.2412 4.92752 25.3437 9.01002 23.3687C10.9488 22.3846 13.0945 21.8772 15.2688 21.8887" fill="#5382A1"/>
<path d="M28.2288 29.1362C35.6901 25.2612 32.2401 21.5337 29.8326 22.0362C29.5429 22.09 29.2578 22.1665 28.9801 22.2649C29.138 22.0405 29.3603 21.8693 29.6176 21.7737C34.3813 20.1 38.0451 26.7137 28.0801 29.3325C28.1412 29.2766 28.1916 29.2101 28.2288 29.1362Z" fill="#5382A1"/>
<path d="M23.7302 0C23.7302 0 27.8627 4.13375 19.8127 10.4887C13.3565 15.5875 18.3402 18.4887 19.8127 21.8162C16.044 18.4162 13.279 15.4225 15.134 12.6375C17.854 8.5475 25.3977 6.565 23.7302 0Z" fill="#E76F00"/>
<path d="M15.9963 39.6399C23.1576 40.0987 34.1551 39.3899 34.4151 35.9974C34.4151 35.9974 33.9151 37.2824 28.4976 38.3024C22.5065 39.3302 16.3924 39.4243 10.3726 38.5812C10.3726 38.5812 11.2863 39.3387 15.9963 39.6399Z" fill="#5382A1"/>
</g>
<defs>
<clipPath id="clip0_556_1987">
<rect width="40" height="40" fill="white"/>
</clipPath>
</defs>
</svg>
