<svg width="40" height="40" viewBox="0 0 40 40" fill="none" xmlns="http://www.w3.org/2000/svg">
<g clip-path="url(#clip0_568_1111)">
<path d="M34.4988 19.2751C34.4988 27.1975 28.2165 33.6263 20.4653 33.6263C12.7142 33.6263 6.42993 27.1975 6.42993 19.2751C6.42993 11.3527 12.7123 4.92389 20.4634 4.92389C28.2165 4.92389 34.4988 11.3527 34.4988 19.2751Z" fill="#D33833"/>
<path d="M7.00637 22.8292C7.00637 22.8292 5.98849 7.8672 19.7841 7.43722L18.8233 5.82953L11.3424 8.34094L9.20386 10.7972L7.33552 14.3741L6.27197 18.5388L6.5897 21.3223" fill="#EF3D3A"/>
<path d="M10.8554 9.48438C8.39916 12.0091 6.87139 15.4832 6.87139 19.3322C6.87139 23.1811 8.39916 26.6552 10.8554 29.1781C13.3231 31.7028 16.7078 33.2534 20.4635 33.2534C24.2211 33.2534 27.6058 31.7028 30.0715 29.18C32.5278 26.6552 34.0556 23.1811 34.0556 19.3341C34.0556 15.4851 32.5278 12.011 30.0715 9.48818C27.6039 6.97486 24.2211 5.41474 20.4635 5.41474C16.7173 5.41094 13.3231 6.96154 10.8554 9.48438ZM10.2333 29.7774C7.6191 27.1061 6 23.4056 6 19.3322C6 15.2587 7.6191 11.5563 10.2333 8.87364C12.8474 6.20241 16.4699 4.53955 20.4654 4.53955C24.4608 4.53955 28.0814 6.20241 30.6975 8.87364C33.3116 11.5449 34.9307 15.2454 34.9307 19.3322C34.9307 23.4056 33.3116 27.108 30.6975 29.7793C28.0833 32.4619 24.4608 34.1134 20.4654 34.1134C16.4699 34.1134 12.8474 32.46 10.2333 29.7774Z" fill="#231F20"/>
<path d="M26.373 19.3531L24.2345 19.6708L21.3482 20L19.4799 20.0456L17.6572 19.9886L16.2645 19.5586L15.0317 18.223L14.0689 15.4946L13.854 14.9067L12.5754 14.4768L11.8296 13.242L11.2969 11.4764L11.8848 9.92578L13.2775 9.43871L14.3981 9.97144L14.9308 11.1491L15.5758 11.0464L15.7908 10.7743L15.5758 9.54145L15.5187 7.99084L15.8364 5.85234L15.825 4.63087L16.7992 3.06885L18.5077 1.83597L21.4966 0.557434L24.8129 1.0445L27.6991 3.12783L29.0347 5.26634L29.8947 6.81695L30.1097 10.6659L29.4647 13.9821L28.287 16.9254L27.1759 18.4931" fill="#F0D6B7"/>
<path d="M24.5616 28.6016L16.9228 28.9193V30.1979L17.5677 34.6918L17.25 35.0647L11.9075 33.242L11.5346 32.597L11.0019 26.5525L9.74619 22.93L9.47412 22.07L13.753 19.1267L15.0887 18.594L16.2664 20.0419L17.2842 20.9475L18.4619 21.3204L18.9947 21.4783L19.6396 24.2618L20.1267 24.8497L21.3596 24.4197L20.4996 26.0826L25.14 28.2782L24.5616 28.6016Z" fill="#335061"/>
<path d="M11.8847 9.94863L13.2774 9.46157L14.398 9.99429L14.9307 11.172L15.5757 11.0693L15.7336 10.4243L15.4159 9.1895L15.7336 6.2462L15.4615 4.63851L16.4242 3.51789L18.5076 1.86454L17.9197 1.06165L14.9764 2.50951L13.7435 3.47222L13.0529 4.96576L11.9893 6.41362L11.6697 8.12595L11.8847 9.94863Z" fill="#6D6B6D"/>
<path d="M14.0803 4.92388C14.0803 4.92388 14.8831 2.94328 18.0871 1.98057C21.2892 1.01786 18.245 1.28993 18.245 1.28993L14.7709 2.62555L13.4353 3.96117L12.8474 5.02471L14.0803 4.92388ZM12.4745 9.5757C12.4745 9.5757 11.3538 5.82951 15.6328 5.29678L15.4749 4.65181L12.5315 5.34245L11.6697 8.12593L11.8847 9.94861L12.4745 9.5757Z" fill="#DCD9D8"/>
<path d="M14.1831 14.5433L14.8852 13.8641C14.8852 13.8641 15.2029 13.8984 15.2581 14.2713C15.3151 14.6442 15.4731 18.0175 17.7714 19.8287C17.9864 19.998 16.0629 19.5567 16.0629 19.5567L14.3524 16.8873M24.0176 13.5254C24.0176 13.5254 24.1413 11.9063 24.5827 12.0319C25.0241 12.1556 25.0241 12.597 25.0241 12.597C25.0241 12.597 23.9624 13.2762 24.0176 13.5254ZM28.4544 7.59508C28.4544 7.59508 27.5716 7.77583 27.4917 8.55779C27.4118 9.33785 28.4544 8.71571 28.6123 8.66053M21.9932 7.65026C21.9932 7.65026 20.8155 7.80817 20.8155 8.55589C20.8155 9.30361 22.1511 9.24653 22.5241 8.92879M14.7253 11.1263C14.7253 11.1263 12.6991 9.89341 12.4841 11.0692C12.2691 12.2469 11.7935 13.0955 12.8018 14.3283L12.1112 14.1133L11.4662 12.4619L11.2512 10.8542L12.4841 9.57567L13.8768 9.67841L14.6797 10.3234L14.7253 11.1263ZM15.6881 7.753C15.6881 7.753 16.5937 3.04409 21.1884 2.13846C24.9689 1.39265 26.9609 2.29828 27.7086 3.15825C27.7086 3.15825 24.3353 -0.848602 21.1333 0.374762C17.9293 1.60764 15.5758 3.84889 15.631 5.28534C15.7223 7.753 15.6881 7.753 15.6881 7.753ZM28.0815 3.68907C28.0815 3.68907 26.5309 3.63199 26.4738 5.02469C26.4738 5.02469 26.4738 5.23968 26.5766 5.45467C26.5766 5.45467 27.8094 4.06198 28.5572 4.80969" fill="#F7E4CD"/>
<path d="M21.3024 5.60308C21.3024 5.60308 21.0304 3.47598 19.2191 4.70886C18.0414 5.51175 18.1556 6.63238 18.3591 6.84737C18.5741 7.06236 18.517 7.49235 18.6769 7.19745C18.8348 6.90254 18.7891 5.94174 19.3789 5.66967C19.9554 5.3995 20.9276 5.1046 21.3024 5.60308Z" fill="#F7E4CD"/>
<path d="M16.2759 20.0438L11.2511 22.285C11.2511 22.285 13.3345 30.5689 12.269 33.1393L11.5213 32.8672L11.4642 29.7089L10.0715 23.7329L9.48364 22.0795L14.7253 18.5502L16.2759 20.0438ZM16.7858 24.6271L17.4992 25.4985V28.7005H16.6507C16.6507 28.7005 16.548 26.4593 16.548 26.1872C16.548 25.9151 16.6507 24.9543 16.6507 24.9543M16.8086 29.1895L14.398 29.2922L15.0887 29.7793L16.7972 30.0514" fill="#49728B"/>
<path d="M25.0374 28.6567L27.0179 28.5997L27.505 33.5122L25.4788 33.7842L25.0374 28.6567Z" fill="#335061"/>
<path d="M25.5681 28.6568L28.5552 28.4988C28.5552 28.4988 29.7881 25.3976 29.7881 25.2397C29.7881 25.0818 30.8516 20.7458 30.8516 20.7458L28.441 18.2325L27.954 17.8025L26.6754 19.081V24.0506L25.5681 28.6568Z" fill="#335061"/>
<path d="M26.9037 28.2838L25.0354 28.6567L25.3075 30.1503C25.9981 30.468 27.1758 29.6176 27.1758 29.6176M26.9608 18.9231L30.707 21.7066L30.8098 20.4281L27.9806 17.8139L26.9608 18.9231Z" fill="#49728B"/>
<path d="M18.6655 39.1838L17.5563 34.6898L17.0007 31.3736L16.9094 28.9174L21.9227 28.6453H25.0354L24.7519 34.2599L25.239 38.594L25.1819 39.3968L21.1179 39.7146L18.6655 39.1838Z" fill="white"/>
<path d="M24.3467 28.6016C24.3467 28.6016 24.0747 34.1591 24.8795 38.1203C24.8795 38.1203 23.2718 39.1381 20.9297 39.3988L25.4236 39.2409L25.9563 38.9231L25.3113 30.1636L25.142 28.2839" fill="#DCD9D8"/>
<path d="M27.5829 33.0936L29.6662 32.5057L33.616 32.2907L34.2039 30.468L33.1403 27.3097L31.9075 27.1518L30.199 27.6845L28.5684 28.4874L27.697 28.3295L27.0178 28.6016" fill="white"/>
<path d="M27.5488 32.0186C27.5488 32.0186 28.9415 31.3736 29.1565 31.4307L28.5686 28.4874L29.2593 28.2153C29.2593 28.2153 29.7463 30.9988 29.7463 31.3166C29.7463 31.3166 32.7334 31.4745 33.0055 31.4745C33.0055 31.4745 33.6504 30.2416 33.4925 28.9611L34.0804 30.6697L34.1375 31.6324L33.2775 32.9109L32.3148 33.1259L30.7071 33.0688L30.1744 32.3782L28.3061 32.6503L27.7182 32.8653" fill="#DCD9D8"/>
<path d="M25.4445 28.2268L24.2668 25.2397L23.0339 23.4741C23.0339 23.4741 23.306 22.7264 23.6789 22.7264H24.9118L26.0895 23.1564L25.9868 25.137L25.4445 28.2268Z" fill="white"/>
<path d="M25.6822 27.2089C25.6822 27.2089 24.1887 24.3227 24.1887 23.8927C24.1887 23.8927 24.4608 23.2477 24.8337 23.4056C25.2066 23.5635 26.0114 23.9935 26.0114 23.9935V22.9756L24.1887 22.6027L22.9558 22.7606L25.0391 27.6959L25.4691 27.753" fill="#DCD9D8"/>
<path d="M19.1392 20.1579L17.6571 20L16.2644 19.57V20.0571L16.9436 20.8048L19.0821 21.7675" fill="white"/>
<path d="M16.7515 20.3158C16.7515 20.3158 18.4029 21.0064 18.9471 20.8485L19.0041 21.4935L17.5106 21.1758L16.605 20.5308L16.7515 20.3158Z" fill="#DCD9D8"/>
<path d="M27.5829 22.9071C26.6773 22.8843 25.8516 22.772 25.1381 22.5684C25.1838 22.2735 25.0924 21.992 25.1723 21.777C25.3759 21.6305 25.7051 21.6305 26.0095 21.5962C25.7488 21.4726 25.3759 21.4155 25.081 21.4935C25.0696 21.2899 24.9783 21.1643 24.9231 21.0064C25.433 20.8257 26.6316 19.6366 27.3108 20.0209C27.64 20.213 27.7751 21.2766 27.7979 21.8093C27.8207 22.2393 27.7522 22.6693 27.5829 22.9071Z" fill="#D33833"/>
<path d="M27.5829 22.9071C26.6773 22.8843 25.8516 22.772 25.1381 22.5684C25.1838 22.2735 25.0924 21.992 25.1723 21.777C25.3759 21.6305 25.7051 21.6305 26.0095 21.5962C25.7488 21.4726 25.3759 21.4155 25.081 21.4935C25.0696 21.2899 24.9783 21.1643 24.9231 21.0064C25.433 20.8257 26.6316 19.6366 27.3108 20.0209C27.64 20.213 27.7751 21.2766 27.7979 21.8093C27.8207 22.2393 27.7522 22.6693 27.5829 22.9071Z" fill="black"/>
<path d="M27.642 23.0232L27.5811 23.0213C26.6583 22.9985 25.825 22.8824 25.1077 22.6769L25.0107 22.6484L25.0259 22.5494C25.0449 22.4277 25.0373 22.3059 25.0316 22.1861C25.0221 22.0262 25.0145 21.874 25.0659 21.7332L25.0773 21.7009L25.1058 21.68C25.1762 21.6286 25.258 21.5924 25.3474 21.5677C25.2637 21.5696 25.1838 21.581 25.1115 21.6001L24.9764 21.6362L24.9688 21.4954C24.9612 21.3737 24.9232 21.2861 24.8775 21.1853C24.8566 21.1396 24.8356 21.0921 24.8166 21.0407L24.7786 20.9322L24.887 20.8942C25.0297 20.8428 25.2523 20.6925 25.4882 20.5308C26.0894 20.1236 26.8372 19.6157 27.3699 19.9163C27.8417 20.1921 27.9121 21.7332 27.914 21.7998C27.9388 22.2888 27.8512 22.7264 27.6781 22.968L27.642 23.0232ZM25.2618 22.4848C25.9239 22.6636 26.6831 22.7682 27.5221 22.793C27.6439 22.5818 27.7047 22.2165 27.6838 21.817C27.6534 21.0883 27.484 20.2568 27.2538 20.1217C26.8467 19.8915 26.1351 20.3748 25.6157 20.7268C25.4083 20.8676 25.2238 20.9931 25.0716 21.0673C25.0754 21.0768 25.0811 21.0864 25.0849 21.0959C25.1191 21.172 25.1572 21.2557 25.1781 21.3565C25.4597 21.3147 25.7907 21.3641 26.059 21.4916L26.4186 21.6647L26.0229 21.7085C25.9658 21.7142 25.9068 21.7199 25.8497 21.7256C25.6252 21.7466 25.4121 21.7656 25.2694 21.8493C25.2466 21.9387 25.2523 22.051 25.2599 22.1765C25.2637 22.2717 25.2694 22.3763 25.2618 22.4848Z" fill="#D33833"/>
<path d="M23.2489 21.425C23.2489 21.4935 23.2489 21.5601 23.2375 21.6286C22.954 21.8093 22.5012 21.8093 22.1853 21.9672C22.6381 21.9901 22.9996 22.1023 23.3174 22.2507C23.306 22.42 23.306 22.6008 23.2945 22.772C22.7732 23.1221 22.2976 23.6548 21.6869 23.9935C21.392 24.1514 20.3855 24.5586 20.0792 24.4805C19.9098 24.4349 19.887 24.2199 19.8185 24.0163C19.672 23.5863 19.3315 22.8843 19.2972 22.2279C19.263 21.4022 19.1735 20.0095 20.0658 20.1788C20.7907 20.3139 21.6279 20.643 22.1815 20.9493C22.5354 21.1529 22.7276 21.3793 23.2489 21.425Z" fill="#D33833"/>
<path d="M23.2489 21.4251C23.2489 21.4935 23.2489 21.5601 23.2375 21.6286C22.954 21.8094 22.5012 21.8094 22.1853 21.9673C22.6381 21.9901 22.9996 22.1024 23.3174 22.2508C23.306 22.4201 23.306 22.6009 23.2945 22.7721C22.7732 23.1222 22.2976 23.6549 21.6869 23.9935C21.392 24.1515 20.3855 24.5586 20.0792 24.4806C19.9098 24.4349 19.887 24.22 19.8185 24.0164C19.672 23.5864 19.3315 22.8843 19.2972 22.2279C19.263 21.4022 19.1735 20.0095 20.0658 20.1789C20.7907 20.3139 21.6279 20.6431 22.1815 20.9494C22.5354 21.153 22.7276 21.3794 23.2489 21.4251Z" fill="black"/>
<path d="M20.1742 24.6043C20.1286 24.6043 20.0867 24.6004 20.0506 24.5909C19.8508 24.5377 19.7956 24.3417 19.7461 24.1686C19.7347 24.1305 19.7233 24.0906 19.7119 24.0525C19.6795 23.9555 19.6339 23.8413 19.5863 23.7195C19.4189 23.2915 19.2115 22.7568 19.1849 22.2336L19.1811 22.1461C19.1525 21.4726 19.1126 20.5498 19.5235 20.1941C19.6719 20.0666 19.8622 20.0228 20.0905 20.0666C20.764 20.1922 21.6088 20.5004 22.2404 20.8485L22.2423 20.8504C22.3299 20.9018 22.4079 20.9532 22.484 21.0046C22.7047 21.153 22.8949 21.2804 23.2602 21.3109L23.3649 21.3204V21.425C23.3649 21.4973 23.3649 21.5696 23.3515 21.6476L23.3439 21.6971L23.3021 21.7237C23.1366 21.8303 22.9254 21.8778 22.7218 21.9235C22.9387 21.973 23.1518 22.0453 23.3668 22.1461L23.4372 22.1785L23.4315 22.2565C23.4257 22.3402 23.4238 22.4296 23.42 22.5152C23.4181 22.6008 23.4143 22.6902 23.4086 22.7778L23.4048 22.8329L23.3592 22.8634C23.148 23.0061 22.9444 23.1792 22.7294 23.3619C22.425 23.6206 22.1111 23.887 21.7439 24.0906C21.5536 24.1952 20.6289 24.6043 20.1742 24.6043ZM19.9269 20.2797C19.826 20.2797 19.7423 20.3082 19.6738 20.3691C19.3466 20.6507 19.3846 21.5468 19.4094 22.1385L19.4132 22.226C19.4379 22.7112 19.6377 23.2249 19.7994 23.6396C19.847 23.7633 19.8926 23.8813 19.9288 23.9821C19.944 24.0259 19.9554 24.0677 19.9668 24.1096C20.0106 24.2618 20.041 24.355 20.1095 24.374C20.3588 24.4387 21.3082 24.0734 21.6335 23.8965C21.9798 23.7043 22.2842 23.4437 22.581 23.1925C22.7846 23.0194 22.9786 22.8539 23.1841 22.7112C23.1879 22.6465 23.1898 22.578 23.1917 22.5114C23.1936 22.4505 23.1955 22.3858 23.1993 22.3231C22.8645 22.1766 22.5391 22.1004 22.1795 22.0814L21.7458 22.0605L22.1339 21.8664C22.2937 21.7865 22.4783 21.7447 22.6571 21.7047C22.834 21.6648 23.0015 21.6267 23.1308 21.5582C23.1308 21.5468 23.1327 21.5373 23.1327 21.5259C22.777 21.4745 22.5715 21.3375 22.3565 21.1929C22.2842 21.1453 22.21 21.0959 22.1282 21.0483C21.5155 20.7116 20.6974 20.4129 20.0467 20.2911C20.0049 20.2835 19.963 20.2797 19.9269 20.2797Z" fill="#D33833"/>
<path d="M23.7588 22.4106C23.6789 21.9577 23.5895 21.8341 23.6237 21.4364C24.8338 20.6335 25.0488 22.8177 23.7588 22.4106Z" fill="#D33833"/>
<path d="M23.7586 22.4106C23.6787 21.9577 23.5892 21.8341 23.6235 21.4364C24.8335 20.6335 25.0485 22.8177 23.7586 22.4106Z" fill="black"/>
<path d="M24.0631 22.5761C23.9641 22.5761 23.8519 22.559 23.7244 22.519L23.0186 22.2964H23.6217C23.6046 22.2165 23.5893 22.1461 23.5741 22.0814C23.5227 21.8683 23.4866 21.7142 23.5113 21.4269L23.5151 21.3718L23.5608 21.3413C24.0954 20.9855 24.4151 21.1967 24.5273 21.3033C24.767 21.5316 24.8203 21.9597 24.6434 22.2584C24.5787 22.3668 24.4093 22.5761 24.0631 22.5761ZM23.8576 22.3193C24.1297 22.3877 24.337 22.325 24.4455 22.1404C24.5692 21.9311 24.533 21.6229 24.3694 21.4669C24.221 21.3261 23.9965 21.3394 23.732 21.5011C23.7187 21.7161 23.7491 21.8436 23.7929 22.0282C23.8138 22.1119 23.8348 22.2051 23.8576 22.3193Z" fill="#D33833"/>
<path d="M25.5015 22.7721C25.5015 22.7721 25.1285 22.2393 25.3987 22.0814C25.6708 21.9235 25.9314 22.0814 26.0894 21.8094C26.2473 21.5373 26.0894 21.3794 26.1464 21.0616C26.2035 20.7439 26.4642 20.6887 26.7343 20.6317C27.0064 20.5746 27.7522 20.4737 27.855 20.7344L27.5372 19.7717L26.8922 19.5567L24.866 20.7344L24.7632 21.3223V22.5M19.8869 24.5377C19.8184 23.7005 19.7518 22.8748 19.6833 22.0358C19.5711 20.7915 19.9782 21.0065 21.0646 21.0065C21.2339 21.0065 22.0825 21.1986 22.1396 21.3242C22.4345 21.9235 21.6525 21.7884 22.4782 22.2413C23.1689 22.6142 24.4018 22.0148 24.1202 21.1663C23.9623 20.9741 23.3059 21.1092 23.068 20.9855L21.8123 20.3406C21.2796 20.0685 20.0581 19.6613 19.4931 20.0457C18.0547 21.0198 19.5844 23.4646 20.0924 24.4825" fill="#EF3D3A"/>
<path d="M21.3025 5.60308C19.8432 5.26441 19.1183 6.21381 18.6769 7.19935C18.2812 7.10802 18.4391 6.56578 18.5419 6.29371C18.8025 5.58024 19.8546 4.61944 20.7146 4.75452C21.0761 4.79828 21.5727 5.13884 21.3025 5.60308ZM28.3992 7.25452H28.4677C28.7968 7.93374 29.0784 8.65863 29.497 9.26936C29.2135 9.92575 27.3927 10.4908 27.4136 9.33785C27.8094 9.16852 28.4886 9.30361 28.8406 9.0772C28.6351 8.52164 28.3535 8.0479 28.3992 7.25452ZM22.0369 7.27735C22.3546 7.85384 22.4555 8.45505 22.8969 8.88504C23.1005 9.0772 23.4848 9.31502 23.2926 9.85916C23.247 9.98283 22.9197 10.2663 22.7276 10.3234C22.0369 10.527 20.4178 10.3691 20.962 9.49767C21.5384 9.5205 22.309 9.87058 22.739 9.45201C22.4117 8.9307 21.8219 7.88808 22.0369 7.27735ZM28.1385 13.0955C27.0978 13.7633 25.9315 14.4996 24.2116 14.3283C23.8501 14.0106 23.7017 13.299 24.0651 12.8348C24.2458 13.1525 24.1336 13.7404 24.653 13.8299C25.6271 13.9992 26.7572 13.2305 27.4593 12.9699C27.8893 12.2336 27.425 11.9729 27.0293 11.4992C26.2264 10.5365 25.161 9.33785 25.1952 7.8995C25.5244 7.66168 25.5453 8.26099 25.5909 8.36373C26.0095 9.33785 27.0616 10.5936 27.8208 11.4307C28.0129 11.6343 28.3193 11.8379 28.3535 11.9748C28.4543 12.3592 28.0928 12.8348 28.1385 13.0955ZM14.3524 12.3934C14.0251 12.2012 13.9452 11.3869 13.5609 11.3641C13.0072 11.3299 13.1081 12.4277 13.1081 13.0726C12.7352 12.734 12.6667 11.6685 12.9387 11.1263C12.621 10.9684 12.4859 11.2956 12.3052 11.4098C12.5411 9.76784 14.7158 10.6506 14.3524 12.3934ZM28.7949 13.7861C28.3078 14.7146 27.6172 15.7325 26.1922 15.7667C26.1579 15.4718 26.1351 15.0076 26.1922 14.8268C27.29 14.7127 27.9673 14.159 28.7949 13.7861ZM21.9589 14.3854C22.8645 14.8611 24.5388 14.9181 25.785 14.8839C25.8535 15.156 25.8535 15.4946 25.8535 15.8238C24.2553 15.8904 22.3775 15.4946 21.9589 14.3854ZM21.7896 15.2682C22.4231 16.8531 24.5845 16.6723 26.4072 16.6267C26.3272 16.8302 26.1579 17.0795 25.9315 17.1594C25.3436 17.3972 23.7359 17.578 22.9216 17.148C22.4117 16.8759 22.0731 16.2538 21.7896 15.8923C21.664 15.721 20.9848 15.2796 21.7896 15.2682Z" fill="#231F20"/>
<path d="M28.0585 23.9935C27.3222 25.2606 26.6106 26.562 25.7393 27.6712C26.1007 26.5963 26.2606 24.785 26.3157 23.4037C27.0844 23.0441 27.7427 23.4855 28.0585 23.9935Z" fill="#81B0C4"/>
<path d="M32.0312 28.5445C31.2054 28.7138 30.6271 29.5186 29.8127 29.4615C30.2656 28.8375 31.0361 28.5673 32.0312 28.5445ZM32.3927 29.8344C31.7134 29.9029 30.922 30.0152 30.2427 29.9581C30.5719 29.4615 31.8162 29.6423 32.3927 29.8344ZM32.6305 30.9551C31.8713 30.9665 30.9334 30.9551 30.2085 30.898C30.6385 30.4338 32.1453 30.7287 32.6305 30.9551Z" fill="#231F20"/>
<path d="M26.6335 34.0107C26.7457 34.962 27.1206 35.9228 27.0749 36.9654C26.6563 37.1005 26.4185 37.226 25.8515 37.226C25.8173 36.3432 25.6936 34.9848 25.7279 34.1362C25.998 34.1572 26.4071 33.9422 26.6335 34.0107Z" fill="#DCD9D8"/>
<path d="M25.4102 19.9772C25.0259 20.2264 24.7082 20.5308 24.3353 20.8029C23.5209 20.8486 23.0795 20.7458 22.4897 20.2816C22.5012 20.2473 22.5582 20.2588 22.5582 20.2131C23.4296 20.5993 24.5388 20.0552 25.4102 19.9772Z" fill="#F0D6B7"/>
<path d="M20.8611 25.8961C21.0989 24.8668 22.0388 24.3226 22.8873 23.7576C23.7587 24.8668 24.2914 26.2918 24.8793 27.6731C23.4867 27.2545 22.0711 26.5867 20.8611 25.8961Z" fill="#81B0C4"/>
<path d="M25.728 34.1457C25.6937 34.9943 25.8079 36.3413 25.8516 37.2355C26.4167 37.2355 26.6545 37.1119 27.075 36.9749C27.1207 35.9342 26.7459 34.9714 26.6336 34.0201C26.4072 33.9421 25.9981 34.1571 25.728 34.1457ZM16.9894 29.3474C17.3623 32.7549 17.895 35.6069 18.8787 38.6282C21.0628 39.296 23.6884 39.3531 25.6252 38.7519C25.2752 37.0548 25.4217 34.9829 25.2181 33.1602C25.0602 31.7903 25.1382 30.4205 24.9232 29.0297C22.5811 28.5445 19.2763 28.9174 16.9894 29.3474ZM25.4787 29.0544C25.4559 30.5137 25.5472 31.9634 25.6595 33.4227C26.2246 33.3428 26.5994 33.2877 27.1188 33.1621C26.9494 31.758 26.9723 30.1636 26.6203 28.9174C26.2246 28.9288 25.8745 28.9174 25.4787 29.0544ZM28.3193 28.8166C28.0472 28.7595 27.7428 28.8166 27.4936 28.8166C27.6172 30.0057 27.9007 31.3185 28.0035 32.5742C28.3992 32.5856 28.6142 32.3934 28.9433 32.3364C28.9643 31.2386 28.8501 29.7203 28.3193 28.8166ZM32.6306 32.7549C33.4677 32.5513 33.989 31.5335 33.7512 30.4794C33.5933 29.7774 33.3212 28.4418 33.0149 27.9889C32.7999 27.6617 32.2006 27.2203 31.7135 27.5247C30.9335 28.0232 29.5636 28.1697 28.9966 28.769C29.2801 29.7203 29.3695 31.0103 29.4837 32.2089C30.4578 32.266 31.645 31.9368 32.4612 32.2888C31.8962 32.4695 31.1713 32.4695 30.6842 32.7416C31.0914 32.9357 32.0198 32.9014 32.6306 32.7549ZM24.868 27.6731C24.2801 26.2918 23.7474 24.8668 22.876 23.7576C22.0274 24.3227 21.099 24.8668 20.8497 25.8961C22.0712 26.5867 23.4867 27.2545 24.868 27.6731ZM26.3159 23.4056C26.2588 24.7869 26.1009 26.5982 25.7394 27.6731C26.6108 26.5525 27.3242 25.2625 28.0586 23.9954C27.7428 23.4855 27.0845 23.0441 26.3159 23.4056ZM24.6739 22.8291C24.3448 22.7949 24.0632 23.2134 23.6332 23.0327C23.5305 23.145 23.4411 23.2591 23.3383 23.3714C24.2896 24.5262 24.731 26.1548 25.4654 27.5019C25.8612 26.2005 25.8155 24.785 25.9068 23.3714C25.3646 23.3942 25.0602 22.8634 24.6739 22.8291ZM23.6218 21.4364C23.5876 21.8322 23.6789 21.9577 23.7569 22.4106C25.0488 22.8177 24.8338 20.6335 23.6218 21.4364ZM22.1854 20.9608C21.6317 20.6545 20.7927 20.3272 20.0697 20.1921C19.1755 20.0228 19.2668 21.4136 19.301 22.2412C19.3353 22.8976 19.6739 23.5883 19.8223 24.0297C19.8908 24.2332 19.9137 24.4482 20.083 24.4939C20.3893 24.5624 21.4072 24.1666 21.6907 24.0068C22.3014 23.6796 22.7771 23.1469 23.2984 22.7854C23.3098 22.616 23.3098 22.4353 23.3212 22.2641C23.0035 22.1061 22.6534 22.0034 22.1892 21.9806C22.4955 21.8227 22.9597 21.8227 23.2413 21.6419C23.2413 21.5734 23.2413 21.5068 23.2527 21.4383C22.7276 21.3794 22.5354 21.1529 22.1854 20.9608ZM16.8657 20C16.4015 20.4756 18.1671 21.1092 18.7226 21.1434C18.7226 20.8485 18.892 20.5669 18.8577 20.352C18.1899 20.2359 17.3185 20.3158 16.8657 20ZM22.5697 20.215C22.5697 20.2606 22.5126 20.2492 22.5012 20.2835C23.1005 20.7477 23.5419 20.8485 24.3467 20.8048C24.7082 20.5441 25.0373 20.2283 25.4217 19.9791C24.5389 20.0552 23.4297 20.5993 22.5697 20.215ZM27.798 21.7979C27.7752 21.2766 27.6401 20.2017 27.3109 20.0095C26.6317 19.6138 25.4331 20.8124 24.9232 20.995C24.9803 21.1529 25.0697 21.2785 25.0811 21.4821C25.3874 21.4022 25.7489 21.4593 26.0096 21.5848C25.7032 21.6191 25.376 21.6191 25.1724 21.7656C25.1039 21.9806 25.1953 22.2641 25.1382 22.5571C25.8516 22.7606 26.6774 22.8634 27.583 22.8957C27.7523 22.6693 27.8208 22.2393 27.798 21.7979ZM16.0838 20.4509C15.9373 20.3482 14.9517 19.0696 14.8166 19.1267C13.0396 19.8287 11.3768 21.0388 9.89274 22.1937C11.3083 25.2378 11.8847 28.9612 11.9875 32.5494C13.6066 33.3086 15.0316 34.4064 17.2386 34.5186C16.978 32.7188 16.7516 31.0997 16.6051 29.4026C16.0514 29.1647 15.258 29.414 14.7367 29.3341C14.7367 28.7119 15.5282 29.062 15.5967 28.6434C15.6424 28.3257 15.1553 28.3048 15.3132 27.8063C15.7204 27.9528 15.9354 28.2819 16.3653 28.4056C16.7611 27.5456 16.3653 26.0179 16.4224 25.293C16.4338 25.1579 16.4909 24.5453 16.7953 24.648C17.0674 24.7393 16.7839 26.2899 16.8067 26.9673C16.8296 27.6008 16.7268 28.2001 16.9875 28.5978C19.1146 28.3029 21.2778 28.1221 23.5857 28.0536C23.0758 27.8386 22.4765 27.6351 21.8201 27.2622C21.4586 27.0586 20.3379 26.64 20.2352 26.2994C20.0659 25.7553 20.6652 25.4737 20.7679 25.0095C19.693 25.5974 19.4894 24.4444 19.2287 23.6396C19.0023 22.9033 18.8672 22.3497 18.8102 21.9311C17.8722 21.4593 16.8771 21.0179 16.0838 20.4509ZM26.8581 19.2751C28.3402 18.5616 28.6123 21.9577 28.0244 23.0555C28.1157 23.3828 28.4201 23.5084 28.5457 23.8033C27.72 25.2854 26.8029 26.6666 25.9544 28.1259C26.5765 27.7302 27.4822 28.0574 28.2185 27.7644C28.4905 27.6617 28.6827 27.0396 28.8863 26.543C29.4513 25.1845 30.0411 23.4646 30.3018 22.1746C30.3589 21.8797 30.5282 21.2348 30.4825 20.9741C30.414 20.4985 29.7805 20.1484 29.4532 19.8649C28.8539 19.3208 28.4791 18.8584 27.8456 18.3485C27.6058 18.7195 27.0636 18.9688 26.8581 19.2751ZM12.701 6.13392C11.9989 6.91398 12.1473 8.36375 12.2253 9.40447C13.5039 8.60158 15.1914 9.47296 15.18 10.8314C15.7908 10.82 15.4064 10.0723 15.2942 9.58712C14.9327 8.01368 15.9049 6.31657 15.3398 4.87821C14.2402 4.96954 13.3459 5.41094 12.701 6.13392ZM17.7485 1.61908C16.1523 2.0719 14.1051 3.23818 13.4487 4.67464C13.9586 4.59473 14.3086 4.34739 14.8071 4.31315C14.9993 4.30173 15.2485 4.39305 15.4635 4.33598C15.8935 4.22372 16.2664 3.2496 16.5956 2.88811C16.9133 2.53803 17.2976 2.37821 17.5583 2.06238C17.7276 1.98248 17.9768 1.98248 17.9882 1.73324C17.9179 1.65333 17.8379 1.59625 17.7485 1.61908ZM26.0666 2.04907C24.4038 1.10919 21.5956 0.407134 19.83 1.28993C18.403 2.0034 16.4795 3.1792 15.8231 4.66322C16.4338 6.09968 15.6424 7.41246 15.5853 8.87365C15.5625 9.65371 15.9468 10.3234 15.981 11.172C15.766 11.5221 15.1325 11.5563 14.6911 11.5335C14.5446 10.7857 14.2839 9.94861 13.5134 9.85919C12.427 9.73552 11.6241 10.6392 11.5784 11.5791C11.5214 12.6883 12.427 14.5224 13.7169 14.3969C14.2154 14.3512 14.3391 13.8527 14.8832 13.8527C15.1781 14.4406 14.4304 14.6214 14.3505 15.0418C14.3277 15.156 14.4076 15.5746 14.4628 15.7781C14.7006 16.7408 15.2219 17.9966 15.7299 18.7329C16.3863 19.6727 17.6648 19.8078 19.0461 19.8991C19.2953 19.3664 20.201 19.4121 20.7889 19.5491C20.0754 19.2656 19.419 18.5864 18.8768 17.987C18.2546 17.2964 17.6211 16.5601 17.5868 15.6564C18.7759 17.2983 19.7481 18.7348 21.8981 19.4596C23.5286 20.0019 25.4293 19.2104 26.685 18.3276C27.2063 17.9661 27.5107 17.3763 27.8855 16.8569C29.2668 14.8649 29.9118 12.0357 29.7748 9.28461C29.7177 8.15257 29.7177 7.02053 29.3334 6.2633C28.9376 5.47182 27.5906 4.74694 26.7991 5.47182C26.6526 4.69176 27.4555 4.21611 28.3954 4.4977C27.7314 3.62251 27.0293 2.5913 26.0666 2.04907ZM29.1679 27.6389C30.4692 26.9939 32.8912 25.9075 33.6941 27.6389C34.0004 28.2838 34.3505 29.3588 34.497 30.0266C34.712 30.9551 34.2592 32.9243 33.2965 33.2287C32.4479 33.5007 31.4624 33.4893 30.4445 33.2857C30.3208 33.183 30.1953 33.0137 30.0944 32.8329C29.3695 32.8101 28.6789 32.8672 28.1138 33.1735C28.1709 33.7157 27.8075 33.7956 27.4574 33.9098C27.2082 34.9163 27.9673 36.2291 27.7866 37.1347C27.6629 37.7911 26.8581 37.8938 26.2702 38.0061C26.2474 38.3676 26.293 38.6739 26.3387 38.9802C26.2036 39.4787 25.6024 39.7603 25.0259 39.8287C23.1367 40.0552 20.2733 40.156 18.462 39.4996C17.9521 38.2553 17.5564 36.7485 17.1378 35.3348C15.3722 35.527 13.9357 34.5757 12.5887 33.9421C12.1245 33.7271 11.4795 33.6035 11.2988 33.2287C11.1294 32.8672 11.196 32.1765 11.1523 31.5316C11.0495 29.8687 10.9487 28.261 10.5187 26.562C10.3265 25.7934 9.97455 25.1256 9.73863 24.3892C9.51222 23.71 9.1279 22.8615 9.02516 22.1822C8.87866 21.1758 9.82805 21.1187 10.4293 20.6773C11.3691 19.9981 12.1035 19.6252 13.1233 19.0144C13.4297 18.8337 14.3353 18.3809 14.4361 18.1659C14.6397 17.7473 14.086 17.1594 13.9376 16.8303C13.6998 16.309 13.5761 15.8676 13.5419 15.3596C12.6933 15.2245 12.037 14.7146 11.6526 14.1495C11.0077 13.1982 10.5548 11.444 11.1199 10.1198C11.1656 10.0171 11.3806 9.80211 11.4148 9.6442C11.4833 9.32646 11.2911 8.90789 11.2797 8.56923C11.2226 6.83788 11.5746 5.34435 12.739 4.82304C13.209 2.93187 14.908 2.30972 16.5023 1.36984C17.1016 1.01977 17.758 0.793359 18.4373 0.54412C20.8707 -0.350096 24.6169 -0.180766 26.6431 1.34701C27.5031 1.99199 28.873 3.36185 29.36 4.35691C30.6614 6.97106 30.5605 11.3508 29.6549 14.5434C29.5312 14.9733 29.36 15.5955 29.1108 16.1168C28.9414 16.4783 28.4087 17.1918 28.4658 17.5095C28.5343 17.8386 29.6892 18.71 29.9365 18.9478C30.3779 19.3778 31.2265 19.9448 31.2949 20.487C31.3749 21.0635 31.0457 21.8569 30.8764 22.4106C30.3341 24.2656 29.79 25.9741 29.1679 27.6389Z" fill="#231F20"/>
<path d="M20.5092 14.7812C20.5777 14.6899 20.9621 14.5434 21.5043 14.804C21.5043 14.804 20.8593 14.9068 20.9164 15.9817L20.6443 15.9246C20.6576 15.9361 20.3742 14.9619 20.5092 14.7812Z" fill="#F7E4CD"/>
<path d="M25.1953 23.9726C25.1953 24.1305 25.0602 24.2675 24.9004 24.2675C24.7425 24.2675 24.6055 24.1324 24.6055 23.9726C24.6055 23.8147 24.7406 23.6777 24.9004 23.6777C25.0716 23.6777 25.1953 23.8128 25.1953 23.9726ZM25.4902 25.3405C25.4902 25.4985 25.3551 25.6354 25.1953 25.6354C25.0374 25.6354 24.9004 25.5004 24.9004 25.3405C24.9004 25.1826 25.0355 25.0456 25.1953 25.0456C25.3646 25.0475 25.4902 25.1712 25.4902 25.3405Z" fill="#1D1919"/>
</g>
<defs>
<clipPath id="clip0_568_1111">
<rect width="28.9288" height="40" fill="white" transform="translate(6)"/>
</clipPath>
</defs>
</svg>
