<svg width="40" height="40" viewBox="0 0 40 40" fill="none" xmlns="http://www.w3.org/2000/svg">
<g clip-path="url(#clip0_577_10512)">
<path d="M38.3001 0H19.1001C19.1001 4.8 23.0001 8.7 27.8001 8.7H31.3001V12.1C31.3001 16.9 35.2001 20.8 40.0001 20.8V1.7C40.0001 0.7 39.3001 0 38.3001 0Z" fill="#2684FF"/>
<path d="M28.8 9.60001H9.5C9.5 14.4 13.4 18.3 18.2 18.3H21.7V21.7C21.7 26.5 25.6 30.4 30.4 30.4V11.3C30.5 10.3 29.7 9.60001 28.8 9.60001Z" fill="url(#paint0_linear_577_10512)"/>
<path d="M19.3 19.2H0C0 24 3.9 27.9 8.7 27.9H12.3V31.3C12.3 36.1 16.2 40 21 40V20.9C20.9 19.9 20.2 19.2 19.3 19.2Z" fill="url(#paint1_linear_577_10512)"/>
</g>
<defs>
<linearGradient id="paint0_linear_577_10512" x1="30.0946" y1="9.60161" x2="21.8506" y2="18.1276" gradientUnits="userSpaceOnUse">
<stop offset="0.18" stop-color="#0052CC"/>
<stop offset="1" stop-color="#2684FF"/>
</linearGradient>
<linearGradient id="paint1_linear_577_10512" x1="21.0251" y1="19.2832" x2="11.6172" y2="28.513" gradientUnits="userSpaceOnUse">
<stop offset="0.18" stop-color="#0052CC"/>
<stop offset="1" stop-color="#2684FF"/>
</linearGradient>
<clipPath id="clip0_577_10512">
<rect width="40" height="40" fill="white"/>
</clipPath>
</defs>
</svg>
