<svg width="40" height="40" viewBox="0 0 40 40" fill="none" xmlns="http://www.w3.org/2000/svg">
<g clip-path="url(#clip0_556_1882)">
<path d="M39.6382 5.51333C39.6382 2.62852 37.2996 0.289917 34.4148 0.289917C31.7807 0.289917 29.6032 2.23999 29.2444 4.77503L29.1915 4.74713C24.9197 2.82046 21.3215 6.23302 21.3215 6.23302L11.8035 15.7977L15.5642 19.4194L23.2252 11.8929C26.8025 8.31534 28.7504 10.7367 28.7504 10.7367C31.4435 13.0118 28.8432 15.7048 28.8432 15.7048L32.697 19.4194C35.8439 16.0205 36.0264 13.0541 35.0698 10.6944C37.6453 10.3719 39.6382 8.17612 39.6382 5.51333Z" fill="#F9AE41"/>
<path d="M35.1185 29.536C35.1363 29.5026 35.1464 29.4833 35.1464 29.4833C37.0732 25.2113 33.6605 21.613 33.6605 21.613L24.0957 12.0947L20.4741 15.8558L28.0006 23.5166C31.578 27.0941 29.1566 29.0422 29.1566 29.0422C26.8817 31.7352 24.1887 29.1349 24.1887 29.1349L20.4741 32.9885C23.8729 36.1355 26.8394 36.318 29.1989 35.3614C29.5214 37.9369 31.7174 39.9299 34.3802 39.9299C37.265 39.9299 39.6034 37.5913 39.6034 34.7065C39.6034 32.0724 37.6535 29.8949 35.1185 29.536Z" fill="#EE4035"/>
<path d="M24.177 20.6263L16.5161 28.1527C12.9386 31.7304 10.9907 29.3091 10.9907 29.3091C8.29767 27.0339 10.8978 24.3411 10.8978 24.3411L7.04433 20.6263C3.89736 24.0251 3.71472 26.9915 4.67116 29.3512C2.09565 29.6738 0.102783 31.8694 0.102783 34.5324C0.102783 37.4172 2.44139 39.7556 5.32635 39.7556C7.96046 39.7558 10.138 37.8059 10.4967 35.2708C10.5302 35.2887 10.5496 35.2986 10.5496 35.2986C14.8215 37.2257 18.4197 33.8127 18.4197 33.8127L27.9378 24.2479L24.177 20.6263Z" fill="#4F91CD"/>
<path d="M11.7406 16.5292C8.16312 12.9517 10.5842 11.0036 10.5842 11.0036C12.8596 8.31057 15.5524 10.9109 15.5524 10.9109L19.267 7.05739C15.8682 3.91042 12.9019 3.72794 10.5422 4.68437C10.2197 2.10871 8.02405 0.115845 5.3608 0.115845C2.47645 0.115845 0.138005 2.45445 0.137695 5.33926C0.137695 7.97352 2.08762 10.151 4.62281 10.5098C4.60498 10.5433 4.59506 10.5628 4.59506 10.5628C2.66793 14.8344 6.0808 18.4326 6.0808 18.4326L15.6458 27.9509L19.2673 24.1901L11.7406 16.5292Z" fill="#7AC043"/>
</g>
<defs>
<clipPath id="clip0_556_1882">
<rect width="39.696" height="40" fill="white"/>
</clipPath>
</defs>
</svg>
