<svg width="40" height="40" viewBox="0 0 40 40" fill="none" xmlns="http://www.w3.org/2000/svg">
<g clip-path="url(#clip0_569_6636)">
<path d="M40 39.9985C40 39.9993 39.9993 40 39.9985 40H0.00148148C0.000740741 40 0 39.9993 0 39.9985V0.00148148C0 0.000740741 0.000740741 0 0.00148148 0H39.9989C39.9996 0 40.0004 0.000740741 40.0004 0.00148148V39.9985H40Z" fill="white"/>
<path d="M39.3334 39.3319C39.3334 39.3326 39.3327 39.3334 39.3319 39.3334H0.66823C0.667489 39.3334 0.666748 39.3326 0.666748 39.3319V0.668169C0.666748 0.667428 0.667489 0.666687 0.66823 0.666687H39.3323C39.333 0.666687 39.3338 0.667428 39.3338 0.668169V39.3319H39.3334Z" fill="#D00000"/>
<path d="M11.2223 30.5063C11.2223 30.5356 11.2393 30.5763 11.2597 30.5967L11.9216 31.2585C11.9423 31.2793 11.983 31.2959 12.0119 31.2959H14.2767C14.306 31.2959 14.3467 31.2789 14.3671 31.2585L15.029 30.5967C15.0497 30.5759 15.0664 30.5352 15.0664 30.5063V23.32C15.0664 23.2908 15.0838 23.2504 15.1049 23.2304L17.9823 20.4822C18.0034 20.4622 18.0341 20.4652 18.0504 20.4896L25.3204 31.2526C25.3367 31.2767 25.3741 31.2967 25.403 31.2967H28.6116C28.6408 31.2967 28.6756 31.2756 28.689 31.2496L29.2712 30.1215C29.2845 30.0956 29.2819 30.0548 29.2653 30.0308L20.7616 17.7048C20.7449 17.6808 20.7482 17.6445 20.769 17.6237L28.5904 9.83891C28.6112 9.81816 28.6279 9.77779 28.6279 9.74853V9.60483C28.6279 9.57557 28.6182 9.53002 28.6067 9.50298L28.1556 8.46557C28.1441 8.43891 28.1104 8.41705 28.0816 8.41705H24.9101C24.8808 8.41705 24.8401 8.43409 24.8197 8.45446L15.1045 18.2063C15.0838 18.2271 15.0671 18.22 15.0671 18.1908V9.24446C15.0671 9.2152 15.0508 9.17409 15.0308 9.15261L14.3816 8.45631C14.3616 8.43483 14.3216 8.41742 14.2923 8.41742H12.0119C11.9827 8.41742 11.9427 8.43483 11.9227 8.45631L11.2578 9.17409C11.2378 9.19557 11.2219 9.23668 11.2219 9.26594V30.5063H11.2223Z" fill="white"/>
</g>
<defs>
<clipPath id="clip0_569_6636">
<rect width="40" height="40" fill="white"/>
</clipPath>
</defs>
</svg>
