<svg width="40" height="40" viewBox="0 0 40 40" fill="none" xmlns="http://www.w3.org/2000/svg">
<g clip-path="url(#clip0_568_870)">
<path d="M12.8258 39.2738C11.8967 39.2738 11.0194 38.861 10.4258 38.1126L1.39377 26.8868C0.800176 26.1384 0.567988 25.1837 0.800176 24.2545L4.02596 10.2417C4.23236 9.31259 4.85174 8.56415 5.70346 8.15134L18.7614 1.90603C19.1744 1.69978 19.6389 1.5965 20.1035 1.5965C20.568 1.5965 21.0324 1.69962 21.4453 1.90618L34.5035 8.12556C35.355 8.53837 35.9744 9.28681 36.1808 10.2159L39.4066 24.2287C39.6131 25.1578 39.4066 26.1126 38.8131 26.861L29.7808 38.0868C29.1872 38.8093 28.3099 39.2481 27.3808 39.2481L12.8261 39.2738H12.8258Z" fill="#326DE6"/>
<path d="M20.0773 2.24166C20.4387 2.24166 20.7999 2.319 21.1354 2.47384L34.1935 8.69322C34.8645 9.02869 35.3806 9.64806 35.5354 10.3707L38.7612 24.3835C38.9418 25.132 38.7612 25.9062 38.2709 26.4996L29.2387 37.7256C28.7742 38.319 28.0515 38.6545 27.3032 38.6545H12.8257C12.0773 38.6545 11.3548 38.319 10.8902 37.7256L1.85806 26.4996C1.39353 25.9062 1.21275 25.132 1.36775 24.3835L4.59353 10.3707C4.77416 9.62228 5.26447 9.0029 5.93541 8.69322L18.9937 2.44822C19.3292 2.31916 19.7162 2.24181 20.0774 2.24181L20.0773 2.24166ZM20.0773 1.02869C19.5354 1.02869 18.9935 1.15775 18.4773 1.38994L5.41931 7.63525C4.38697 8.12556 3.66447 9.02869 3.40634 10.1384L0.180562 24.1513C-0.0774066 25.261 0.180562 26.3965 0.903218 27.2998L9.93541 38.5256C10.6323 39.4029 11.6902 39.8932 12.7999 39.8932H27.2773C28.387 39.8932 29.4451 39.4029 30.1418 38.5256L39.1742 27.2996C39.8967 26.4223 40.1548 25.261 39.8967 24.1512L36.6709 10.1384C36.4129 9.02869 35.6902 8.12556 34.6581 7.63525L21.6515 1.38978C21.1612 1.15775 20.6193 1.02869 20.0773 1.02869Z" fill="white"/>
<path d="M33.1612 23.2738C33.1355 23.2738 33.1355 23.2738 33.1612 23.2738H33.1355C33.1097 23.2738 33.0839 23.2738 33.0839 23.248C33.0323 23.248 32.9808 23.2222 32.9291 23.2222C32.7484 23.1965 32.5936 23.1707 32.4388 23.1707C32.3613 23.1707 32.2839 23.1707 32.1806 23.1447H32.1548C31.613 23.0932 31.1742 23.0416 30.7612 22.9126C30.5806 22.8351 30.5291 22.7319 30.4773 22.6286C30.4773 22.6029 30.4516 22.6029 30.4516 22.5771L30.1161 22.474C30.2746 21.26 30.2134 20.0274 29.9355 18.8351C29.6537 17.6328 29.1647 16.4888 28.4903 15.4544L28.7484 15.2222V15.1707C28.7484 15.0416 28.7742 14.9126 28.8773 14.7835C29.187 14.4996 29.5742 14.2674 30.0388 13.9835C30.1161 13.9319 30.1934 13.9061 30.2709 13.8544C30.4258 13.7771 30.5548 13.6997 30.7097 13.5965C30.7355 13.5707 30.787 13.5449 30.8387 13.4933C30.8645 13.4674 30.8903 13.4674 30.8903 13.4416C31.2516 13.1319 31.3291 12.6158 31.0709 12.2802C30.9419 12.0996 30.7097 11.9965 30.4773 11.9965C30.2711 11.9965 30.0903 12.0738 29.9097 12.2029L29.8581 12.2544C29.8066 12.2802 29.7806 12.3319 29.7291 12.3577C29.6 12.4868 29.4967 12.5899 29.3936 12.719C29.342 12.7705 29.2905 12.848 29.213 12.8996C28.8516 13.2868 28.5161 13.5965 28.1806 13.8286C28.1033 13.8802 28.0259 13.9061 27.9484 13.9061C27.8969 13.9061 27.8452 13.9061 27.7936 13.8802H27.742L27.4322 14.0868C27.0967 13.7255 26.7355 13.4158 26.3742 13.1061C24.8187 11.8902 22.9466 11.1467 20.9806 10.9641L20.9548 10.6286L20.9033 10.5771C20.8258 10.4996 20.7227 10.4222 20.6967 10.2416C20.6709 9.82864 20.7227 9.36411 20.7742 8.84802V8.82224C20.7742 8.74474 20.8 8.64161 20.8258 8.56411C20.8516 8.40943 20.8773 8.25443 20.9033 8.0738V7.84161C20.9033 7.37708 20.5419 6.99005 20.1033 6.99005C19.8967 6.99005 19.6903 7.09318 19.5355 7.24802C19.3808 7.40286 19.3033 7.60927 19.3033 7.84161V8.04802C19.3033 8.22865 19.3291 8.38349 19.3806 8.53833C19.4064 8.61583 19.4064 8.69318 19.4322 8.79646V8.82224C19.4838 9.33833 19.5613 9.80286 19.5097 10.2158C19.4839 10.3965 19.3806 10.4738 19.3033 10.5513L19.2517 10.6029L19.2258 10.9383C18.7613 10.9899 18.2967 11.0415 17.8322 11.1447C15.8452 11.5835 14.0903 12.5901 12.7227 14.0351L12.4645 13.8544H12.413C12.3614 13.8544 12.3097 13.8802 12.2581 13.8802C12.1806 13.8802 12.1033 13.8544 12.0258 13.8029C11.6903 13.5707 11.3548 13.2351 10.9936 12.848C10.942 12.7965 10.8905 12.719 10.813 12.6674C10.7097 12.5383 10.6064 12.4351 10.4773 12.3061C10.4516 12.2802 10.4 12.2546 10.3484 12.2029C10.3227 12.1771 10.2969 12.1771 10.2969 12.1513C10.137 12.0192 9.93646 11.9463 9.72906 11.9447C9.49672 11.9447 9.26453 12.048 9.13547 12.2286C8.87734 12.5641 8.95485 13.0802 9.3161 13.3899C9.34188 13.3899 9.34188 13.4158 9.36766 13.4158C9.41922 13.4416 9.44516 13.4932 9.49672 13.519C9.65156 13.6221 9.78063 13.6996 9.93547 13.7771C10.013 13.8029 10.0903 13.8544 10.1678 13.9061C10.6322 14.1899 11.0194 14.4222 11.3291 14.7061C11.4581 14.8351 11.4581 14.9641 11.4581 15.0932V15.1447L11.7161 15.3771C11.6645 15.4544 11.613 15.5061 11.587 15.5835C10.2967 17.6222 9.80641 20.0222 10.1419 22.3965L9.80641 22.4996C9.80641 22.5255 9.78063 22.5255 9.78063 22.5511C9.72906 22.6544 9.65156 22.7577 9.49672 22.8351C9.10969 22.9641 8.64516 23.0158 8.10328 23.0674H8.07735C8 23.0674 7.89672 23.0674 7.81938 23.0932C7.66453 23.0932 7.50969 23.119 7.32906 23.1447C7.2775 23.1447 7.22594 23.1707 7.17422 23.1707C7.14844 23.1707 7.12266 23.1707 7.09672 23.1965C6.63219 23.2996 6.34828 23.7383 6.42578 24.1511C6.50328 24.5126 6.83875 24.7449 7.25156 24.7449C7.32906 24.7449 7.38063 24.7449 7.45813 24.719C7.48391 24.719 7.50969 24.719 7.50969 24.6932C7.56125 24.6932 7.61281 24.6674 7.66438 24.6674C7.84516 24.6158 7.97422 24.5643 8.12906 24.4868C8.20641 24.461 8.28375 24.4093 8.36125 24.3836H8.38703C8.87734 24.2029 9.31609 24.048 9.72906 23.9965H9.78063C9.93547 23.9965 10.0388 24.0738 10.1161 24.1255C10.1419 24.1255 10.1419 24.1513 10.1677 24.1513L10.5291 24.0997C11.1484 26.0093 12.3355 27.7126 13.9097 28.9513C14.2709 29.2351 14.6322 29.4674 15.0194 29.6997L14.8645 30.0351C14.8645 30.061 14.8903 30.061 14.8903 30.0866C14.9419 30.1899 14.9934 30.319 14.9419 30.4996C14.7872 30.8868 14.5548 31.2738 14.2709 31.7126V31.7383C14.2194 31.8158 14.1678 31.8674 14.1163 31.9447C14.013 32.0738 13.9355 32.2029 13.8322 32.3577C13.8064 32.3835 13.7806 32.4351 13.7548 32.4868C13.7548 32.5126 13.7291 32.5383 13.7291 32.5383C13.5227 32.9771 13.6775 33.4674 14.0645 33.648C14.1677 33.6996 14.2709 33.7255 14.3742 33.7255C14.6839 33.7255 14.9936 33.519 15.1484 33.2351C15.1484 33.2093 15.1742 33.1835 15.1742 33.1835C15.2 33.1319 15.2258 33.0804 15.2516 33.0544C15.3291 32.8738 15.3548 32.7447 15.4064 32.5899L15.4839 32.3577C15.6645 31.8416 15.7936 31.4286 16.0258 31.0674C16.1289 30.9126 16.2581 30.8868 16.3613 30.8351C16.387 30.8351 16.387 30.8351 16.4128 30.8093L16.5936 30.4738C17.7291 30.9126 18.9678 31.1447 20.2064 31.1447C20.9548 31.1447 21.7291 31.0674 22.4517 30.8868C22.9065 30.7851 23.3546 30.6558 23.7936 30.4996L23.9483 30.7835C23.9742 30.7835 23.9742 30.7835 24 30.8093C24.1291 30.8351 24.2322 30.8868 24.3355 31.0416C24.5419 31.4029 24.6967 31.8416 24.8773 32.3319V32.3577L24.9548 32.5899C25.0064 32.7447 25.0322 32.8996 25.1095 33.0544C25.1355 33.106 25.1613 33.1319 25.187 33.1835C25.187 33.2093 25.213 33.2351 25.213 33.2351C25.3677 33.5447 25.6773 33.7255 25.987 33.7255C26.0903 33.7255 26.1936 33.6996 26.2967 33.648C26.4773 33.5449 26.6322 33.3899 26.6839 33.1835C26.7355 32.9771 26.7355 32.7447 26.6323 32.5383C26.6323 32.5126 26.6064 32.5126 26.6064 32.4868C26.5806 32.4352 26.5548 32.3836 26.5291 32.3577C26.4516 32.2029 26.3484 32.0738 26.2452 31.9447C26.1936 31.8674 26.142 31.8158 26.0905 31.7385V31.7126C25.8064 31.2738 25.5483 30.8868 25.4194 30.4996C25.3678 30.319 25.4194 30.2158 25.4452 30.0868C25.4452 30.061 25.4709 30.061 25.4709 30.0352L25.3419 29.7255C26.7097 28.9255 27.8709 27.7899 28.7484 26.3965C29.213 25.6738 29.5742 24.8738 29.8322 24.0738L30.1419 24.1254C30.1678 24.1254 30.1678 24.0996 30.1934 24.0996C30.2967 24.048 30.3742 23.9707 30.5291 23.9707H30.5806C30.9936 24.0222 31.4322 24.1769 31.9227 24.3577H31.9484C32.0258 24.3835 32.1031 24.4351 32.1806 24.4608C32.3355 24.5383 32.4645 24.5899 32.6452 24.6416C32.6967 24.6416 32.7483 24.6674 32.8 24.6674C32.8258 24.6674 32.8516 24.6674 32.8773 24.6932C32.9548 24.719 33.0064 24.719 33.0839 24.719C33.4709 24.719 33.8064 24.461 33.9097 24.1255C33.9097 23.8158 33.6258 23.4029 33.1612 23.274V23.2738ZM21.2128 22.0093L20.0773 22.5513L18.9419 22.0093L18.6581 20.7965L19.4322 19.8158H20.6967L21.4709 20.7965L21.213 22.0093H21.2128ZM27.9484 19.3255C28.1486 20.1789 28.2096 21.059 28.1291 21.9318L24.1806 20.7965C23.8194 20.6933 23.613 20.3319 23.6903 19.9707C23.7161 19.8674 23.7678 19.7641 23.8452 19.6868L26.9678 16.8738C27.4064 17.5965 27.7419 18.4224 27.9484 19.3255ZM25.7291 15.3255L22.3484 17.7255C22.0645 17.9061 21.6773 17.8544 21.4452 17.5707C21.3678 17.4932 21.342 17.3899 21.3161 17.2868L21.0839 13.0802C22.8414 13.2826 24.4787 14.074 25.7291 15.3255ZM18.2452 13.2091C18.5291 13.1576 18.787 13.106 19.0709 13.0544L18.8388 17.1833C18.813 17.5446 18.5291 17.8543 18.1419 17.8543C18.0388 17.8543 17.9097 17.8285 17.8322 17.7769L14.4 15.3255C15.4581 14.2674 16.7742 13.5446 18.2452 13.2091ZM13.1613 16.8736L16.2322 19.6091C16.5161 19.8415 16.5419 20.2801 16.3097 20.564C16.2322 20.6671 16.1291 20.7446 16 20.7705L12 21.9318C11.8452 20.1769 12.2322 18.3963 13.1613 16.8736ZM12.4644 23.8672L16.5678 23.1704C16.9033 23.1446 17.213 23.3769 17.2903 23.7124C17.3161 23.8671 17.3161 23.9963 17.2645 24.1254L15.6903 27.9188C14.2452 26.9897 13.0838 25.5704 12.4644 23.8672ZM21.8839 29.0027C21.2903 29.1318 20.6967 29.2091 20.0773 29.2091C19.1742 29.2091 18.2967 29.0544 17.4711 28.7963L19.5097 25.106C19.7161 24.8736 20.0516 24.7705 20.3355 24.9254C20.456 24.9992 20.5611 25.0955 20.6452 25.2091L22.6322 28.7963C22.4 28.8736 22.1419 28.9254 21.8838 29.0027H21.8839ZM26.9161 25.4157C26.2709 26.4479 25.4192 27.2736 24.4388 27.9188L22.813 24.0219C22.7355 23.7124 22.8645 23.3769 23.1742 23.2219C23.2773 23.1704 23.4064 23.1446 23.5355 23.1446L27.6645 23.8415C27.5097 24.4091 27.2516 24.9254 26.9161 25.4157Z" fill="white"/>
</g>
<defs>
<clipPath id="clip0_568_870">
<rect width="40" height="38.912" fill="white" transform="translate(0 1)"/>
</clipPath>
</defs>
</svg>
