<svg width="39" height="40" viewBox="0 0 39 40" fill="none" xmlns="http://www.w3.org/2000/svg">
<g clip-path="url(#clip0_556_1862)">
<path d="M38.8225 9.05027C38.8225 9.03152 38.8062 9.01526 38.8012 8.99776C38.7902 8.96434 38.7769 8.93176 38.7612 8.90026C38.7483 8.88059 38.7341 8.8618 38.7187 8.84401C38.7016 8.81865 38.6828 8.79442 38.6625 8.7715C38.643 8.75445 38.6226 8.73859 38.6012 8.72401C38.5799 8.70451 38.5569 8.68694 38.5325 8.67151L31.0135 4.34137C30.9185 4.28651 30.8107 4.25763 30.701 4.25763C30.5912 4.25763 30.4835 4.28651 30.3884 4.34137L22.8695 8.67151C22.8454 8.6874 22.8224 8.70494 22.8007 8.72401C22.7794 8.73859 22.7589 8.75445 22.7395 8.7715C22.7192 8.79442 22.7004 8.81865 22.6832 8.84401C22.6678 8.8618 22.6536 8.88059 22.6407 8.90026C22.6245 8.93149 22.6111 8.96411 22.6007 8.99776C22.5922 9.01464 22.5851 9.03221 22.5795 9.05027C22.5652 9.10368 22.558 9.15874 22.5582 9.21402V17.438L16.2918 21.0469V4.95639C16.2919 4.90111 16.2848 4.84604 16.2705 4.79263C16.2705 4.77388 16.2543 4.75763 16.2493 4.74013C16.2383 4.70671 16.2249 4.67413 16.2093 4.64263C16.1964 4.62295 16.1822 4.60415 16.1668 4.58637C16.1496 4.56101 16.1308 4.53679 16.1105 4.51387C16.0911 4.49682 16.0706 4.48095 16.0493 4.46637C16.0279 4.44687 16.0049 4.4293 15.9805 4.41387L8.46151 0.0837352C8.3665 0.0288783 8.25872 0 8.149 0C8.03929 0 7.93151 0.0288783 7.83649 0.0837352L0.311264 4.41387C0.287162 4.42976 0.264189 4.4473 0.242512 4.46637C0.221153 4.48095 0.200694 4.49682 0.181255 4.51387C0.160945 4.53679 0.142156 4.56101 0.125006 4.58637C0.109603 4.60416 0.0954085 4.62296 0.0825086 4.64263C0.0662437 4.67385 0.052848 4.70648 0.0425007 4.74013C0.0339746 4.75701 0.0268687 4.77457 0.0212522 4.79263C0.00695751 4.84604 -0.000186262 4.90111 3.69041e-06 4.95639V30.7072C-0.000307312 30.8175 0.0285484 30.9258 0.0836531 31.0213C0.138758 31.1168 0.218149 31.1961 0.313763 31.251L15.3542 39.91C15.3876 39.9268 15.4223 39.9411 15.458 39.9525L15.5067 39.9725C15.6119 40.0012 15.7228 40.0012 15.828 39.9725C15.8417 39.9725 15.8555 39.96 15.8692 39.955C15.9067 39.943 15.943 39.9279 15.978 39.91L31.0247 31.2572C31.1203 31.2023 31.1997 31.1231 31.2548 31.0276C31.3099 30.9321 31.3388 30.8237 31.3385 30.7134V22.4894L38.5437 18.3406C38.6393 18.2857 38.7187 18.2064 38.7738 18.1109C38.8289 18.0154 38.8578 17.907 38.8575 17.7968V9.21277C38.8509 9.15812 38.8413 9.10387 38.8287 9.05027H38.8225ZM15.6492 29.9934L9.39904 26.4533L15.968 22.6719L23.1745 18.5231L29.4359 22.1319L24.842 24.757L15.6492 29.9934ZM30.0647 13.9067V21.0469L27.4321 19.5318L23.7957 17.4393V10.2978L26.4283 11.8129L30.0647 13.9067ZM30.6897 5.60766L36.9537 9.21527L30.6897 12.8229L24.4258 9.21527L30.6897 5.60766ZM11.3991 23.8595L8.76653 25.3745V9.64903L12.3991 7.55647L15.0317 6.04142V21.7657L11.3991 23.8595ZM8.1365 1.35127L14.3992 4.95889L8.1365 8.56526L1.87256 4.95764L8.1365 1.35127ZM1.24254 6.04017L3.87387 7.55647L7.51023 9.64903V26.4571C7.51207 26.4806 7.51542 26.504 7.52024 26.5271C7.52231 26.5577 7.52649 26.5882 7.53274 26.6183C7.54127 26.6422 7.55129 26.6656 7.56273 26.6883C7.57207 26.7152 7.58292 26.7415 7.59524 26.7671C7.60983 26.788 7.6257 26.8081 7.64274 26.8271C7.65822 26.8504 7.67534 26.8725 7.69399 26.8933C7.7131 26.9099 7.73313 26.9253 7.75399 26.9396C7.77552 26.9579 7.79806 26.975 7.82149 26.9908L15.0242 31.0672V38.2774L1.23254 30.3409L1.24254 6.04017ZM30.0709 30.3509L16.283 38.2887V31.0772L26.4933 25.2483L30.0697 23.207L30.0709 30.3509ZM37.5899 17.4368L31.3235 21.0456V13.9054L34.9598 11.8129L37.5924 10.2978V17.438L37.5899 17.4368Z" fill="#FF2D20"/>
</g>
<defs>
<clipPath id="clip0_556_1862">
<rect width="38.8512" height="40" fill="white"/>
</clipPath>
</defs>
</svg>
