<svg width="40" height="40" viewBox="0 0 40 40" fill="none" xmlns="http://www.w3.org/2000/svg">
<path d="M21.884 20.5118L26.7481 21.3256L30.0441 24.8837L29.6015 29.9989L17.73 23.2709L21.884 20.5118Z" fill="#FF4D00"/>
<path d="M39.4684 19.9989L29.6017 29.9992L19.7339 0L39.4684 19.9989Z" fill="#FF7D00"/>
<path d="M32.8939 19.9997L17.7305 23.2712L18.1463 15.8891L32.8939 19.9997Z" fill="#001AFF"/>
<path d="M0.000244141 20.0003L7.31121 21.635L12.1462 24.8149L12.4995 28.015L10.5367 30.6784L0.000244141 20.0003Z" fill="#E23400"/>
<path d="M18.667 1.08292L12.146 24.8144L0 20L18.667 1.08292Z" fill="#FF4D00"/>
<path d="M12.1462 24.8149L28.3764 31.2421L19.7337 40L10.5366 30.6784L12.1462 24.8149Z" fill="#FF7D00"/>
</svg>
