<svg width="40" height="40" viewBox="0 0 40 40" fill="none" xmlns="http://www.w3.org/2000/svg">
<path d="M19.8583 0.109253L20.9258 2.1141C21.1657 2.48407 21.4257 2.81155 21.732 3.11652C22.6297 4.00311 23.4666 4.94936 24.2368 5.94881C26.0454 8.32363 27.2653 10.9609 28.1365 13.8132C28.6589 15.5556 28.9427 17.3429 28.9639 19.1503C29.0514 24.5536 27.199 29.1933 23.4643 33.0492C22.8568 33.6607 22.2005 34.2217 21.502 34.7266C21.132 34.7266 20.957 34.4429 20.8045 34.1817C20.5268 33.6973 20.342 33.1653 20.2596 32.613C20.1283 31.9593 20.0421 31.3056 20.0846 30.6307V30.3257C20.0546 30.2607 19.7284 0.262991 19.8583 0.109253Z" fill="#599636"/>
<path d="M19.8582 0.0430005C19.8144 -0.0444929 19.7707 0.0217521 19.7269 0.0642489C19.7482 0.501716 19.5957 0.891686 19.357 1.26416C19.0945 1.63413 18.747 1.91786 18.3983 2.22283C16.4609 3.90021 14.936 5.9263 13.7149 8.19238C12.09 11.2421 11.2526 14.5107 11.0151 17.9516C10.9064 19.1928 11.4076 23.5725 11.7988 24.8361C12.8662 28.1909 14.7836 31.0019 17.2671 33.4417C17.8771 34.0292 18.5295 34.5741 19.2045 35.0978C19.4007 35.0978 19.422 34.9228 19.467 34.7929C19.553 34.5147 19.6186 34.2306 19.6632 33.9429L20.1007 30.6757L19.8582 0.0430005Z" fill="#6CAC48"/>
<path d="M20.9255 36.0541C20.9692 35.5541 21.2092 35.1391 21.4704 34.7254C21.2079 34.6167 21.013 34.4004 20.8605 34.1592C20.729 33.9308 20.6201 33.6901 20.5355 33.4405C20.2305 32.5256 20.1655 31.5657 20.078 30.6307V30.0645C19.9693 30.152 19.9468 30.892 19.9468 31.0019C19.8832 31.9901 19.7521 32.9727 19.5543 33.943C19.4893 34.3354 19.4456 34.7267 19.2043 35.0754C19.2043 35.1191 19.2043 35.1629 19.2256 35.2279C19.6181 36.3828 19.7256 37.5589 19.7918 38.7576V39.1951C19.7918 39.7175 19.7706 39.6075 20.2043 39.7825C20.3793 39.8475 20.5742 39.87 20.7492 40C20.8805 40 20.9017 39.8913 20.9017 39.8038L20.8367 39.0851V37.0802C20.8155 36.7303 20.8805 36.3828 20.9242 36.0553L20.9255 36.0541Z" fill="#C2BFBF"/>
</svg>
