<svg width="40" height="40" viewBox="0 0 40 40" fill="none" xmlns="http://www.w3.org/2000/svg">
<path d="M36.8442 30.8265C34.6678 30.7714 32.9811 30.9924 31.5664 31.5998C31.1583 31.7654 30.5053 31.7655 30.4509 32.2903C30.6685 32.5112 30.6957 32.8703 30.8862 33.1739C31.213 33.7261 31.7839 34.4718 32.3009 34.8586C32.8721 35.3004 33.4436 35.7421 34.0419 36.1288C35.103 36.7916 36.3002 37.1781 37.3339 37.8409C37.9326 38.2273 38.5308 38.7247 39.1293 39.1388C39.4286 39.3595 39.6189 39.7188 40 39.8568V39.7741C39.8094 39.5253 39.755 39.1665 39.5647 38.8903C39.2929 38.6141 39.0205 38.3655 38.7484 38.0893C37.9595 37.0125 36.9802 36.0735 35.9192 35.3004C35.0487 34.6928 33.1442 33.8644 32.7906 32.8425C32.7906 32.8425 32.7633 32.815 32.7362 32.7874C33.3346 32.7322 34.0419 32.5112 34.6134 32.3455C35.5383 32.0968 36.3816 32.1522 37.3339 31.9036C37.7691 31.7931 38.2044 31.6551 38.6396 31.517V31.2686C38.1502 30.7714 37.7965 30.1087 37.2795 29.6392C35.892 28.4239 34.3684 27.2366 32.7906 26.2425C31.9472 25.6901 30.8588 25.3311 29.9611 24.8617C29.6349 24.6959 29.0906 24.6132 28.9003 24.337C28.4104 23.7295 28.1383 22.9288 27.7848 22.2107C26.9961 20.6917 26.2341 19.0073 25.5539 17.4057C25.0644 16.3286 24.7652 15.2515 24.1666 14.2576C21.3644 9.56292 18.3174 6.71855 13.6383 3.92925C12.6316 3.34943 11.4346 3.10086 10.1559 2.79722C9.47604 2.76944 8.79568 2.71436 8.11564 2.68659C7.68031 2.49326 7.24498 1.96867 6.86406 1.7201C5.31366 0.725842 1.31422 -1.42791 0.171636 1.41646C-0.562985 3.21133 1.25996 4.97859 1.88544 5.89016C2.34829 6.52522 2.94655 7.24314 3.27305 7.96121C3.46351 8.43041 3.51777 8.92786 3.70823 9.42483C4.14371 10.6396 4.55152 11.993 5.12305 13.1254C5.42234 13.7052 5.74868 14.3126 6.1296 14.8374C6.34726 15.141 6.72802 15.2793 6.8098 15.7763C6.42904 16.3286 6.40168 17.1572 6.18386 17.8475C5.20452 20.968 5.58559 24.8341 6.97289 27.1261C7.40807 27.8163 8.44198 29.3356 9.82944 28.7554C11.0538 28.2585 10.7817 26.6844 11.1351 25.3036C11.2171 24.9719 11.1626 24.7513 11.3257 24.5303V24.5857C11.7066 25.3587 12.0874 26.1046 12.4411 26.8777C13.2846 28.2307 14.7535 29.6392 15.9777 30.5783C16.6309 31.0751 17.1476 31.9312 17.9639 32.235V32.152H17.9093C17.7461 31.9035 17.5012 31.7931 17.2837 31.5997C16.7941 31.1028 16.2498 30.4952 15.869 29.9429C14.7266 28.3963 13.7197 26.6842 12.822 24.9168C12.3868 24.061 12.0058 23.1219 11.6522 22.2659C11.4888 21.9342 11.4888 21.4374 11.2169 21.2718C10.8088 21.8793 10.2104 22.404 9.91106 23.1496C9.39442 24.337 9.33985 25.8006 9.14939 27.3193C9.04056 27.3472 9.09482 27.3193 9.0404 27.3748C8.17005 27.1536 7.87076 26.2425 7.54411 25.4692C6.72786 23.5086 6.59182 20.3604 7.29939 18.096C7.48985 17.5161 8.30609 15.6936 7.9796 15.1412C7.81635 14.6164 7.27203 14.3126 6.97289 13.8985C6.61934 13.3738 6.23827 12.7113 5.99356 12.1311C5.34056 10.5846 5.01406 8.87246 4.30681 7.32599C3.98031 6.60791 3.40925 5.86254 2.94655 5.1997C2.42976 4.45416 1.85838 3.92925 1.45026 3.04562C1.31438 2.74198 1.12376 2.24485 1.34143 1.91343C1.39585 1.69248 1.50452 1.60979 1.72234 1.55455C2.07605 1.25059 3.08275 1.63725 3.43615 1.80296C4.44285 2.21692 5.28614 2.60389 6.1296 3.18372C6.51035 3.4599 6.91848 3.98465 7.40807 4.12274H7.97944C8.8501 4.31591 9.82928 4.17798 10.6455 4.42638C12.0876 4.89574 13.3932 5.58619 14.5632 6.33189C18.1271 8.62389 21.065 11.8825 23.0512 15.7763C23.3777 16.4112 23.5136 16.9915 23.8129 17.654C24.3844 19.0073 25.0916 20.388 25.6627 21.7136C26.2341 23.0113 26.7781 24.337 27.5943 25.4141C28.0025 25.9938 29.6346 26.2977 30.3693 26.6015C30.9134 26.8499 31.7569 27.071 32.2465 27.3747C33.1714 27.9544 34.0963 28.6175 34.967 29.2524C35.4023 29.5838 36.7624 30.2743 36.8442 30.8265Z" fill="#00546B"/>
<path d="M9.09447 6.8287C8.63209 6.8287 8.30575 6.88426 7.97925 6.96696V7.02219H8.03366C8.25149 7.46409 8.63209 7.76789 8.90401 8.15439C9.12183 8.59612 9.31214 9.03817 9.52996 9.48007C9.55701 9.45229 9.58422 9.42483 9.58422 9.42483C9.96529 9.14849 10.1556 8.70675 10.1556 8.04391C9.99234 7.85074 9.96513 7.65741 9.82909 7.46409C9.666 7.18774 9.31214 7.04981 9.09447 6.8287Z" fill="#00546B"/>
</svg>
