<svg width="40" height="40" viewBox="0 0 40 40" fill="none" xmlns="http://www.w3.org/2000/svg">
<g clip-path="url(#clip0_554_1632)">
<path d="M18.5113 0.427548C19.0117 0.147602 19.5755 0.000610352 20.1488 0.000610352C20.7222 0.000610352 21.286 0.147602 21.7863 0.427548C26.7713 3.24421 31.758 6.06005 36.7463 8.87505C37.2151 9.14201 37.6054 9.52744 37.8784 9.99274C38.1513 10.458 38.2971 10.9869 38.3013 11.5263V28.475C38.2917 29.0363 38.1305 29.5844 37.8347 30.0615C37.539 30.5386 37.1197 30.9268 36.6213 31.185C31.6522 33.9867 26.6843 36.7892 21.7176 39.5925C21.2078 39.8745 20.6317 40.0147 20.0493 39.9984C19.467 39.9821 18.8996 39.81 18.4063 39.5C16.9163 38.6367 15.4259 37.7746 13.9351 36.9138C13.608 36.7664 13.3145 36.5537 13.0726 36.2888C13.2626 36.0388 13.6026 36.0013 13.8788 35.8888C14.4911 35.6698 15.0816 35.394 15.6426 35.065C15.7131 35.0234 15.7944 35.0038 15.8762 35.0087C15.9579 35.0136 16.0363 35.0428 16.1013 35.0925C17.3751 35.8225 18.6376 36.575 19.9163 37.2975C20.1888 37.455 20.4651 37.2463 20.6976 37.1163C25.5734 34.3605 30.4513 31.608 35.3313 28.8588C35.4185 28.8154 35.4905 28.7468 35.538 28.6618C35.5855 28.5768 35.6063 28.4795 35.5976 28.3825C35.5976 22.7917 35.5976 17.2005 35.5976 11.6088C35.6064 11.5 35.5811 11.3912 35.5251 11.2975C35.469 11.2038 35.3851 11.13 35.2851 11.0863C30.3334 8.29796 25.383 5.5063 20.4338 2.7113C20.3479 2.65239 20.2461 2.62087 20.142 2.62087C20.0378 2.62087 19.936 2.65239 19.8501 2.7113C14.8993 5.50046 9.948 8.29213 4.99634 11.0863C4.89592 11.1289 4.81151 11.202 4.75516 11.2954C4.69882 11.3888 4.67342 11.4976 4.68259 11.6063V28.38C4.674 28.4765 4.69516 28.5732 4.74321 28.6572C4.79126 28.7412 4.86389 28.8085 4.95134 28.85C6.27217 29.6 7.59425 30.3467 8.91759 31.09C9.28432 31.3168 9.69477 31.4636 10.1221 31.5209C10.5495 31.5782 10.9841 31.5447 11.3976 31.4225C11.7568 31.2895 12.0666 31.0496 12.2854 30.7352C12.5042 30.4208 12.6214 30.0469 12.6213 29.6638C12.628 24.1046 12.628 18.5463 12.6213 12.9888C12.6199 12.9298 12.6309 12.8711 12.6537 12.8166C12.6765 12.7622 12.7106 12.7132 12.7536 12.6728C12.7967 12.6324 12.8479 12.6016 12.9037 12.5824C12.9595 12.5632 13.0188 12.556 13.0776 12.5613C13.7126 12.5613 14.3476 12.5525 14.9826 12.5613C15.0445 12.564 15.1052 12.5799 15.1605 12.6077C15.2159 12.6355 15.2648 12.6747 15.304 12.7227C15.3432 12.7708 15.3718 12.8265 15.3879 12.8864C15.404 12.9462 15.4073 13.0088 15.3976 13.07C15.3976 18.6634 15.3976 24.2567 15.3976 29.85C15.4404 30.61 15.2783 31.3676 14.9282 32.0435C14.5782 32.7195 14.053 33.289 13.4076 33.6925C12.5458 34.0943 11.6023 34.29 10.6518 34.2639C9.70125 34.2379 8.76986 33.9909 7.93134 33.5425C6.47884 32.8175 5.09259 31.9613 3.66509 31.185C3.1683 30.9259 2.75089 30.5372 2.4571 30.0601C2.16331 29.583 2.0041 29.0353 1.99634 28.475V11.5275C2.00097 10.9768 2.15296 10.4374 2.43652 9.9652C2.72007 9.49304 3.12486 9.10541 3.60884 8.84255C8.57717 6.03838 13.5447 3.23338 18.5113 0.427548Z" fill="#8CC84B"/>
<path d="M22.8451 12.1663C25.0405 11.8822 27.2715 12.2236 29.2814 13.1513C30.01 13.5857 30.6124 14.2029 31.029 14.9418C31.4456 15.6807 31.6619 16.5156 31.6564 17.3638C31.6279 17.4708 31.5614 17.5638 31.4694 17.6255C31.3774 17.6871 31.2662 17.7132 31.1564 17.6988C30.5314 17.6988 29.8989 17.7076 29.2701 17.6988C29.1492 17.6911 29.0355 17.6385 28.9514 17.5513C28.8672 17.4642 28.8186 17.3487 28.8151 17.2276C28.7434 16.817 28.5833 16.427 28.3459 16.0844C28.1085 15.7419 27.7994 15.4551 27.4401 15.2438C26.2441 14.769 24.9525 14.5843 23.6714 14.7051C22.7275 14.6755 21.7938 14.9079 20.9739 15.3763C20.6912 15.5952 20.4843 15.8972 20.3822 16.2398C20.2802 16.5825 20.2882 16.9485 20.4051 17.2863C20.6076 17.7663 21.1551 17.9213 21.6139 18.0638C24.2251 18.7463 26.9889 18.6788 29.5539 19.5776C30.1041 19.7302 30.612 20.0068 31.0386 20.3862C31.4653 20.7656 31.7993 21.2377 32.0151 21.7663C32.2719 22.5162 32.3339 23.319 32.1953 24.0994C32.0567 24.8797 31.722 25.6121 31.2226 26.2276C30.3196 27.1653 29.1462 27.7977 27.8664 28.0363C26.1995 28.3747 24.4896 28.4473 22.8001 28.2513C21.1788 28.1588 19.6242 27.574 18.3439 26.5751C17.8378 26.1085 17.4409 25.536 17.1816 24.8983C16.9223 24.2607 16.807 23.5737 16.8439 22.8863C16.8559 22.7754 16.9112 22.6738 16.9978 22.6035C17.0845 22.5333 17.1954 22.5001 17.3064 22.5113C17.9389 22.5113 18.5726 22.5113 19.2051 22.5113C19.2638 22.51 19.3222 22.5203 19.3769 22.5417C19.4315 22.5631 19.4814 22.5952 19.5236 22.636C19.5658 22.6768 19.5995 22.7255 19.6227 22.7795C19.6459 22.8334 19.6582 22.8914 19.6589 22.9501C19.6898 23.3422 19.8008 23.7237 19.9851 24.0712C20.1693 24.4186 20.4229 24.7246 20.7301 24.9701C22.086 25.6372 23.6011 25.9129 25.1051 25.7663C26.3631 25.8629 27.6192 25.5564 28.6914 24.8913C28.9382 24.6501 29.1178 24.3486 29.2123 24.0167C29.3068 23.6848 29.3129 23.3339 29.2301 22.9988C29.0764 22.4401 28.4914 22.1788 27.9889 22.0088C25.4114 21.1938 22.6139 21.4888 20.0601 20.5676C19.5245 20.4106 19.0293 20.1394 18.6087 19.7725C18.1881 19.4056 17.8521 18.9519 17.6239 18.4426C17.3305 17.6827 17.2563 16.8556 17.4099 16.0556C17.5635 15.2556 17.9387 14.5148 18.4926 13.9176C19.6995 12.8518 21.2364 12.2326 22.8451 12.1663Z" fill="#8CC84B"/>
</g>
<defs>
<clipPath id="clip0_554_1632">
<rect width="40" height="40" fill="white"/>
</clipPath>
</defs>
</svg>
