<svg width="40" height="40" viewBox="0 0 40 40" fill="none" xmlns="http://www.w3.org/2000/svg">
<path d="M37.1875 0H2.8125C1.2592 0 0 1.2592 0 2.8125V37.1875C0 38.7408 1.2592 40 2.8125 40H37.1875C38.7408 40 40 38.7408 40 37.1875V2.8125C40 1.2592 38.7408 0 37.1875 0Z" fill="black"/>
<path d="M35.9559 20.083C35.9559 21.1841 35.0633 22.0767 33.962 22.0767C32.8609 22.0767 31.9683 21.1841 31.9683 20.083C31.9683 18.9817 32.8609 18.0891 33.962 18.0891C35.0633 18.0891 35.9559 18.9817 35.9559 20.083Z" fill="#669CFE"/>
<path d="M31.8447 24.1455C31.8447 25.2466 30.9521 26.1392 29.8508 26.1392C28.7496 26.1392 27.8569 25.2466 27.8569 24.1455C27.8569 23.0442 28.7496 22.1516 29.8508 22.1516C30.9521 22.1516 31.8447 23.0442 31.8447 24.1455Z" fill="#3FE7FE"/>
<path d="M27.7267 28.2925C27.7267 29.3938 26.834 30.2864 25.7329 30.2864C24.6317 30.2864 23.739 29.3938 23.739 28.2925C23.739 27.1914 24.6317 26.2988 25.7329 26.2988C26.834 26.2988 27.7267 27.1914 27.7267 28.2925Z" fill="white"/>
<path d="M31.7178 15.99C31.7178 17.0208 30.8821 17.8563 29.8515 17.8563C28.8207 17.8563 27.9851 17.0208 27.9851 15.99C27.9851 14.9592 28.8207 14.1236 29.8515 14.1236C30.8821 14.1236 31.7178 14.9592 31.7178 15.99Z" fill="#669CFE"/>
<path d="M27.6152 20.0466C27.6152 21.0774 26.7796 21.913 25.749 21.913C24.7182 21.913 23.8826 21.0774 23.8826 20.0466C23.8826 19.0158 24.7182 18.1802 25.749 18.1802C26.7796 18.1802 27.6152 19.0158 27.6152 20.0466Z" fill="#3FE7FE"/>
<path d="M23.5264 24.1628C23.5264 25.1936 22.6909 26.0292 21.6601 26.0292C20.6293 26.0292 19.7937 25.1936 19.7937 24.1628C19.7937 23.132 20.6293 22.2966 21.6601 22.2966C22.6909 22.2966 23.5264 23.132 23.5264 24.1628Z" fill="white"/>
<path d="M27.4599 11.9117C27.4599 12.8478 26.701 13.6069 25.7647 13.6069C24.8285 13.6069 24.0696 12.8478 24.0696 11.9117C24.0696 10.9755 24.8285 10.2166 25.7647 10.2166C26.701 10.2166 27.4599 10.9755 27.4599 11.9117Z" fill="#669CFE"/>
<path d="M23.3629 15.9673C23.3629 16.9034 22.6038 17.6625 21.6676 17.6625C20.7315 17.6625 19.9724 16.9034 19.9724 15.9673C19.9724 15.0311 20.7315 14.272 21.6676 14.272C22.6038 14.272 23.3629 15.0311 23.3629 15.9673Z" fill="#3FE7FE"/>
<path d="M19.2582 20.0966C19.2582 21.0328 18.4993 21.7917 17.5631 21.7917C16.6268 21.7917 15.8679 21.0328 15.8679 20.0966C15.8679 19.1605 16.6268 18.4014 17.5631 18.4014C18.4993 18.4014 19.2582 19.1605 19.2582 20.0966Z" fill="white"/>
<path d="M23.2216 7.81376C23.2216 8.65532 22.5394 9.33751 21.6978 9.33751C20.8563 9.33751 20.1741 8.65532 20.1741 7.81376C20.1741 6.97204 20.8563 6.28986 21.6978 6.28986C22.5394 6.28986 23.2216 6.97204 23.2216 7.81376Z" fill="#669CFE"/>
<path d="M19.109 11.8889C19.109 12.7305 18.4268 13.4128 17.5853 13.4128C16.7437 13.4128 16.0615 12.7305 16.0615 11.8889C16.0615 11.0474 16.7437 10.3652 17.5853 10.3652C18.4268 10.3652 19.109 11.0474 19.109 11.8889Z" fill="#3FE7FE"/>
<path d="M15.0093 16.0111C15.0093 16.8527 14.327 17.5348 13.4854 17.5348C12.6439 17.5348 11.9617 16.8527 11.9617 16.0111C11.9617 15.1695 12.6439 14.4872 13.4854 14.4872C14.327 14.4872 15.0093 15.1695 15.0093 16.0111Z" fill="white"/>
<path d="M14.8531 24.1752C14.8558 24.3548 14.8228 24.5331 14.7559 24.6998C14.6891 24.8666 14.5897 25.0183 14.4636 25.1463C14.3376 25.2743 14.1873 25.3759 14.0216 25.4452C13.8559 25.5146 13.6781 25.5503 13.4984 25.5503C13.3188 25.5502 13.141 25.5145 12.9753 25.4451C12.8096 25.3757 12.6594 25.2741 12.5333 25.1461C12.4073 25.0181 12.308 24.8663 12.2411 24.6995C12.1743 24.5328 12.1413 24.3544 12.1441 24.1748C12.1495 23.8192 12.2946 23.4799 12.5481 23.2303C12.8016 22.9807 13.143 22.8408 13.4987 22.8409C13.8545 22.8409 14.1959 22.9809 14.4493 23.2305C14.7027 23.4802 14.8478 23.8195 14.8531 24.1752ZM18.9352 28.2572C18.9379 28.4368 18.9048 28.6151 18.838 28.7819C18.7711 28.9486 18.6717 29.1004 18.5457 29.2283C18.4196 29.3563 18.2693 29.4579 18.1036 29.5273C17.9379 29.5966 17.7601 29.6323 17.5805 29.6323C17.4008 29.6323 17.223 29.5965 17.0573 29.5271C16.8916 29.4577 16.7414 29.3561 16.6154 29.2281C16.4893 29.1001 16.39 28.9483 16.3232 28.7816C16.2563 28.6148 16.2233 28.4365 16.2261 28.2569C16.2315 27.9012 16.3767 27.5619 16.6301 27.3123C16.8836 27.0627 17.2251 26.9229 17.5808 26.9229C17.9365 26.923 18.2779 27.0629 18.5313 27.3126C18.7847 27.5622 18.9298 27.9015 18.9352 28.2572ZM23.0106 32.3327C23.0106 32.5105 22.9756 32.6867 22.9075 32.851C22.8394 33.0153 22.7397 33.1647 22.6139 33.2905C22.4881 33.4162 22.3388 33.516 22.1745 33.5841C22.0101 33.6521 21.834 33.6872 21.6561 33.6872C21.4782 33.6872 21.3021 33.6521 21.1377 33.5841C20.9734 33.516 20.8241 33.4162 20.6983 33.2905C20.5725 33.1647 20.4727 33.0153 20.4047 32.851C20.3366 32.6867 20.3016 32.5105 20.3016 32.3327C20.3016 32.1548 20.3366 31.9786 20.4047 31.8143C20.4727 31.65 20.5725 31.5006 20.6983 31.3749C20.8241 31.2491 20.9734 31.1493 21.1377 31.0812C21.3021 31.0132 21.4782 30.9781 21.6561 30.9781C21.834 30.9781 22.0101 31.0132 22.1745 31.0812C22.3388 31.1493 22.4881 31.2491 22.6139 31.3749C22.7397 31.5006 22.8394 31.65 22.9075 31.8143C22.9756 31.9786 23.0106 32.1548 23.0106 32.3327ZM14.8727 32.3327C14.8746 32.5118 14.841 32.6895 14.7738 32.8555C14.7065 33.0216 14.6071 33.1726 14.4811 33.3C14.3551 33.4273 14.2051 33.5284 14.0398 33.5974C13.8745 33.6664 13.6972 33.7019 13.518 33.7019C13.3389 33.7019 13.1616 33.6664 12.9963 33.5974C12.831 33.5284 12.681 33.4273 12.555 33.3C12.429 33.1726 12.3296 33.0216 12.2623 32.8555C12.1951 32.6895 12.1615 32.5118 12.1634 32.3327C12.1673 31.9759 12.3117 31.6351 12.5653 31.3842C12.8189 31.1332 13.1613 30.9925 13.518 30.9925C13.8748 30.9925 14.2172 31.1332 14.4708 31.3842C14.7244 31.6351 14.8688 31.9759 14.8727 32.3327ZM6.65641 32.3327C6.65976 32.5126 6.6272 32.6915 6.56063 32.8588C6.49407 33.026 6.39483 33.1783 6.26873 33.3068C6.14263 33.4353 5.99218 33.5373 5.82618 33.607C5.66019 33.6767 5.48197 33.7125 5.30195 33.7125C5.12193 33.7125 4.94372 33.6767 4.77772 33.607C4.61173 33.5373 4.46128 33.4353 4.33518 33.3068C4.20907 33.1783 4.10984 33.026 4.04327 32.8588C3.97671 32.6915 3.94415 32.5126 3.9475 32.3327C3.9541 31.9778 4.0997 31.6397 4.353 31.3911C4.60629 31.1425 4.94703 31.0032 5.30195 31.0032C5.65687 31.0032 5.99762 31.1425 6.25091 31.3911C6.5042 31.6397 6.6498 31.9778 6.65641 32.3327ZM10.7384 28.2506C10.7418 28.4306 10.7092 28.6095 10.6427 28.7767C10.5761 28.944 10.4769 29.0963 10.3508 29.2248C10.2247 29.3532 10.0742 29.4553 9.90822 29.525C9.74222 29.5946 9.56401 29.6305 9.38398 29.6305C9.20396 29.6305 9.02575 29.5946 8.85975 29.525C8.69376 29.4553 8.54331 29.3532 8.41721 29.2248C8.2911 29.0963 8.19187 28.944 8.12531 28.7767C8.05874 28.6095 8.02618 28.4306 8.02953 28.2506C8.03613 27.8958 8.18174 27.5577 8.43503 27.309C8.68832 27.0604 9.02906 26.9211 9.38398 26.9211C9.73891 26.9211 10.0797 27.0604 10.3329 27.309C10.5862 27.5577 10.7318 27.8958 10.7384 28.2506Z" fill="#6A9EFE"/>
<path d="M14.8706 7.81752C14.8651 8.18928 14.7136 8.54395 14.4487 8.80489C14.1839 9.06584 13.827 9.21211 13.4552 9.21211C13.0834 9.21211 12.7265 9.06584 12.4616 8.80489C12.1968 8.54395 12.0452 8.18928 12.0397 7.81752C12.0369 7.62986 12.0715 7.44353 12.1414 7.26936C12.2112 7.09518 12.3151 6.93664 12.4468 6.80295C12.5785 6.66926 12.7355 6.5631 12.9086 6.49064C13.0817 6.41818 13.2675 6.38086 13.4552 6.38086C13.6428 6.38086 13.8286 6.41818 14.0018 6.49064C14.1749 6.5631 14.3319 6.66926 14.4636 6.80295C14.5953 6.93664 14.6991 7.09518 14.769 7.26936C14.8389 7.44353 14.8734 7.62986 14.8706 7.81752Z" fill="#3FE7FE"/>
<path d="M10.75 11.9591C10.75 12.3345 10.6008 12.6946 10.3353 12.9601C10.0698 13.2256 9.70977 13.3747 9.33433 13.3747C8.95888 13.3747 8.59881 13.2256 8.33333 12.9601C8.06785 12.6946 7.9187 12.3345 7.9187 11.9591C7.9187 11.5836 8.06785 11.2236 8.33333 10.9581C8.59881 10.6926 8.95888 10.5435 9.33433 10.5435C9.70977 10.5435 10.0698 10.6926 10.3353 10.9581C10.6008 11.2236 10.75 11.5836 10.75 11.9591ZM6.43354 7.75986C6.43354 7.90986 6.404 8.05838 6.3466 8.19696C6.2892 8.33554 6.20507 8.46145 6.09901 8.56751C5.99294 8.67357 5.86703 8.75771 5.72845 8.81511C5.58988 8.87251 5.44135 8.90205 5.29136 8.90205C5.14136 8.90205 4.99284 8.87251 4.85426 8.81511C4.71568 8.75771 4.58977 8.67357 4.48371 8.56751C4.37765 8.46145 4.29351 8.33554 4.23611 8.19696C4.17871 8.05838 4.14917 7.90986 4.14917 7.75986C4.14917 7.45694 4.26951 7.16642 4.48371 6.95221C4.69791 6.73801 4.98843 6.61768 5.29136 6.61768C5.59428 6.61768 5.8848 6.73801 6.09901 6.95221C6.31321 7.16642 6.43354 7.45694 6.43354 7.75986Z" fill="white"/>
</svg>
