<svg width="40" height="40" viewBox="0 0 40 40" fill="none" xmlns="http://www.w3.org/2000/svg">
<g clip-path="url(#clip0_556_1986)">
<path d="M20.0849 4C11.9187 4 12.4287 7.54125 12.4287 7.54125L12.4374 11.21H20.2299V12.3112H9.34243C9.34243 12.3112 4.11743 11.7187 4.11743 19.9587C4.11743 28.1987 8.67868 27.9062 8.67868 27.9062H11.4012V24.0825C11.368 23.4811 11.4608 22.8794 11.6736 22.3159C11.8864 21.7524 12.2145 21.2395 12.6369 20.8102C13.0593 20.3808 13.5668 20.0444 14.1267 19.8224C14.6867 19.6005 15.2868 19.4979 15.8887 19.5212H23.6174C23.6174 19.5212 27.9599 19.5912 27.9599 15.325V8.26875C27.9599 8.26875 28.6187 4 20.0849 4ZM15.7874 6.4675C16.1109 6.46822 16.4241 6.58102 16.6737 6.78669C16.9234 6.99237 17.094 7.2782 17.1566 7.59554C17.2192 7.91288 17.1699 8.24211 17.0171 8.52718C16.8642 8.81225 16.6173 9.03554 16.3184 9.15903C16.0194 9.28253 15.6869 9.2986 15.3774 9.20451C15.068 9.11042 14.8007 8.91198 14.6211 8.64298C14.4414 8.37398 14.3606 8.05105 14.3923 7.72915C14.424 7.40725 14.5663 7.10629 14.7949 6.8775C14.9253 6.74732 15.0801 6.6441 15.2504 6.57375C15.4207 6.5034 15.6032 6.46729 15.7874 6.4675Z" fill="url(#paint0_linear_556_1986)"/>
<path d="M20.3163 35.9999C28.4825 35.9999 27.9725 32.4587 27.9725 32.4587L27.9638 28.7899H20.1713V27.6887H31.0588C31.0588 27.6887 36.2838 28.2812 36.2838 20.0412C36.2838 11.8012 31.7225 12.0937 31.7225 12.0937H29.0013V15.9174C29.0344 16.519 28.9416 17.1208 28.7288 17.6844C28.5159 18.248 28.1877 18.7609 27.7651 19.1903C27.3425 19.6196 26.8349 19.9561 26.2748 20.1779C25.7147 20.3998 25.1145 20.5022 24.5125 20.4787H16.785C16.785 20.4787 12.4425 20.4087 12.4425 24.6749V31.7299C12.4425 31.7299 11.7825 35.9999 20.3163 35.9999ZM24.6138 33.5324C24.29 33.5318 23.9764 33.419 23.7264 33.2132C23.4765 33.0074 23.3056 32.7213 23.2429 32.4036C23.1801 32.086 23.2295 31.7564 23.3824 31.471C23.5354 31.1857 23.7826 30.9621 24.0818 30.8385C24.3811 30.7149 24.7139 30.6988 25.0237 30.793C25.3335 30.8872 25.601 31.0859 25.7808 31.3552C25.9605 31.6245 26.0414 31.9478 26.0096 32.27C25.9777 32.5923 25.8352 32.8935 25.6063 33.1224C25.4759 33.2526 25.3211 33.3558 25.1508 33.4262C24.9805 33.4965 24.798 33.5326 24.6138 33.5324Z" fill="url(#paint1_linear_556_1986)"/>
</g>
<defs>
<linearGradient id="paint0_linear_556_1986" x1="7.21849" y1="6.79718" x2="23.141" y2="22.7319" gradientUnits="userSpaceOnUse">
<stop stop-color="#387EB8"/>
<stop offset="1" stop-color="#366994"/>
</linearGradient>
<linearGradient id="paint1_linear_556_1986" x1="16.9866" y1="16.9456" x2="34.1026" y2="33.2833" gradientUnits="userSpaceOnUse">
<stop stop-color="#FFE052"/>
<stop offset="1" stop-color="#FFC331"/>
</linearGradient>
<clipPath id="clip0_556_1986">
<rect width="40" height="40" fill="white"/>
</clipPath>
</defs>
</svg>
