<svg width="40" height="40" viewBox="0 0 40 40" fill="none" xmlns="http://www.w3.org/2000/svg">
<path d="M31.3844 11.7528L28.4818 14.6599C33.3199 19.4966 33.3199 27.3828 28.4818 32.2194C23.6391 37.0636 15.7589 37.0636 10.9147 32.2194C6.0796 27.3843 6.0796 19.4966 10.9147 14.6599L18.66 6.91466L19.63 5.80819V0L7.87269 11.7528C6.32881 13.2824 5.1033 15.1027 4.26696 17.1087C3.43061 19.1146 3 21.2664 3 23.4397C3 25.613 3.43061 27.7647 4.26696 29.7707C5.1033 31.7766 6.32881 33.5969 7.87269 35.1265C9.40232 36.6707 11.2228 37.8964 13.2288 38.7328C15.2349 39.5693 17.3868 40 19.5603 40C21.7338 40 23.8857 39.5693 25.8918 38.7328C27.8979 37.8964 29.7183 36.6707 31.2479 35.1265C37.8852 28.6257 37.8852 18.1173 31.3844 11.7528Z" fill="#EE4C2C"/>
<path d="M27.7892 8.70777C27.7741 9.28485 27.5342 9.83322 27.1207 10.236C26.7072 10.6389 26.1528 10.8643 25.5755 10.8643C24.9982 10.8643 24.4438 10.6389 24.0303 10.236C23.6168 9.83322 23.3769 9.28485 23.3618 8.70777C23.3618 8.12066 23.595 7.5576 24.0102 7.14245C24.4253 6.72731 24.9884 6.49408 25.5755 6.49408C26.1626 6.49408 26.7257 6.72731 27.1408 7.14245C27.556 7.5576 27.7892 8.12066 27.7892 8.70777Z" fill="#EE4C2C"/>
</svg>
