<svg width="40" height="40" viewBox="0 0 40 40" fill="none" xmlns="http://www.w3.org/2000/svg">
<g clip-path="url(#clip0_553_1594)">
<path d="M40.0001 19.865C40.0001 17.2287 36.6988 14.73 31.6376 13.1812C32.8051 8.02249 32.2864 3.91749 29.9989 2.60374C29.4445 2.29278 28.8168 2.13609 28.1813 2.14999V3.95874C28.5027 3.94869 28.8212 4.02143 29.1063 4.16999C30.2101 4.80249 30.6876 7.21124 30.3151 10.31C30.2263 11.0725 30.0801 11.875 29.9014 12.695C28.2058 12.2865 26.4849 11.9912 24.7501 11.8112C23.7166 10.3855 22.5891 9.03043 21.3751 7.75498C24.0201 5.29748 26.5001 3.95123 28.1889 3.95123V2.14124C25.9576 2.14124 23.0376 3.73123 20.0851 6.48873C17.1326 3.74748 14.2101 2.17374 11.9814 2.17374V3.98248C13.6601 3.98248 16.1501 5.32124 18.7951 7.76249C17.5871 9.0334 16.4678 10.3857 15.4451 11.81C13.707 11.9881 11.9833 12.2863 10.2864 12.7025C10.1001 11.8912 9.96134 11.105 9.86509 10.35C9.49009 7.25124 9.95385 4.84249 11.0489 4.20124C11.335 4.04828 11.6572 3.97529 11.9814 3.98998V2.18123C11.3407 2.16734 10.7079 2.32393 10.1476 2.63498C7.86761 3.94873 7.35761 8.04498 8.53386 13.1875C3.48886 14.745 0.203857 17.235 0.203857 19.8637C0.203857 22.4925 3.50511 24.9987 8.56636 26.5475C7.39886 31.7062 7.9176 35.8112 10.2051 37.125C10.7619 37.4368 11.3921 37.5935 12.0301 37.5787C14.2614 37.5787 17.1814 35.9887 20.1339 33.2312C23.0864 35.9725 26.0089 37.5462 28.2376 37.5462C28.8783 37.5601 29.5111 37.4035 30.0714 37.0925C32.3514 35.7787 32.8614 31.6825 31.6851 26.54C36.7151 24.9912 40.0001 22.4925 40.0001 19.865ZM29.4389 14.455C29.1389 15.5012 28.7651 16.58 28.3438 17.6587C28.0113 17.01 27.6626 16.3612 27.2813 15.7125C26.9001 15.0637 26.5101 14.4312 26.1139 13.815C27.2651 13.9837 28.3764 14.19 29.4389 14.455ZM25.7239 23.0937C25.0914 24.1887 24.4426 25.2275 23.7688 26.1925C22.5601 26.2975 21.3351 26.355 20.1026 26.355C18.8701 26.355 17.6526 26.2987 16.4526 26.2012C15.7793 25.2362 15.1251 24.2087 14.4901 23.1187C13.8734 22.0562 13.3109 20.98 12.8026 19.89C13.3026 18.8025 13.8739 17.7162 14.4814 16.6537C15.1139 15.5587 15.7626 14.52 16.4363 13.555C17.6451 13.45 18.8701 13.3925 20.1026 13.3925C21.3351 13.3925 22.5526 13.4487 23.7526 13.5462C24.4259 14.5112 25.0801 15.5387 25.7151 16.6287C26.3318 17.6912 26.8943 18.7675 27.4026 19.8575C26.8926 20.9437 26.3301 22.0312 25.7239 23.0937ZM28.3488 22.0387C28.7863 23.1262 29.1601 24.2125 29.4739 25.2675C28.4114 25.5275 27.2913 25.7462 26.1313 25.9162C26.5288 25.2912 26.9264 24.6512 27.2989 23.9937C27.6714 23.3362 28.0113 22.6875 28.3438 22.0387H28.3488ZM20.1238 30.6937C19.3299 29.8674 18.5789 29.0009 17.8739 28.0975C18.6039 28.13 19.3501 28.1537 20.1051 28.1537C20.8601 28.1537 21.6226 28.1375 22.3551 28.0975C21.6571 29.0026 20.9106 29.8693 20.1188 30.6937H20.1238ZM14.0801 25.9162C12.9289 25.7462 11.8164 25.5412 10.7539 25.275C11.0539 24.2287 11.4276 23.15 11.8489 22.0712C12.1814 22.72 12.5301 23.3687 12.9114 24.0175C13.2926 24.6662 13.6864 25.3 14.0801 25.9162ZM20.0801 9.04123C20.8741 9.8675 21.6251 10.7341 22.3301 11.6375C21.6001 11.605 20.8539 11.5812 20.0989 11.5812C19.3439 11.5812 18.5814 11.5975 17.8489 11.6375C18.5451 10.7308 19.2899 9.8624 20.0801 9.03623V9.04123ZM14.0801 13.8187C13.6826 14.4437 13.2851 15.0837 12.9126 15.7412C12.5401 16.3987 12.1901 17.0387 11.8576 17.6875C11.4201 16.6 11.0463 15.5137 10.7326 14.4587C11.7963 14.2087 12.9164 13.9837 14.0801 13.8137V13.8187ZM6.73885 23.9737C3.86385 22.7487 2.0101 21.1425 2.0101 19.8687C2.0101 18.595 3.8676 16.9812 6.73885 15.7637C7.43635 15.4637 8.19886 15.1962 8.98886 14.945C9.48505 16.6309 10.0948 18.2814 10.8138 19.885C10.1023 21.4804 9.50053 23.1226 9.0126 24.8C8.2051 24.55 7.4401 24.2662 6.7351 23.9687L6.73885 23.9737ZM11.1026 35.565C9.99885 34.9325 9.52136 32.5237 9.89386 29.425C9.98261 28.6625 10.1288 27.86 10.3076 27.04C12.0032 27.4485 13.7241 27.7438 15.4589 27.9237C16.4923 29.3494 17.6199 30.7045 18.8338 31.98C16.1901 34.4375 13.7088 35.7837 12.0201 35.7837C11.6993 35.787 11.3828 35.7106 11.0988 35.5612L11.1026 35.565ZM30.3426 29.3837C30.7176 32.4825 30.2539 34.8912 29.1589 35.5325C28.8727 35.6854 28.5505 35.7584 28.2264 35.7437C26.5476 35.7437 24.0576 34.405 21.4126 31.9637C22.6206 30.6928 23.7399 29.3405 24.7626 27.9162C26.5007 27.7381 28.2244 27.4399 29.9214 27.0237C30.1022 27.8012 30.242 28.5878 30.3401 29.38L30.3426 29.3837ZM33.4676 23.9737C32.7701 24.2737 32.0076 24.5412 31.2176 24.7925C30.7214 23.1065 30.1117 21.4561 29.3926 19.8525C30.1041 18.257 30.7059 16.6149 31.1938 14.9375C31.9963 15.1875 32.7588 15.465 33.4726 15.765C36.3476 16.99 38.2014 18.5962 38.2014 19.87C38.2014 21.1437 36.3264 22.7525 33.4626 23.9687L33.4676 23.9737Z" fill="#61DAFB"/>
<path d="M20.0952 23.5725C22.1428 23.5725 23.8027 21.9126 23.8027 19.865C23.8027 17.8174 22.1428 16.1575 20.0952 16.1575C18.0476 16.1575 16.3877 17.8174 16.3877 19.865C16.3877 21.9126 18.0476 23.5725 20.0952 23.5725Z" fill="#61DAFB"/>
</g>
<defs>
<clipPath id="clip0_553_1594">
<rect width="40" height="40" fill="white"/>
</clipPath>
</defs>
</svg>
