<svg width="57" height="40" viewBox="0 0 57 40" fill="none" xmlns="http://www.w3.org/2000/svg">
<path fill-rule="evenodd" clip-rule="evenodd" d="M49.5114 27.3994V30H54.2096C55.1723 30 56.8246 29.296 56.8821 27.3276V26.3218C56.8821 24.6408 55.5028 23.6494 54.2096 23.6494H51.8677V22.4425H56.5085V19.8276H52.0545C50.9051 19.8276 49.3677 20.7759 49.3677 22.5431V23.4483C49.3677 25.2155 50.8907 26.1207 52.0545 26.1207C55.2872 26.135 51.2786 26.1207 54.2671 26.1207V27.385M24.339 26.7672C24.339 26.7672 26.8533 26.5517 26.8533 23.3046C26.8533 20.0575 23.8074 19.7557 23.8074 19.7557H18.3188V30H21.0775V27.5287L23.4625 30H27.543L24.339 26.7672ZM23.2757 24.6695H21.0775V22.3276H23.2901C23.2901 22.3276 23.9079 22.5575 23.9079 23.4914C23.9079 24.4253 23.2757 24.6695 23.2757 24.6695ZM33.6637 19.8276H30.862C28.8648 19.8276 28.1895 21.6379 28.1895 22.5V30H30.9913V28.204H33.6206V30H36.3361V22.5C36.3361 20.3161 34.3533 19.8276 33.6637 19.8276ZM33.6206 25.3017H30.9769V22.8161C30.9769 22.8161 30.9769 22.2557 31.8533 22.2557H32.816C33.5918 22.2557 33.6062 22.8161 33.6062 22.8161V25.3017H33.6206Z" fill="#CC0000"/>
<path d="M40.5317 19.8276H37.615V30H40.5317V19.8276Z" fill="#CC0000"/>
<path fill-rule="evenodd" clip-rule="evenodd" d="M44.6264 27.3707V19.8276H41.7241V27.3707V30H44.6264H48.5488V27.3707H44.6264Z" fill="#CC0000"/>
<path fill-rule="evenodd" clip-rule="evenodd" d="M1.00586 30H12.3564C12.3564 30 10.1869 20.1006 17.3708 16.0919C18.9369 15.3305 23.9225 12.4856 32.0834 18.5201C32.3421 18.3046 32.5863 18.1322 32.5863 18.1322C32.5863 18.1322 25.1151 10.6753 16.7961 11.5086C12.6151 11.8822 7.47138 15.6897 4.45414 20.7184C1.43689 25.7471 1.00586 30 1.00586 30Z" fill="#CC0000"/>
<path fill-rule="evenodd" clip-rule="evenodd" d="M1.00586 30H12.3564C12.3564 30 10.1869 20.1006 17.3708 16.0919C18.9369 15.3305 23.9225 12.4856 32.0834 18.5201C32.3421 18.3046 32.5863 18.1322 32.5863 18.1322C32.5863 18.1322 25.1151 10.6753 16.7961 11.5086C12.6151 11.8822 7.47138 15.6897 4.45414 20.7184C1.43689 25.7471 1.00586 30 1.00586 30Z" fill="#CC0000"/>
<path fill-rule="evenodd" clip-rule="evenodd" d="M1.00586 30H12.3564C12.3564 30 10.1869 20.1006 17.3708 16.0919C18.9369 15.3304 23.9225 12.4856 32.0834 18.5201C32.3421 18.3046 32.5863 18.1322 32.5863 18.1322C32.5863 18.1322 25.1151 10.6753 16.7961 11.5086C12.6007 11.8822 7.45701 15.6896 4.43977 20.7184C1.42253 25.7471 1.00586 30 1.00586 30ZM24.6553 12.3132L24.7128 11.3506C24.5834 11.2787 24.2243 11.1063 23.3191 10.8477L23.2616 11.796C23.7357 11.954 24.1955 12.1264 24.6553 12.3132Z" fill="#CC0000"/>
<path fill-rule="evenodd" clip-rule="evenodd" d="M23.2902 15.3592L23.2328 16.2644C23.7069 16.2787 24.181 16.3362 24.6552 16.4368L24.7126 15.546C24.2241 15.4454 23.75 15.3879 23.2902 15.3592ZM17.9741 10.8764H18.1178L17.8305 10C17.3851 10 16.9253 10.0287 16.4511 10.0862L16.7241 10.9339C17.1408 10.8908 17.5575 10.8764 17.9741 10.8764ZM18.6638 16.1638L18.9943 17.1552C19.4109 16.954 19.8276 16.7816 20.2443 16.6523L19.9282 15.704C19.4397 15.8477 19.023 16.0057 18.6638 16.1638ZM12.1408 12.3851L11.4943 11.3937C11.1351 11.5805 10.7615 11.7816 10.3736 12.0115L11.0345 13.0172C11.408 12.7874 11.7672 12.5718 12.1408 12.3851ZM15.0862 18.8506L15.7759 19.8851C16.0201 19.5259 16.3075 19.1954 16.6236 18.8649L15.977 17.8879C15.6466 18.1897 15.3448 18.5201 15.0862 18.8506ZM13.0029 23.477L14.1667 24.3965C14.2241 23.8362 14.3247 23.2759 14.4684 22.7155L13.4339 21.8965C13.2471 22.4282 13.1178 22.9598 13.0029 23.477ZM6.70977 16.6523L5.68965 15.7615C5.31609 16.1207 4.9569 16.4799 4.62644 16.8391L5.73276 17.7874C6.03448 17.3994 6.36494 17.0115 6.70977 16.6523ZM2.37069 23.0747L0.718391 22.4713C0.445402 23.0891 0.143678 23.8075 0 24.1954L1.6523 24.7988C1.83908 24.3103 2.1408 23.6063 2.37069 23.0747ZM12.7874 27.1264C12.8161 27.8879 12.8879 28.5057 12.9598 28.9368L14.6839 29.5546C14.5546 28.9943 14.4253 28.3621 14.3391 27.6868L12.7874 27.1264Z" fill="#CC0000"/>
</svg>
