<svg width="40" height="40" viewBox="0 0 40 40" fill="none" xmlns="http://www.w3.org/2000/svg">
<path d="M8 24.608V27.684C8 28.2025 19.1867 29.0709 26.4752 30.76C29.9961 29.9439 32.608 28.9366 32.608 27.684V24.608C32.608 23.3561 29.9961 22.3481 26.4752 21.532C19.1866 23.2214 8 24.0899 8 24.608Z" fill="url(#paint0_linear_568_839)"/>
<path d="M8 12.304V15.38C8 15.8985 19.1867 16.7669 26.4752 18.456C29.9961 17.6399 32.608 16.6326 32.608 15.38V12.304C32.608 11.0521 29.9961 10.0441 26.4752 9.22799C19.1866 10.9174 8 11.7859 8 12.304Z" fill="url(#paint1_linear_568_839)"/>
<path d="M8 18.456V27.684C8 26.915 32.608 25.377 32.608 21.532V12.304C32.608 16.149 8 17.687 8 18.456Z" fill="url(#paint2_linear_568_839)"/>
<path d="M8 6.152V15.38C8 14.611 32.608 13.073 32.608 9.228V5.00679e-06C32.608 3.845 8 5.383 8 6.152Z" fill="url(#paint3_linear_568_839)"/>
<path d="M8 30.76V39.988C8 39.219 32.608 37.681 32.608 33.836V24.608C32.608 28.453 8 29.991 8 30.76Z" fill="url(#paint4_linear_568_839)"/>
<defs>
<linearGradient id="paint0_linear_568_839" x1="8" y1="-430.64" x2="32.608" y2="-430.64" gradientUnits="userSpaceOnUse">
<stop stop-color="#4F4F4F"/>
<stop offset="1"/>
</linearGradient>
<linearGradient id="paint1_linear_568_839" x1="8" y1="-442.944" x2="32.608" y2="-442.944" gradientUnits="userSpaceOnUse">
<stop stop-color="#4F4F4F"/>
<stop offset="1"/>
</linearGradient>
<linearGradient id="paint2_linear_568_839" x1="8" y1="-741.316" x2="32.608" y2="-741.316" gradientUnits="userSpaceOnUse">
<stop stop-color="#C40000"/>
<stop offset="1" stop-color="#FF0000"/>
</linearGradient>
<linearGradient id="paint3_linear_568_839" x1="8" y1="-753.62" x2="32.608" y2="-753.62" gradientUnits="userSpaceOnUse">
<stop stop-color="#C40000"/>
<stop offset="1" stop-color="#FF0000"/>
</linearGradient>
<linearGradient id="paint4_linear_568_839" x1="8" y1="-729.012" x2="32.608" y2="-729.012" gradientUnits="userSpaceOnUse">
<stop stop-color="#C40000"/>
<stop offset="1" stop-color="#FF0000"/>
</linearGradient>
</defs>
</svg>
