<svg width="40" height="40" viewBox="0 0 40 40" fill="none" xmlns="http://www.w3.org/2000/svg">
<path d="M18.2576 1.30227C18.5383 1.30227 18.686 1.44261 18.9963 1.59034C17.2678 2.32899 15.5394 4.1756 14.6826 8.23816L11.5138 9.10238C12.4962 6.19211 14.5127 1.30227 18.2576 1.30227ZM19.8383 2.73524C20.2311 3.84495 20.4262 5.01499 20.4145 6.19211V6.48018L16.2411 7.63247C17.0906 4.61141 18.5679 3.33355 19.8383 2.73524ZM23.5759 5.32789L21.7071 5.90404V5.46824C21.7329 4.39838 21.5882 3.33124 21.2787 2.30683C22.2611 2.5949 23.1475 3.88753 23.5759 5.32789ZM32.9272 7.63247C32.9236 7.55723 32.8921 7.48602 32.8388 7.43276C32.7855 7.37949 32.7143 7.34799 32.6391 7.3444C32.351 7.3444 29.3299 7.05633 29.3299 7.05633C29.3299 7.05633 27.1731 4.89209 26.885 4.75175C26.597 4.46368 26.1464 4.61141 26.0208 4.61141C26.0208 4.61141 25.5924 4.75175 24.8685 5.03982C24.1299 3.02331 22.8594 1.15454 20.7025 1.15454H20.5548C20.3207 0.797037 20.0005 0.504138 19.6236 0.302782C19.2467 0.101426 18.8253 -0.00192142 18.398 0.00224634C13.2274 -0.138097 10.7751 6.33245 9.91091 9.6416C8.75862 9.92967 7.60633 10.3802 6.3137 10.7939C5.16141 11.082 5.16141 11.2223 5.02107 12.2342C4.87334 12.9729 2 35.6863 2 35.6863L24.8981 40L37.2704 37.267C37.2704 37.267 32.9272 7.91316 32.9272 7.63247Z" fill="#8DB948"/>
<path d="M32.4986 7.34445C32.3509 7.34445 29.3298 7.05637 29.3298 7.05637C29.3298 7.05637 27.173 4.89214 26.8849 4.75179C26.7446 4.61145 26.7446 4.61145 26.5968 4.61145L24.8684 40L37.2408 37.2671C37.2408 37.2671 32.9271 7.9132 32.9271 7.63252C32.9271 7.48479 32.639 7.34445 32.4986 7.34445Z" fill="#5C863E"/>
<path d="M20.7025 14.2434L19.1144 18.8451C18.1783 18.3679 17.144 18.1151 16.0933 18.1065C13.6484 18.1065 13.508 19.5469 13.508 19.9827C13.508 21.9918 18.974 22.856 18.974 27.7458C18.974 31.6311 16.5291 34.076 13.22 34.076C12.1191 34.1018 11.0251 33.8976 10.0076 33.4767C8.99011 33.0557 8.07162 32.4271 7.31079 31.6311L8.32274 28.1816C8.32274 28.1816 10.3392 29.9248 12.0677 29.9248C12.2792 29.9403 12.4916 29.9099 12.6904 29.8359C12.8891 29.762 13.0696 29.646 13.2196 29.4961C13.3696 29.3461 13.4855 29.1656 13.5595 28.9668C13.6335 28.768 13.6638 28.5557 13.6484 28.3441C13.6484 25.6111 9.2165 25.4708 9.2165 21.0094C9.18696 17.2718 11.92 13.6746 17.2456 13.6746C19.6905 13.5269 20.7025 14.2434 20.7025 14.2434Z" fill="white"/>
</svg>
