<svg width="40" height="40" viewBox="0 0 40 40" fill="none" xmlns="http://www.w3.org/2000/svg">
<path d="M36.3647 2.08304C35.8023 3.4266 35.0889 4.70247 34.2296 5.87418C30.4697 2.11429 25.3663 0 20.0493 0C9.05082 0 0 9.06124 0 20.0753C0 25.5693 2.24969 30.829 6.2283 34.6202L6.96778 35.2763C10.5819 38.3228 15.1593 39.9996 19.8826 39.9996C30.3395 39.9996 39.13 31.8029 39.8746 21.3564C40.4214 16.2425 38.9216 9.77468 36.3647 2.08304ZM9.07686 34.7347C8.75399 35.1357 8.25926 35.3701 7.74371 35.3701C6.80113 35.3701 6.03041 34.5941 6.03041 33.6516C6.03041 32.709 6.80634 31.933 7.74371 31.933C8.13428 31.933 8.51964 32.0684 8.82168 32.3184C9.55596 32.9121 9.67053 34.0005 9.07686 34.7347ZM36.2814 28.7252C31.3342 35.3232 20.7679 33.0995 13.9928 33.4172C13.9928 33.4172 12.7899 33.4901 11.5817 33.688C11.5817 33.688 12.0348 33.4953 12.6232 33.2714C17.3778 31.6154 19.6275 31.2925 22.5177 29.8083C27.9596 27.0379 33.3391 20.9762 34.4587 14.6698C32.3861 20.7367 26.1057 25.9495 20.3826 28.069C16.4612 29.5167 9.3789 30.9228 9.3789 30.9228L9.09248 30.7717C4.27024 28.4231 4.12442 17.9714 12.8888 14.5969C16.7268 13.118 20.3982 13.9303 24.5434 12.9409C28.9699 11.889 34.089 8.56651 36.172 4.23378C38.505 11.1651 41.3119 22.0178 36.2814 28.7252Z" fill="#77BC1F"/>
</svg>
