<svg width="40" height="40" viewBox="0 0 40 40" fill="none" xmlns="http://www.w3.org/2000/svg">
<path d="M25.113 18.6613L17.0947 21.2845L10.1111 24.3648L8.1613 24.8815C7.66389 25.3585 7.14658 25.8355 6.56959 26.3124C5.9528 26.849 5.37581 27.3259 4.93809 27.6837C4.44068 28.0811 3.72442 28.7965 3.34639 29.2536C2.78929 29.9492 2.35157 30.6845 2.1725 31.2409C1.83426 32.2545 1.99344 33.2879 2.65001 34.2418C3.46576 35.454 5.11716 36.6862 7.02721 37.5208C8.00213 37.9581 9.65352 38.4946 10.8871 38.8126C12.9364 39.3293 16.9157 39.9056 19.1043 39.9851C19.542 40.005 20.1389 40.005 20.1588 39.9851C20.1986 39.9454 20.5567 39.3094 20.9347 38.4946C22.2877 35.7521 23.2427 33.1686 23.7799 30.9826C24.0983 29.6511 24.337 27.8824 24.5161 25.7758C24.5559 25.1796 24.5758 23.2122 24.536 22.5564C24.4763 21.4634 24.3768 20.5889 24.2375 19.7145C24.2176 19.5953 24.1977 19.4761 24.2176 19.4761C24.2375 19.4562 24.3171 19.4363 25.3119 19.1581L25.113 18.6613ZM23.2825 19.7344C23.3621 19.7344 23.5412 21.6025 23.6008 22.775C23.6207 23.0135 23.6008 23.1923 23.6008 23.1923C23.5611 23.1923 22.5861 22.616 21.8699 22.1788C21.273 21.8012 20.119 21.0262 19.9399 20.887C19.8802 20.8473 19.8802 20.8473 20.3776 20.6684C21.2133 20.3703 23.2029 19.7344 23.2825 19.7344ZM19.1839 21.0858C19.2436 21.0858 19.3828 21.1653 19.7211 21.364C20.9745 22.1391 22.6657 23.093 23.4019 23.4109C23.6207 23.5103 23.6406 23.4705 23.1432 23.8283C22.0489 24.5834 20.6562 25.3188 18.9849 26.0541C18.6865 26.1932 18.4477 26.2925 18.4278 26.2925C18.4079 26.2925 18.4477 26.1336 18.5074 25.9547C18.9053 24.4443 19.1441 22.9141 19.164 21.7018C19.1242 21.0858 19.1242 21.0858 19.1839 21.0858ZM18.3482 21.4037C18.388 21.4435 18.3681 22.7949 18.3084 23.1725C18.2089 24.0469 18.0299 24.8815 17.7513 25.8156C17.6916 26.0342 17.6319 26.2329 17.612 26.2329C17.5922 26.2727 16.7565 25.4579 16.478 25.1399C16.0004 24.6033 15.6423 24.0469 15.3638 23.5103C15.2245 23.2321 15.0056 22.6955 15.0255 22.6955C15.125 22.616 18.3283 21.3839 18.3482 21.4037ZM14.3888 22.9538C14.4286 22.9737 14.4684 23.0731 14.4883 23.1725C14.6873 23.709 15.125 24.4841 15.503 24.961C15.9209 25.4976 16.4581 26.0938 16.8958 26.4714C17.0351 26.5906 17.1743 26.7099 17.1942 26.7297C17.234 26.7695 17.234 26.7695 16.2591 27.1272C15.1051 27.5644 13.8715 28.0016 12.439 28.4587C12.1008 28.5779 11.7625 28.6773 11.4243 28.7965C11.3646 28.8164 11.3845 28.7767 11.5437 28.5382C12.2599 27.4253 13.3343 25.2591 13.9312 23.709C14.0307 23.4507 14.1302 23.1725 14.1501 23.1128C14.17 23.0333 14.2098 22.9936 14.2894 22.9538C14.3292 22.9737 14.369 22.9538 14.3888 22.9538ZM13.1752 23.4507C13.1951 23.4706 12.8767 24.1065 12.5783 24.7027C11.9814 25.8553 11.3447 26.9682 10.4892 28.3395C10.3499 28.5779 10.2106 28.7965 10.1907 28.8164C10.1509 28.8562 10.1509 28.8562 10.0514 28.6574C9.85248 28.26 9.67342 27.7234 9.59383 27.2464C9.49435 26.7695 9.51425 25.9547 9.63362 25.438C9.71321 25.0604 9.71321 25.0604 9.89228 24.9809C10.6284 24.6033 13.1354 23.4308 13.1752 23.4507ZM23.6207 23.8879V24.1462C23.6207 25.4976 23.4815 27.3458 23.2626 28.6972C23.2228 28.9357 23.2029 29.1344 23.183 29.1344C23.183 29.1344 23.004 29.0946 22.805 29.035C21.8898 28.7568 20.9148 28.3395 20.0195 27.8426C19.4226 27.5247 18.5671 26.9881 18.6069 26.9682C18.6069 26.9682 18.8655 26.8291 19.164 26.6701C20.3577 26.0541 21.4918 25.3784 22.4866 24.7226C22.8647 24.4841 23.4218 24.0667 23.5412 23.9674L23.6207 23.8879ZM8.59901 25.6765C8.61891 25.6765 8.61891 25.7162 8.57912 25.9348C8.55922 26.0938 8.51943 26.3919 8.51943 26.5906C8.47964 27.465 8.61891 28.1209 9.05663 29.0152C9.17601 29.2536 9.27549 29.4722 9.27549 29.4722C9.2357 29.512 5.21664 30.6845 3.96317 31.0223C3.58514 31.1217 3.2668 31.2211 3.22701 31.2211C3.18721 31.2409 3.18721 31.2211 3.18721 31.1217C3.32649 30.2274 4.00296 29.0748 4.95799 28.0811C5.59467 27.4253 6.09208 27.0477 6.94762 26.5509C7.56441 26.2329 8.49953 25.6963 8.59901 25.6765C8.57912 25.6765 8.57912 25.6765 8.59901 25.6765ZM18.0498 27.3657C18.0498 27.3657 18.2089 27.4452 18.3681 27.5445C19.6614 28.2997 21.4719 28.9953 23.004 29.353L23.1432 29.3927L22.9443 29.4921C22.1285 29.9492 19.4823 31.0422 16.7764 32.0557C16.3785 32.1948 16.0004 32.3538 15.9209 32.3737C15.8413 32.4135 15.7816 32.4135 15.7816 32.4135C15.7816 32.4135 15.8811 32.1949 16.0203 31.9365C16.7764 30.5255 17.5325 28.7965 17.9304 27.6042C18.01 27.465 18.0498 27.3657 18.0498 27.3657ZM17.0947 27.6837C17.0947 27.6837 17.055 27.8228 16.9953 27.9619C16.4581 29.2338 15.7816 30.6249 14.8863 32.1949C14.6674 32.5923 14.4684 32.9103 14.4684 32.9103C14.4684 32.9103 14.2894 32.8109 14.0705 32.6718C12.7772 31.8769 11.6432 30.923 10.907 29.9691L10.8075 29.83L11.3646 29.671C13.3343 29.1344 15.0255 28.5581 16.6968 27.8426C16.8759 27.7631 17.0749 27.6837 17.0947 27.6837ZM23.0835 29.7703C23.0835 29.9094 22.7851 31.1614 22.5264 32.0557C22.3076 32.8109 22.1285 33.4071 21.7903 34.4604C21.651 34.9175 21.5117 35.2951 21.5117 35.2951C21.5117 35.2951 21.4719 35.2951 21.4321 35.2752C19.6415 34.9572 18.01 34.5001 16.4979 33.8841C16.08 33.7052 15.4632 33.4469 15.4235 33.4071C15.4036 33.3872 15.7816 33.2283 16.2392 33.0295C19.0048 31.8173 21.85 30.4659 22.8448 29.8697C22.9642 29.8101 23.0636 29.7703 23.0835 29.7703ZM9.25559 30.2473C9.27549 30.2672 8.49953 31.3602 7.42513 32.8705C7.0471 33.4071 6.60938 34.0232 6.45021 34.2418C6.29104 34.4803 6.03239 34.838 5.89311 35.0566L5.63446 35.454L5.35591 35.2156C5.03757 34.9572 4.48048 34.3809 4.22182 34.0629C3.70452 33.4071 3.34638 32.7314 3.20711 32.1154C3.14742 31.8173 3.14742 31.6781 3.20711 31.6583C3.30659 31.6384 4.9182 31.2608 6.43032 30.9031C7.26596 30.7044 8.24088 30.4858 8.59901 30.3864C8.95715 30.3069 9.2357 30.2473 9.25559 30.2473ZM10.0315 30.5454L10.2305 30.764C11.106 31.7378 12.0013 32.4532 13.0757 33.0891C13.2747 33.1885 13.4139 33.2879 13.394 33.3077C13.3542 33.3475 9.65352 34.6591 7.92254 35.2354C6.96752 35.5733 6.17166 35.8515 6.15177 35.8515L6.03239 35.772L5.93291 35.6925L6.11197 35.4342C6.68897 34.6194 7.40524 33.7052 8.95715 31.8371L10.0315 30.5454ZM14.8664 34.0033C14.8664 34.0033 15.1449 34.1027 15.4632 34.2219C16.2591 34.52 16.8759 34.6989 17.7115 34.9175C18.7461 35.1758 20.2384 35.4342 21.1138 35.5137C21.2531 35.5335 21.3128 35.5335 21.2929 35.5534C21.2531 35.5733 20.3577 35.8714 19.7012 36.09C18.6666 36.408 15.4831 37.3619 12.8767 38.0972C12.3992 38.2363 11.9814 38.3555 11.9615 38.3555C11.9018 38.3754 11.7028 38.3158 11.7028 38.2959C11.7028 38.276 11.8421 38.0972 12.0212 37.8984C12.8966 36.865 13.7522 35.6925 14.4883 34.5995C14.6873 34.2418 14.8664 34.0033 14.8664 34.0033ZM13.792 34.0232C13.792 34.0232 13.3741 34.7187 12.6181 35.9111C12.2997 36.408 11.9416 36.9843 11.8023 37.183C11.6829 37.3817 11.5039 37.6798 11.4044 37.8587L11.2253 38.1767L11.1258 38.1568C10.907 38.0972 9.37497 37.5606 8.97704 37.4016C8.47964 37.2029 7.96233 36.9644 7.56441 36.7458C7.08689 36.4874 6.47011 36.09 6.5298 36.09C6.54969 36.09 7.36544 35.8515 8.38015 35.5932C11.0264 34.8777 12.4987 34.4604 13.4736 34.1424C13.6328 34.0629 13.792 34.0232 13.792 34.0232ZM21.3327 35.7919C21.3725 35.8515 20.3776 38.5741 20.0195 39.4287C19.9399 39.6274 19.92 39.6671 19.8603 39.6671C19.7609 39.6671 18.3283 39.4684 17.4728 39.3293C15.9607 39.0908 13.4338 38.6536 12.7971 38.5145L12.6579 38.4748L13.5532 38.276C15.503 37.8388 16.4183 37.6003 17.3733 37.3221C18.5671 36.9644 19.741 36.5073 20.9347 35.9509C21.1337 35.8714 21.2929 35.7919 21.3327 35.7919Z" fill="url(#paint0_linear_569_6760)"/>
<path d="M16.8362 0.000374625C16.6969 -0.0194985 14.5481 0.755553 13.1554 1.312C11.2851 2.06718 9.83266 2.80249 8.93733 3.43843C8.59909 3.6769 8.18127 4.09424 8.12158 4.25322C8.10169 4.31284 8.08179 4.39233 8.08179 4.45195L8.89754 5.22701L10.8275 5.84307L15.4235 6.65787L20.6762 7.55216L20.7359 7.09508H20.6961L19.9997 6.99571L19.8604 6.75724C19.1441 5.50523 18.3483 3.93525 17.8907 2.88198C17.5325 2.06718 17.1943 1.11327 17.0152 0.437583C16.9158 0.0202472 16.8959 0.000374625 16.8362 0.000374625ZM16.7367 0.298471C16.7566 0.298471 16.7765 0.47733 16.7964 0.676061C16.8959 1.53061 17.0948 2.3454 17.3933 3.21982C17.6121 3.89551 17.6121 3.85576 17.3535 3.77627C16.7367 3.59741 13.9711 3.12046 11.9616 2.84223C11.6432 2.80249 11.3647 2.76274 11.3647 2.74287C11.3448 2.72299 12.8171 1.94794 13.4538 1.64984C14.2894 1.27226 16.5775 0.338218 16.7367 0.298471ZM10.8872 3.02109L11.1259 3.10058C12.4192 3.53779 15.6424 4.15386 17.4331 4.29297C17.632 4.31284 17.8111 4.33272 17.8111 4.33272C17.8111 4.33272 17.6519 4.43208 17.4331 4.53145C16.5775 4.96866 15.6225 5.48536 14.9659 5.90269C14.767 6.02193 14.5879 6.1213 14.568 6.1213C14.5481 6.1213 14.4088 6.10142 14.2894 6.08155L14.0507 6.0418L13.4538 5.44561C12.3794 4.41221 11.5437 3.61728 11.2254 3.29931L10.8872 3.02109ZM10.6484 3.19995L11.504 4.2731C11.9616 4.86929 12.4391 5.42574 12.5386 5.56485C12.638 5.68409 12.7176 5.80333 12.7176 5.80333C12.6977 5.8232 11.4841 5.58472 10.8474 5.44561C10.1908 5.28662 9.91225 5.22701 9.51433 5.0879L9.17609 4.98853V4.90904C9.17609 4.51157 9.69339 3.89551 10.5688 3.27944L10.6484 3.19995ZM17.9106 4.65069C17.9305 4.65069 17.9703 4.7103 18.03 4.86929C18.2289 5.32637 18.8855 6.53863 19.0447 6.77711C19.0845 6.8566 19.1839 6.8566 18.3284 6.71749C16.2791 6.37965 15.6225 6.28028 15.6225 6.26041C15.6225 6.26041 15.6822 6.22066 15.7618 6.16104C16.3985 5.80333 17.0351 5.36612 17.6121 4.88916C17.7514 4.76992 17.8708 4.67056 17.9106 4.65069Z" fill="url(#paint1_linear_569_6760)"/>
<path d="M8.16132 4.15387C8.16132 4.15387 8.02205 4.37247 8.16132 4.69044C8.24091 4.88917 8.47966 5.12765 8.73831 5.36613C8.73831 5.36613 11.4442 7.98938 11.7626 8.36697C13.2548 10.0959 13.9114 11.7851 13.971 14.1103C14.0108 15.6207 13.7323 16.9323 13.016 18.4625C11.7626 21.205 9.09645 24.2456 4.9978 27.6042L5.59469 27.4054C5.97272 27.1073 6.50992 26.8092 7.7435 26.1335C10.6086 24.5636 13.8119 23.1327 17.7513 21.6621C23.4218 19.5357 32.7532 17.0317 38.0655 16.2169L38.6226 16.1374L38.543 15.9983C38.0655 15.2431 37.7273 14.786 37.3293 14.2892C36.1753 12.8384 34.7627 11.6858 33.0317 10.712C30.6641 9.3805 27.5801 8.3471 23.6805 7.57205C22.9443 7.43294 21.3327 7.15471 20.0195 6.95598C17.234 6.51877 15.4434 6.22068 13.4736 5.88283C12.7574 5.76359 11.7029 5.58473 11.0065 5.42575C10.6484 5.34626 9.95199 5.18727 9.39489 4.98854C8.91738 4.84943 8.30059 4.67057 8.16132 4.15387ZM9.73313 5.6841C9.73313 5.6841 9.83261 5.72385 9.97188 5.76359C10.2106 5.84308 10.5091 5.94245 10.8473 6.02194C11.106 6.10144 11.3845 6.16105 11.6432 6.24055C12.0013 6.33991 12.3197 6.41941 12.3197 6.41941C12.3594 6.45915 12.9762 8.42659 13.1752 9.1619C13.2548 9.44012 13.3145 9.69847 13.3145 9.69847C13.3145 9.69847 13.2349 9.59911 13.1553 9.45999C12.439 8.20799 11.3248 6.95598 10.0316 5.92258C9.85251 5.78347 9.73313 5.6841 9.73313 5.6841ZM12.7176 6.4989C12.7574 6.4989 12.8767 6.51877 13.0359 6.55852C14.0705 6.79699 15.9209 7.13484 17.0948 7.33357C17.2937 7.37331 17.4529 7.39319 17.4529 7.41306C17.4529 7.43294 17.3733 7.47268 17.2937 7.51243C17.0948 7.61179 16.279 8.08875 16.0204 8.26761C15.3439 8.72469 14.747 9.20164 14.3093 9.63885L13.9909 9.95682C13.9909 9.95682 13.9511 9.85745 13.9313 9.71834C13.7124 8.88367 13.2548 7.63167 12.837 6.75725C12.7574 6.63801 12.6977 6.4989 12.7176 6.4989C12.6977 6.4989 12.6977 6.4989 12.7176 6.4989ZM17.9503 7.49255C17.9901 7.51243 18.0498 7.71116 18.1692 8.16824C18.388 9.04266 18.4875 10.0363 18.4676 10.9505C18.4477 11.2088 18.4477 11.4473 18.4278 11.4672L18.4079 11.5268L18.0896 11.4274C17.433 11.2287 16.3785 10.9107 15.4832 10.6524C14.9659 10.5133 14.548 10.394 14.548 10.3742C14.548 10.3344 15.3041 9.57923 15.6224 9.30101C16.2392 8.76443 17.9105 7.47268 17.9503 7.49255ZM18.3681 7.55217C18.388 7.5323 20.8751 7.96951 22.0092 8.18811C22.8448 8.3471 24.0784 8.60545 24.158 8.6452C24.1978 8.66507 24.0585 8.72469 23.6606 8.90355C22.0689 9.61898 20.8751 10.2748 19.6813 11.0498C19.363 11.2486 19.1043 11.4274 19.1043 11.4274C19.1043 11.4274 19.0844 11.2486 19.0844 11.0498C19.0844 9.8972 18.8456 8.74456 18.4278 7.7509C18.4079 7.65154 18.3681 7.57205 18.3681 7.55217ZM24.8145 8.82405C24.8344 8.84393 24.7549 9.34075 24.6753 9.61898C24.4564 10.5133 23.8595 11.8646 23.1433 13.1166C23.0239 13.3353 22.9045 13.5141 22.8846 13.534C22.8647 13.534 22.7055 13.4545 22.5265 13.3353C21.8301 12.9179 21.0143 12.5403 20.1588 12.1826C19.92 12.0832 19.7012 12.0038 19.7012 11.9839C19.6614 11.9441 21.6112 10.6524 22.6458 10.0363C23.4616 9.53949 24.7946 8.80418 24.8145 8.82405ZM25.2722 8.90355C25.3318 8.90355 26.4261 9.20164 27.0031 9.3805C28.4357 9.79784 30.0672 10.394 31.1217 10.8909L31.5594 11.0896L31.2411 11.1691C28.6346 11.7653 26.4063 12.4608 24.2574 13.3353C24.0784 13.4147 23.9192 13.4744 23.9192 13.4744C23.8993 13.4744 23.959 13.3353 24.0386 13.1564C24.6952 11.7851 25.113 10.3543 25.2125 9.12215C25.2523 9.00291 25.2722 8.90355 25.2722 8.90355ZM14.2894 11.4274C14.3093 11.4076 15.1449 11.6063 15.6025 11.7454C16.2989 11.9441 17.7513 12.4211 17.7513 12.4608C17.7513 12.4608 17.5922 12.5999 17.3932 12.7788C16.5974 13.4346 15.8413 14.1302 14.9261 15.0245C14.6475 15.2828 14.4287 15.5014 14.4088 15.5014C14.3889 15.5014 14.3889 15.4617 14.3889 15.4219C14.5281 14.4084 14.4884 13.0968 14.3093 11.7653C14.3093 11.5665 14.2894 11.4274 14.2894 11.4274ZM31.9971 11.4473C32.017 11.4672 31.5992 12.0832 31.3604 12.441C31.0023 12.9577 30.4651 13.6532 29.2514 15.1636C28.6147 15.9585 27.8985 16.8727 27.6597 17.1708C27.421 17.4689 27.222 17.7272 27.2021 17.7272C27.2021 17.7272 27.1225 17.6278 27.023 17.4887C26.3466 16.4752 25.5308 15.5809 24.5758 14.786C24.3967 14.627 24.1978 14.468 24.1182 14.4283C24.0585 14.3885 23.9988 14.3289 23.9988 14.3289C23.9988 14.309 25.0334 13.8718 25.8094 13.5539C27.1822 12.9974 29.0525 12.3217 30.4452 11.9044C31.2013 11.646 31.9971 11.4274 31.9971 11.4473ZM32.4746 11.5665C32.4945 11.5665 32.6537 11.6262 32.8129 11.7454C34.2852 12.5801 35.7376 13.6731 36.8717 14.786C37.1901 15.104 37.9859 15.9188 37.966 15.9386C37.966 15.9386 37.6875 15.9585 37.3691 15.9784C34.8224 16.1771 31.5594 16.7137 28.4158 17.4689C28.1969 17.5086 28.0179 17.5682 27.998 17.5682C27.9781 17.5682 28.2168 17.3298 28.5153 17.0515C30.3656 15.2828 31.2013 14.15 32.1961 12.1627C32.3354 11.8249 32.4547 11.5864 32.4746 11.5665C32.4547 11.5665 32.4547 11.5665 32.4746 11.5665ZM18.965 12.9378C19.0446 12.9577 19.8405 13.3353 20.4374 13.6135C20.9746 13.8917 21.8102 14.3289 21.85 14.3488C21.85 14.3488 21.5714 14.5078 21.2133 14.6866C20.0792 15.2629 19.1043 15.7995 18.0697 16.4156C17.7712 16.5944 17.5325 16.7336 17.5325 16.7336C17.5126 16.7336 17.5126 16.7137 17.6718 16.4156C18.209 15.4219 18.6467 14.2295 18.9053 13.0769C18.9252 12.9974 18.9451 12.9378 18.965 12.9378ZM18.1891 13.0968C18.209 13.1166 18.01 13.852 17.8707 14.2693C17.632 15.0443 17.1943 15.9982 16.7963 16.7336C16.6968 16.9124 16.5576 17.1509 16.478 17.29L16.3188 17.5285L15.9806 17.2105C15.5827 16.8329 15.2643 16.5944 14.8465 16.3758C14.6873 16.2963 14.548 16.2169 14.548 16.197C14.548 16.1572 15.5827 15.2033 16.3785 14.5276C16.9555 14.0308 18.1692 13.0769 18.1891 13.0968ZM23.004 15.0642L23.3024 15.2629C23.9789 15.7002 24.7748 16.2963 25.3915 16.813C25.7298 17.0913 26.4063 17.6875 26.5455 17.8465L26.6251 17.9259L26.1277 18.0651C23.3422 18.8401 21.2133 19.5158 18.7064 20.43C18.4278 20.5293 18.1891 20.6088 18.1692 20.6088C18.1294 20.6088 18.1095 20.6486 18.7263 20.0722C20.318 18.6016 21.7505 16.972 22.805 15.4021L23.004 15.0642ZM21.7306 15.3822C21.7505 15.4021 20.9149 16.5547 20.4175 17.2304C19.8206 18.0253 18.7661 19.3369 18.0498 20.1915C17.7513 20.5492 17.4927 20.8473 17.4728 20.8473C17.4529 20.8473 17.4529 20.7678 17.4529 20.6287C17.4529 19.8934 17.2738 19.1183 16.9356 18.4426C16.7963 18.1644 16.7764 18.1048 16.7963 18.0651C16.9157 17.9657 18.6666 16.9522 19.8007 16.356C20.5368 15.9585 21.7107 15.3623 21.7306 15.3822ZM14.0705 17.2503C14.0904 17.2503 14.2297 17.3298 14.3889 17.4092C14.7669 17.6278 15.125 17.8663 15.4235 18.1048C15.4434 18.1247 15.2842 18.2439 15.0653 18.4029C14.4884 18.8202 13.6129 19.476 13.1155 19.8735C12.5783 20.2908 12.5584 20.3107 12.6181 20.2114C13.016 19.5953 13.215 19.2574 13.4338 18.8202C13.6129 18.4228 13.8119 17.9657 13.9511 17.5484C13.9909 17.3894 14.0506 17.2503 14.0705 17.2503ZM16.1198 18.86C16.1596 18.86 16.1795 18.8997 16.3586 19.1581C16.6968 19.6748 16.9754 20.3703 17.0351 20.9268L17.055 21.046L16.2193 21.364C14.7271 21.9403 13.3543 22.5166 12.439 22.934C12.1804 23.0532 11.7228 23.2718 11.4243 23.4109C11.1259 23.5699 10.8871 23.6693 10.8871 23.6693C10.8871 23.6693 11.0662 23.5302 11.3049 23.3513C13.1155 22.0397 14.6873 20.5889 15.8612 19.1581C15.9806 18.9991 16.1 18.86 16.1198 18.86ZM15.1847 19.0786C15.2046 19.0985 14.5082 19.8934 14.0506 20.3703C12.8767 21.5627 11.7228 22.4968 10.2902 23.4109C10.1112 23.5302 9.95199 23.6295 9.93209 23.6494C9.8923 23.6693 9.95199 23.6097 10.5688 22.934C10.9667 22.4968 11.2651 22.139 11.6233 21.7018C11.862 21.4037 11.9018 21.364 12.2202 21.1255C13.0956 20.4498 15.1449 19.0587 15.1847 19.0786Z" fill="url(#paint2_radial_569_6760)"/>
<defs>
<linearGradient id="paint0_linear_569_6760" x1="8.04039" y1="36.0292" x2="10.9383" y2="34.3148" gradientUnits="userSpaceOnUse">
<stop stop-color="#909CA9"/>
<stop offset="1" stop-color="#EDEDEE"/>
</linearGradient>
<linearGradient id="paint1_linear_569_6760" x1="8.10537" y1="3.78362" x2="10.4385" y2="3.78362" gradientUnits="userSpaceOnUse">
<stop stop-color="#939FAB"/>
<stop offset="1" stop-color="#DCDEE1"/>
</linearGradient>
<radialGradient id="paint2_radial_569_6760" cx="0" cy="0" r="1" gradientUnits="userSpaceOnUse" gradientTransform="translate(19.8679 14.4574) rotate(-171.467) scale(3.00804 6.01085)">
<stop stop-color="#EE352C"/>
<stop offset="1" stop-color="#A91D22"/>
</radialGradient>
</defs>
</svg>
