<svg width="41" height="40" viewBox="0 0 41 40" fill="none" xmlns="http://www.w3.org/2000/svg">
<path d="M11.0722 2.60734C12.2695 2.00869 16.2035 0.469292 20.8217 5.60061C23.815 9.0215 25.6964 9.19254 26.2096 8.08075C26.2951 7.99523 26.2951 7.90971 26.3806 7.73866C26.7227 6.28479 25.6964 3.63361 23.0453 1.6666C17.4008 -2.6095 10.9011 2.69287 10.9011 2.69287C10.9473 2.64642 11.0073 2.61638 11.0722 2.60734Z" fill="#244280"/>
<path d="M7.39482 38.0135C6.28303 37.3293 2.94767 34.5926 5.17125 28.0929C6.62512 23.8168 5.85542 22.1064 4.65812 22.1919C4.53756 22.1791 4.41637 22.2094 4.31603 22.2774C2.94767 22.705 1.15171 24.9286 0.724101 28.1784C-0.131119 35.2768 7.65139 38.1845 7.65139 38.1845C7.65139 38.1845 7.48034 38.0135 7.39482 38.0135Z" fill="#244280"/>
<path d="M39.8932 23.2182V23.4747C39.8077 24.7576 39.209 29.0337 32.3673 30.402C27.9201 31.2572 26.8083 32.7966 27.578 33.8229C27.6635 33.9084 27.6635 33.9939 27.8346 34.0795C28.8609 35.1057 31.7686 35.5333 34.6763 34.2505C41.2615 31.4283 39.8932 23.2182 39.8932 23.2182Z" fill="#244280"/>
<path d="M16.4601 12.9555C26.0386 20.2249 27.1504 20.6525 29.1174 19.9683C31.683 19.1131 33.479 15.1791 31.683 9.79121C29.8871 4.40332 26.2952 2.86392 26.2952 2.86392C26.4485 3.02569 26.5913 3.19708 26.7228 3.37705C27.4357 4.22726 28.0657 5.14366 28.6042 6.11376C30.3147 9.10703 30.4002 11.7582 28.1766 13.041C25.9531 14.3239 21.9335 9.87673 20.1376 8.25181C14.4076 3.29153 10.5591 3.20601 8.07896 4.91645C4.82912 7.22555 3.9739 12.6134 4.31599 14.2384C5.00017 11.9293 7.13822 5.94271 16.4601 12.9555Z" fill="#00A1DC"/>
<path d="M13.7063 28.0929C15.1601 16.2054 14.9891 15.008 13.4497 13.5542C11.3972 11.7582 7.20659 12.1858 3.3581 16.3764C-0.490389 20.567 0.0227427 24.501 0.0227427 24.501C0.0955012 24.2962 0.181196 24.0963 0.279309 23.9023C0.677294 22.8921 1.16381 21.9191 1.73318 20.9946C3.52915 18.0013 5.75272 16.633 7.89077 17.9158C10.0288 19.1986 8.23286 24.8431 7.80525 27.3232C6.35137 34.7636 8.23286 38.099 10.9696 39.3818C14.5615 41.0067 19.6928 39.0397 20.9756 37.9279C18.4955 38.6121 12.2524 39.7239 13.7063 28.0929Z" fill="#00A1DC"/>
<path d="M28.0055 36.8161C24.5847 36.7306 22.19 35.5333 22.19 32.9677C22.19 30.402 28.0055 29.2047 30.4001 28.3495C37.584 25.8693 39.551 22.6195 39.2944 19.6262C38.9524 15.6922 34.6763 12.2713 33.0513 11.6727C34.8473 13.4686 38.9524 18.3434 28.1766 22.8761C17.1442 27.4942 16.2035 28.2639 15.7759 30.3165C15.2627 32.9677 17.7429 36.4741 23.3018 37.6714C28.8608 38.8687 31.9395 36.4741 31.9395 36.4741C31.7452 36.5315 31.5435 36.5603 31.3409 36.5596C30.2473 36.8055 29.1239 36.8919 28.0055 36.8161Z" fill="#00A1DC"/>
</svg>
