<svg width="40" height="40" viewBox="0 0 40 40" fill="none" xmlns="http://www.w3.org/2000/svg">
<g clip-path="url(#clip0_571_7212)">
<path d="M18.9055 26.668H21.0946V20.6978H26.6004V18.5751H21.0946V12.605H18.9055V18.5751H13.4661V20.6978H18.9055V26.668Z" fill="#E8762D"/>
<path d="M8.7562 35.2916H10.6136V29.9848H15.5224V28.3264H10.6136V22.9532H8.7562V28.3264H3.84741V29.9848H8.7562V35.2916Z" fill="#C72037"/>
<path d="M29.3863 16.1207H31.2437V10.8139H36.2188V9.22189H31.2437V3.84875H29.3863V9.22189H24.4775V10.8139H29.3863V16.1207Z" fill="#5B879B"/>
<path d="M19.2372 39.4707H20.8292V35.6896H24.2123V34.2965H20.8292V30.5154H19.2372V34.2965H15.9204V35.6896H19.2372V39.4707Z" fill="#5C6692"/>
<path d="M8.82254 16.1207H10.5472V10.7476H15.5224V9.22189H10.5472V3.84875H8.82254V9.22189H3.84741V10.7476H8.82254V16.1207Z" fill="#EB9129"/>
<path d="M35.0248 24.0809H36.6168V20.3662H39.9999V18.9068H36.6168V15.192H35.0248V18.9068H31.708V20.3662H35.0248V24.0809Z" fill="#5C6692"/>
<path fill-rule="evenodd" clip-rule="evenodd" d="M29.3863 35.2916H31.2437V29.9848H36.2188V28.3264H31.2437V22.9532H29.3863V28.3264H24.4775V29.9848H29.3863V35.2916Z" fill="#1F457E"/>
<path d="M23.9469 4.77746V3.64977H20.6302V0.00134277H19.4362V3.64977H16.1194V4.77746H19.4362V8.42589H20.6302V4.77746H23.9469ZM3.31675 23.8156H4.51078V20.1672H7.82753V19.0395H4.51078V15.4574H3.31675V19.0395H0V20.2335L3.31675 20.1672V23.8156Z" fill="#7199A6"/>
</g>
<defs>
<clipPath id="clip0_571_7212">
<rect width="40" height="39.472" fill="white"/>
</clipPath>
</defs>
</svg>
