<svg width="74" height="40" viewBox="0 0 74 40" fill="none" xmlns="http://www.w3.org/2000/svg">
<path fill-rule="evenodd" clip-rule="evenodd" d="M67.4924 27.3773C67.8858 27.1929 68.1809 26.9224 68.3776 26.5781V19.6928C68.3161 19.5083 68.1809 19.3116 67.9719 19.1149C67.7629 18.9182 67.5169 18.746 67.2587 18.6231C66.9883 18.5001 66.7423 18.4264 66.5087 18.4264C65.3776 18.4264 64.5661 18.8444 64.0866 19.6928C63.607 20.5289 63.3611 21.7338 63.3611 23.283C63.3611 26.197 64.3448 27.6601 66.312 27.6601C66.7055 27.6601 67.0989 27.5741 67.4924 27.3773ZM61.6644 28.5208C60.8898 27.9675 60.3242 27.2298 59.9676 26.3322C59.6111 25.4224 59.4389 24.4142 59.4389 23.2953C59.4389 22.2133 59.6603 21.2174 60.1152 20.2952C60.5578 19.3731 61.2341 18.6354 62.1193 18.0698C63.0169 17.5042 64.0989 17.2214 65.3776 17.2214C66.0415 17.2214 66.5948 17.2706 67.0497 17.3813C67.5047 17.4796 67.9842 17.6886 68.476 17.996L68.3653 13.5574C68.3653 13.0533 68.1686 12.6845 67.7629 12.4877C67.3571 12.291 66.7792 12.1558 66.0169 12.1066C65.9309 12.0697 65.8571 12.0205 65.8079 11.9467C65.7587 11.873 65.7341 11.7746 65.7341 11.6517C65.7341 11.541 65.7587 11.4303 65.8079 11.3197C65.8694 11.209 65.9309 11.1475 66.0046 11.1352C67.2096 11.0615 68.7711 11.0123 70.6768 11.0123H71.6359C71.7219 11.0123 71.7957 11.0492 71.8695 11.123C71.9433 11.1967 71.9801 11.3197 71.9801 11.4795V26.9962C71.9801 27.3036 72.0416 27.5372 72.1769 27.697C72.2998 27.8568 72.4597 27.9552 72.6318 28.0044C72.8039 28.0536 73.0252 28.0905 73.2834 28.1273C73.4556 28.1396 73.5662 28.1765 73.6154 28.2257C73.6769 28.2749 73.7015 28.3855 73.7015 28.5577C73.7015 28.656 73.6646 28.7667 73.5908 28.8651C73.5171 28.9757 73.4187 29.0249 73.308 29.0249H69.2998C69.0047 29.0249 68.7957 28.9757 68.6727 28.8897C68.5498 28.8036 68.4637 28.6683 68.4391 28.5208C68.4145 28.361 68.4145 28.115 68.4145 27.7585C68.0456 28.2749 67.4924 28.6683 66.7792 28.9388C66.0907 29.2093 65.353 29.3446 64.603 29.3446C63.4349 29.3569 62.439 29.0741 61.6644 28.5208ZM38.3402 19.1026C38.0697 18.5001 37.6394 18.205 37.0369 18.205C36.4099 18.205 35.8689 18.5124 35.4139 19.1395C34.959 19.7665 34.6885 20.7256 34.5779 22.0166H38.746C38.746 20.6764 38.6107 19.7051 38.3402 19.1026ZM32.2295 27.7585C31.1352 26.7011 30.5819 25.1642 30.5819 23.1723C30.5819 21.9182 30.877 20.8485 31.4671 19.951C32.0573 19.0534 32.8442 18.3772 33.8278 17.91C34.8115 17.455 35.8935 17.2214 37.0738 17.2214C38.7951 17.2214 40.0739 17.5534 40.9222 18.2296C41.7706 18.9059 42.2993 19.8772 42.5206 21.1805C42.5944 21.5985 42.619 22.2379 42.619 23.0986L34.541 23.1109C34.541 24.242 34.7131 25.1519 35.0697 25.8527C35.4139 26.5535 35.8689 27.0454 36.4099 27.3527C36.9386 27.6478 37.5287 27.8077 38.1312 27.8077C38.8443 27.8077 39.4468 27.7093 39.9263 27.5249C40.4058 27.3404 40.8362 27.0331 41.1927 26.6027C41.2173 26.5781 41.2296 26.5535 41.2542 26.529C41.2788 26.4921 41.3157 26.4552 41.3649 26.4429C41.4017 26.4306 41.4509 26.4183 41.4878 26.4306L42.0042 26.6765C42.078 26.7011 42.1272 26.7503 42.1272 26.8117C42.1272 26.8609 42.1026 26.9224 42.0534 27.0085C41.6354 27.7339 41.0206 28.3118 40.2091 28.7298C39.4099 29.1479 38.414 29.3569 37.2336 29.3569C34.9959 29.3569 33.3237 28.8282 32.2295 27.7585ZM43.6395 28.8528C43.578 28.7544 43.5411 28.6437 43.5411 28.5331C43.5411 28.3978 43.5657 28.2995 43.6149 28.2257C43.6764 28.1519 43.7747 28.115 43.9223 28.1028C44.7461 28.0044 45.1518 27.7585 45.1518 27.3527V19.951C45.1518 19.5944 45.0903 19.3239 44.9551 19.1395C44.8198 18.9551 44.6723 18.8321 44.5002 18.7706C44.328 18.7091 44.0944 18.66 43.8239 18.6231C43.6026 18.5862 43.4674 18.5739 43.4305 18.5493C43.3444 18.5124 43.2706 18.4632 43.2214 18.3895C43.1723 18.3157 43.1477 18.2173 43.1477 18.0821C43.1477 17.9714 43.1723 17.8608 43.2214 17.7501C43.2706 17.6395 43.3444 17.578 43.4305 17.5657C45.2502 17.455 46.8854 17.4058 48.3486 17.4058C48.4224 17.4058 48.4961 17.4427 48.5699 17.5042C48.6437 17.578 48.6806 17.7009 48.6929 17.8608V19.1641C48.865 18.9551 49.197 18.6969 49.6888 18.3772C50.1806 18.0698 50.7462 17.787 51.3978 17.5534C52.0495 17.3198 52.6888 17.1968 53.3159 17.1968C54.4593 17.1968 55.3692 17.4427 56.0454 17.9345C56.7217 18.4264 57.0537 19.3362 57.0537 20.6641V26.9593C57.0537 27.3896 57.1643 27.6724 57.3856 27.8077C57.6069 27.9429 57.8283 28.0167 58.0619 28.0413L58.5291 28.0905C58.6643 28.1028 58.7627 28.1396 58.8242 28.2011C58.8857 28.2626 58.9102 28.361 58.9102 28.5208C58.9102 28.6314 58.8734 28.7421 58.7996 28.8405C58.7381 28.9388 58.6275 29.0003 58.5045 29.0003H52.2585C52.1355 29.0003 52.0249 28.9388 51.9634 28.8405C51.8896 28.7421 51.865 28.6314 51.8527 28.5208C51.8527 28.3855 51.8773 28.2749 51.9265 28.2134C51.9757 28.1519 52.0741 28.1028 52.2216 28.0905C52.4921 28.0659 52.7503 27.9798 52.9962 27.8446C53.2298 27.7093 53.3405 27.5495 53.3405 27.3404V20.7379C53.3405 20.4674 53.3159 20.1969 53.2667 19.9264C53.2175 19.6928 53.0946 19.4715 52.8855 19.2747C52.6765 19.078 52.3691 18.9796 51.9511 18.9796C51.5577 18.9796 51.1519 19.0534 50.7339 19.201C50.3158 19.3485 49.9347 19.5452 49.5904 19.7665C49.2461 19.9879 48.9756 20.2092 48.7789 20.4305V26.9716C48.7789 27.279 48.8404 27.5126 48.9511 27.6724C49.0617 27.8323 49.197 27.9306 49.3691 27.9921C49.5289 28.0413 49.738 28.0782 49.9962 28.1028C50.1683 28.115 50.2789 28.1519 50.3281 28.2011C50.3896 28.2503 50.4142 28.361 50.4142 28.5331C50.4142 28.6315 50.3773 28.7421 50.3035 28.8405C50.2298 28.9511 50.1314 29.0003 50.0207 29.0003H43.91C43.8116 29.0249 43.701 28.9634 43.6395 28.8528ZM16.7251 26.738C16.2456 27.3281 15.6185 27.6232 14.8562 27.6232C14.3767 27.6232 13.9955 27.4757 13.7373 27.1683C13.4668 26.8609 13.3316 26.5044 13.3316 26.0863C13.3316 25.3363 13.4914 24.7461 13.8234 24.3158C14.1554 23.8855 14.5488 23.5904 15.0283 23.406C15.5079 23.2338 16.0734 23.0863 16.7374 22.9879V26.738H16.7251ZM30.0778 28.2134C30.0163 28.1642 29.9056 28.1273 29.7458 28.115C29.5122 28.0905 29.2663 28.0536 29.0327 28.0044C28.8482 27.9675 28.6761 27.8691 28.5409 27.7216C28.3933 27.5741 28.3196 27.365 28.3196 27.0945V11.4672C28.3196 11.3074 28.2827 11.1844 28.2089 11.1107C28.1351 11.0369 28.0491 11 27.9753 11C26.1925 11 24.4711 11.0615 22.799 11.1598C22.7252 11.1721 22.6514 11.2213 22.6022 11.3443C22.5531 11.4549 22.5285 11.5656 22.5285 11.6762C22.5285 11.8115 22.5531 11.9099 22.6022 11.9836C22.6514 12.0574 22.7252 12.1189 22.8113 12.1435C22.8481 12.1435 22.9834 12.1681 23.2539 12.2172C23.5736 12.2541 23.8318 12.3033 24.0408 12.3648C24.2375 12.4263 24.4219 12.5492 24.5695 12.7336C24.717 12.9181 24.7908 13.2009 24.7908 13.5574L24.7785 27.4757C24.7785 27.6724 23.4998 27.9552 22.6637 27.9552C21.8153 27.9552 20.7825 27.6724 20.6965 27.4757C20.6104 27.2667 20.5735 27.0208 20.5735 26.7134V20.4551C20.5735 19.8157 20.4014 19.2624 20.0325 18.7706C19.676 18.2911 19.1227 17.91 18.3727 17.6272C17.6226 17.3567 16.6636 17.2214 15.5202 17.2214C14.7087 17.2214 13.8849 17.3198 13.0242 17.5165C12.1635 17.7132 11.4381 18.0206 10.8479 18.4387C10.2578 18.8567 9.96268 19.3731 9.96268 19.9879C9.96268 20.4674 10.1348 20.8608 10.4914 21.1682C10.725 21.3772 11.0201 21.5002 11.3398 21.574C11.684 21.6231 12.0406 21.5494 12.0037 21.0944C12.0037 21.0575 12.0037 21.0453 12.0037 21.0207C11.9299 20.0739 12.3971 19.078 13.5775 18.5616C13.639 18.537 13.6759 18.5247 13.725 18.5001C13.9341 18.4018 14.3767 18.3157 15.016 18.3157C15.5816 18.3157 16.0243 18.4509 16.307 18.7091C16.6021 18.9674 16.7374 19.4469 16.7374 20.1354V22.0535C15.4095 22.1887 14.2169 22.3977 13.1718 22.6559C12.1144 22.9141 11.2291 23.3322 10.4914 23.9101C9.75366 24.4756 9.3848 25.2502 9.3848 26.197C9.3848 26.8978 9.56923 27.4757 9.92579 27.9429C10.2701 28.3978 10.7373 28.7544 11.266 28.9634C11.7947 29.1724 12.3234 29.2954 12.8521 29.2954C13.6759 29.2954 14.4505 29.1601 15.1513 28.8897C15.8521 28.6192 16.4546 28.2257 16.9464 27.7093V27.7462C16.9464 28.0044 16.9956 28.4224 16.9956 28.4224C16.9956 28.4224 17.0448 28.7544 17.4382 28.9634C17.8317 29.1724 20.4629 29.0126 20.9055 29.0126H29.7581C29.8811 29.0126 29.9917 28.9511 30.0532 28.8528C30.127 28.7544 30.1516 28.6437 30.1516 28.5331C30.1638 28.3732 30.1393 28.2626 30.0778 28.2134ZM8.57331 27.7831C8.62249 27.9183 8.62249 28.0044 8.57331 28.029C8.37659 28.238 8.0815 28.447 7.67575 28.656C7.27001 28.8651 6.83967 29.0249 6.37245 29.1601C5.90523 29.2954 5.51178 29.3569 5.15522 29.3569C4.03635 29.3569 3.15109 29.1356 2.48714 28.7052C1.82319 28.2749 1.49122 27.5003 1.49122 26.4183V18.7091H0.249397C0.175626 18.6969 0.101854 18.6477 0.0526728 18.5247C0.0403775 18.4878 0.0280818 18.4509 0.0157865 18.4264C-0.0825758 18.0206 0.310874 17.9223 0.310874 17.9223C2.20435 17.3321 3.74126 15.9427 4.52816 14.123C4.52816 14.123 4.70029 13.8033 4.98309 13.9017C5.14292 13.9632 5.22899 14.0615 5.22899 14.1968V17.4427H7.79871C7.88477 17.455 7.95855 17.5042 7.99543 17.578C8.04461 17.6518 8.0692 17.7501 8.0692 17.8485C8.0692 18.0944 8.03232 18.2911 7.95855 18.4509C7.88477 18.6108 7.811 18.6969 7.72494 18.6969H5.22899V25.3855C5.22899 26.0494 5.26588 26.5413 5.32735 26.8978C5.38883 27.2421 5.49949 27.4757 5.65933 27.6109C5.80687 27.7339 6.02818 27.8077 6.31098 27.8077C6.56918 27.8077 6.86427 27.7585 7.22083 27.6601C7.5651 27.5618 7.88477 27.4388 8.17986 27.2913C8.22904 27.2667 8.29052 27.3159 8.37659 27.4265C8.45036 27.5249 8.52413 27.6478 8.57331 27.7831Z" fill="#F17176"/>
</svg>
