<svg width="40" height="40" viewBox="0 0 40 40" fill="none" xmlns="http://www.w3.org/2000/svg">
<path d="M22.3168 6.15363V12.3072L32.976 18.4608V12.3072L22.3168 6.15363ZM1 12.3072V18.4608L6.3296 21.5376V15.384L1 12.3072ZM16.9872 15.384L11.6576 18.4608V36.9216L16.9872 40V27.6928L22.3168 30.7696V24.616L16.9872 21.5392V15.384Z" fill="#E55B2D"/>
<path d="M22.3168 6.15363L6.32959 15.384V21.5376L16.9888 15.384V21.5376L22.3184 18.4608V6.15363H22.3168ZM38.304 9.23043L32.9744 12.3072V18.4608L38.304 15.384V9.23043ZM27.6464 21.5392L22.3168 24.616V30.7696L27.6464 27.6928V21.5392ZM22.3168 30.7696L16.9872 27.6928V40L22.3168 36.9232V30.7696Z" fill="#ED8E24"/>
<path d="M22.3168 0L1 12.3072L6.3296 15.384L22.3168 6.1536L32.976 12.3072L38.3056 9.2304L22.3168 0ZM22.3168 18.4608L16.9872 21.5376L22.3168 24.6144L27.6464 21.5376L22.3168 18.4608Z" fill="#F8BF3C"/>
</svg>
