<svg width="40" height="40" viewBox="0 0 40 40" fill="none" xmlns="http://www.w3.org/2000/svg">
<g clip-path="url(#clip0_556_1985)">
<path d="M2.84253 20C2.84226 23.2225 3.74934 26.38 5.45994 29.111C7.17053 31.842 9.61552 34.0362 12.515 35.4425L4.33253 13.0175C3.34987 15.2141 2.84213 17.5935 2.84253 20Z" fill="#04759B"/>
<path d="M31.5824 19.1338C31.5594 17.4559 31.0694 15.8176 30.1674 14.4026C29.2453 13.2425 28.6621 11.8498 28.4824 10.3788C28.4626 9.59451 28.7537 8.83417 29.2923 8.26371C29.8309 7.69325 30.5733 7.35897 31.3574 7.33381C31.4337 7.33381 31.5062 7.34381 31.5799 7.34756C29.7477 5.67009 27.5731 4.41058 25.2063 3.65612C22.8395 2.90166 20.3371 2.67024 17.8721 2.97787C15.4071 3.28551 13.0383 4.12485 10.9296 5.43787C8.82083 6.75088 7.02242 8.50624 5.65869 10.5826C6.06119 10.5951 6.44119 10.6026 6.76244 10.6026C8.55744 10.6026 11.3349 10.3851 11.3349 10.3851C11.4278 10.3778 11.5211 10.389 11.6096 10.4178C11.6982 10.4467 11.7801 10.4927 11.8509 10.5532C11.9216 10.6137 11.9798 10.6876 12.022 10.7706C12.0642 10.8536 12.0896 10.9441 12.0968 11.0369C12.104 11.1298 12.0929 11.2231 12.0641 11.3116C12.0352 11.4002 11.9892 11.4821 11.9287 11.5529C11.8681 11.6236 11.7943 11.6818 11.7113 11.724C11.6283 11.7662 11.5378 11.7916 11.4449 11.7988C11.4449 11.7988 10.5149 11.9076 9.48119 11.9626L15.7312 30.5463L19.4812 19.2851L16.8174 11.9576C15.8937 11.9038 15.0187 11.7938 15.0187 11.7938C14.8312 11.7794 14.6571 11.6911 14.5348 11.5483C14.4124 11.4056 14.3518 11.22 14.3662 11.0326C14.3806 10.8451 14.4689 10.671 14.6117 10.5486C14.7544 10.4263 14.94 10.3656 15.1274 10.3801C15.1274 10.3801 17.9612 10.5976 19.6462 10.5976C21.4399 10.5976 24.2187 10.3801 24.2187 10.3801C24.4062 10.3655 24.5918 10.426 24.7346 10.5482C24.8775 10.6705 24.966 10.8445 24.9806 11.0319C24.9952 11.2194 24.9347 11.405 24.8124 11.5479C24.6902 11.6908 24.5162 11.7792 24.3287 11.7938C24.3287 11.7938 23.3974 11.9026 22.3649 11.9576L28.5649 30.4013L30.2762 24.6826C30.9651 22.902 31.4047 21.0347 31.5824 19.1338Z" fill="#04759B"/>
<path d="M20.3013 21.5L15.1538 36.4587C18.61 37.4763 22.2988 37.3805 25.6976 36.185C25.6489 36.1101 25.6071 36.0311 25.5726 35.9487L20.3013 21.5Z" fill="#04759B"/>
<path d="M35.055 11.7675C35.1328 12.3521 35.1712 12.9414 35.17 13.5312C35.1405 15.6451 34.6972 17.7328 33.865 19.6762L28.625 34.835C32.4905 32.5865 35.3256 28.9179 36.5266 24.6103C37.7275 20.3028 37.1995 15.6965 35.055 11.7725V11.7675Z" fill="#04759B"/>
<path d="M20 0C16.0444 0 12.1776 1.17298 8.8886 3.37061C5.59962 5.56824 3.03617 8.69181 1.52242 12.3463C0.00866562 16.0009 -0.387401 20.0222 0.384303 23.9018C1.15601 27.7814 3.06082 31.3451 5.85787 34.1421C8.65492 36.9392 12.2186 38.844 16.0982 39.6157C19.9778 40.3874 23.9992 39.9913 27.6537 38.4776C31.3082 36.9638 34.4318 34.4004 36.6294 31.1114C38.827 27.8224 40 23.9556 40 20C40 14.6957 37.8929 9.60859 34.1421 5.85786C30.3914 2.10714 25.3043 0 20 0ZM20 39.0838C16.2259 39.0838 12.5365 37.9646 9.39847 35.8679C6.2604 33.7711 3.81454 30.7909 2.3702 27.3041C0.925851 23.8173 0.547881 19.9805 1.28408 16.2789C2.02028 12.5773 3.83759 9.17711 6.5062 6.50833C9.17481 3.83954 12.5749 2.02201 16.2764 1.28557C19.978 0.549124 23.8148 0.926843 27.3017 2.37096C30.7886 3.81508 33.769 6.26073 35.8659 9.39867C37.9629 12.5366 39.0823 16.2259 39.0825 20C39.0827 22.5061 38.5892 24.9876 37.6303 27.3029C36.6714 29.6183 35.2658 31.7221 33.4938 33.4942C31.7218 35.2663 29.6181 36.672 27.3029 37.6311C24.9876 38.5901 22.5061 39.0838 20 39.0838Z" fill="#04759B"/>
</g>
<defs>
<clipPath id="clip0_556_1985">
<rect width="40" height="40" fill="white"/>
</clipPath>
</defs>
</svg>
