<svg id="Layer_1" data-name="Layer 1" xmlns="http://www.w3.org/2000/svg" width="21.93" height="21.93" viewBox="0 0 21.93 21.93"><path d="M0,11A11,11,0,1,0,11,0,11,11,0,0,0,0,11ZM7.48,8.54a3.07,3.07,0,0,1,2.63-3.2v-1a.85.85,0,1,1,1.69,0V5.3A4.09,4.09,0,0,1,13.54,6a1,1,0,0,1,.18,1.48h0a1,1,0,0,1-1.29.19,2.26,2.26,0,0,0-1.22-.36c-.84,0-1.29.34-1.29,1.12,0,1.66,4.58,1.51,4.58,4.83a3.2,3.2,0,0,1-2.7,3.32v1a.85.85,0,1,1-1.69,0v-.89A6.27,6.27,0,0,1,8,16a1,1,0,0,1-.39-1.49h0A1,1,0,0,1,9,14.15a3.29,3.29,0,0,0,1.66.48c1,0,1.42-.41,1.42-1.2C12.06,11.64,7.48,11.67,7.48,8.54Z"/></svg>