<svg id="Layer_1" data-name="Layer 1" xmlns="http://www.w3.org/2000/svg" width="26.28" height="25.83" viewBox="0 0 26.28 25.83"><path d="M12.81.09a5,5,0,0,1,3.78,1.42,4.56,4.56,0,0,0,.94.75,2,2,0,0,1,1,1.75c.05.77.05,1.55.1,2.32s.16,1.3.22,1.95a2.44,2.44,0,0,1,0,.81,16.31,16.31,0,0,1-.69,2c-.1.25-.4.41-.59.63a1.56,1.56,0,0,0-.26.45c-.23.54-.42,1.11-.67,1.65A4.44,4.44,0,0,1,11.1,16a4.83,4.83,0,0,1-2.91-3.07c-.25-.66-.57-1.29-.88-1.93A6.47,6.47,0,0,1,6.6,8.44a1,1,0,0,1,.29-.84A1,1,0,0,0,7.08,7a13,13,0,0,0,0-1.4A4.52,4.52,0,0,1,8.31,2.48,7,7,0,0,1,11.11.39,11.55,11.55,0,0,1,12.8,0Z"/><path d="M23.74,19a2.76,2.76,0,0,0-.81-.5l-5.34-2.28c-.51-.21-.52-.21-.69.33-.74,2.26-1.47,4.52-2.21,6.78,0,.15-.11.29-.16.44l-.11,0c-.3-.85-.61-1.7-.89-2.55a.57.57,0,0,1,.1-.36c.19-.39.43-.77.59-1.17.48-1.19,0-1.91-1.22-2a2.65,2.65,0,0,0-1.26.27,1,1,0,0,0-.49,1.33,12.43,12.43,0,0,0,.68,1.48.84.84,0,0,1,0,.77c-.22.59-.43,1.19-.65,1.79a2.42,2.42,0,0,1-.18.36l-.14,0C10.17,21.16,9.34,18.59,8.5,16c-.18.08-.34.13-.48.21a31.31,31.31,0,0,1-5.08,2.2A5.52,5.52,0,0,0,1.87,19S0,23.29,0,25.83H26.28A22.26,22.26,0,0,0,23.74,19Z"/></svg>