<?xml version="1.0" encoding="utf-8"?>
<!-- Generator: Adobe Illustrator 25.2.0, SVG Export Plug-In . SVG Version: 6.00 Build 0)  -->
<svg version="1.1" id="Layer_1" xmlns="http://www.w3.org/2000/svg" xmlns:xlink="http://www.w3.org/1999/xlink" x="0px" y="0px"
	 viewBox="0 0 82 82.1" style="enable-background:new 0 0 82 82.1;" xml:space="preserve">
<style type="text/css">
	.st0{opacity:0.3;fill:#010101;}
	.st1{fill:#EB2627;}
	.st2{fill:#FFFFFF;}
</style>
<g>
	<path class="st0" d="M82,41.8C82.1,64,64.1,82.1,41.8,82.1C19.6,82.2,1.5,64.2,1.5,42C1.4,19.8,19.4,1.7,41.6,1.6
		c0.1,0,0.1,0,0.2,0C64,1.7,81.9,19.6,82,41.8z"/>
	<g>
		<path class="st1" d="M78.9,39.3c0.1,21.8-17.5,39.5-39.3,39.6C17.8,78.9,0.1,61.3,0,39.6C-0.1,17.8,17.5,0.1,39.3,0
			c0.1,0,0.1,0,0.2,0C61.2,0,78.8,17.6,78.9,39.3z"/>
		<path class="st2" d="M52.9,39.3l-22.3,15V24.3L52.9,39.3z"/>
	</g>
</g>
</svg>
